<svg width="608" height="508" viewBox="0 0 608 508" fill="none" xmlns="http://www.w3.org/2000/svg">
<g filter="url(#filter0_d_615_95)">
<g clip-path="url(#clip0_615_95)">
<rect x="4" width="600" height="500" rx="70" fill="white"/>
<path d="M4 280.997L605 127.723V490C605 495.523 600.523 500 595 500H14C8.47715 500 4 495.523 4 490V280.997Z" fill="#06B6D4"/>
<path d="M4 280.998L605 127.724V490C605 495.523 600.523 500 595 500H14C8.47715 500 4 495.523 4 490V280.998Z" fill="#111827"/>
<path d="M190.001 122.957C190.001 122.957 167.153 119.572 155.08 118.601C143.486 117.669 129.747 117.132 115.008 117.132C100.268 117.132 86.5288 117.669 74.9379 118.601C62.8616 119.585 40.0176 124.282 40.0176 124.282V130.185C40.0176 135.433 73.5932 139.697 115.008 139.697C156.422 139.697 189.997 135.433 189.997 130.185L190.001 122.957Z" fill="#F0D50C"/>
<path d="M91.9499 44.6509C64.5663 54.4079 46.2799 80.3345 46.2783 109.404V119.139C56.0502 116.804 66.0135 115.36 76.046 114.823C75.9782 112.955 75.9433 111.074 75.9411 109.178C75.9509 83.6349 82.117 60.6499 91.9499 44.6509Z" fill="#F0D50C"/>
<path d="M183.732 109.405C183.756 93.454 178.207 77.9959 168.045 65.7012C172.45 79.7719 174.646 94.4411 174.552 109.185C174.552 111.868 174.483 114.52 174.345 117.142C177.473 117.623 180.571 118.28 183.624 119.11L183.732 109.405Z" fill="#FFF04D"/>
<path d="M183.732 109.405C183.756 93.454 178.207 77.9959 168.045 65.7012C172.45 79.7719 174.646 94.4411 174.552 109.185C174.552 111.868 174.483 114.52 174.345 117.142C177.473 117.623 180.571 118.28 183.624 119.11L183.732 109.405Z" fill="#FFEA00"/>
<path d="M168.044 65.6974C149.631 43.3769 119.219 34.965 91.9525 44.6508C82.113 60.6498 75.9502 83.6348 75.9502 109.181C75.9502 111.077 75.9852 112.959 76.0551 114.826C86.2882 114.036 98.1349 113.547 110.821 113.458C110.821 113.458 113.704 113.458 115.013 113.458C134.857 113.22 154.691 114.456 174.352 117.155C174.485 114.531 174.554 111.878 174.558 109.198C174.651 94.4479 172.454 79.7731 168.044 65.6974Z" fill="#FFF04D"/>
<path d="M142.651 70.2435L138.296 43.0209C137.986 41.018 136.551 39.3724 134.609 38.7932C121.918 35.0689 108.425 35.0689 95.7335 38.7932C93.7927 39.3734 92.3592 41.0189 92.0503 43.0209L87.6914 70.2435" fill="#FFF04D"/>
<path d="M115.013 112.881C113.701 112.881 112.399 112.881 111.107 112.881H110.962H110.818C71.352 113.157 40.0198 117.303 40.0198 122.376V129.73C39.9559 130.161 40.0478 130.6 40.2789 130.97C42.2833 129.464 44.5873 128.406 47.0354 127.867C53.2702 126.35 59.6071 125.289 65.996 124.692C69.6245 124.294 73.2488 125.477 75.9438 127.939C80.8782 132.456 87.3257 134.962 94.0156 134.961H135.997C142.687 134.961 149.135 132.456 154.069 127.939C156.764 125.474 160.39 124.29 164.02 124.689C170.408 125.285 176.744 126.347 182.978 127.864C185.296 128.309 187.486 129.267 189.386 130.668C189.495 130.776 189.619 130.871 189.714 130.97C189.947 130.599 190.04 130.157 189.977 129.723V122.37C190 117.139 156.424 112.881 115.013 112.881Z" fill="#FFF04D"/>
<path d="M130.809 91.0444L114.994 100.779V113.423L130.809 91.0444Z" fill="#6E6F70"/>
<path d="M115.01 113.423V100.779L99.1943 91.0444L115.01 113.423Z" fill="#0A0A0A"/>
<path d="M99.1943 85.2681L115.01 94.4122V59.6887L99.1943 85.2681Z" fill="#0A0A0A"/>
<path d="M130.809 85.2684L114.994 59.6858V76.121V94.4093L130.809 85.2652V85.2684Z" fill="#6E6F70"/>
</g>
</g>
<defs>
<filter id="filter0_d_615_95" x="0" y="0" width="608" height="508" filterUnits="userSpaceOnUse" color-interpolation-filters="sRGB">
<feFlood flood-opacity="0" result="BackgroundImageFix"/>
<feColorMatrix in="SourceAlpha" type="matrix" values="0 0 0 0 0 0 0 0 0 0 0 0 0 0 0 0 0 0 127 0" result="hardAlpha"/>
<feOffset dy="4"/>
<feGaussianBlur stdDeviation="2"/>
<feColorMatrix type="matrix" values="0 0 0 0 0 0 0 0 0 0 0 0 0 0 0 0 0 0 0.25 0"/>
<feBlend mode="normal" in2="BackgroundImageFix" result="effect1_dropShadow_615_95"/>
<feBlend mode="normal" in="SourceGraphic" in2="effect1_dropShadow_615_95" result="shape"/>
</filter>
<clipPath id="clip0_615_95">
<rect x="4" width="600" height="500" rx="70" fill="white"/>
</clipPath>
</defs>
</svg>
