<svg width="608" height="508" viewBox="0 0 608 508" fill="none" xmlns="http://www.w3.org/2000/svg">
<g filter="url(#filter0_d_513_87)">
<g clip-path="url(#clip0_513_87)">
<rect x="4" width="600" height="500" rx="70" fill="white"/>
<path fill-rule="evenodd" clip-rule="evenodd" d="M73.0585 48C64.2423 48 58.7336 52.3862 56.5286 61.1587C59.8348 56.7725 63.6917 55.128 68.0991 56.2239C70.6138 56.849 72.412 58.6647 74.4007 60.675C77.6421 63.9485 81.394 67.7368 89.5871 67.7368C98.402 67.7368 103.912 63.3506 106.116 54.5794C102.811 58.9656 98.9539 60.6101 94.5464 59.5129C92.0305 58.8878 90.2322 57.0721 88.2436 55.0631C85.0021 51.7871 81.2515 48 73.0585 48ZM56.5286 67.7368C47.7137 67.7368 42.2037 72.1231 40 80.8956C43.3062 76.5093 47.1631 74.8648 51.5692 75.9607C54.0852 76.5858 55.8834 78.4016 57.8721 80.4118C61.1135 83.6853 64.8641 87.4737 73.0585 87.4737C81.8734 87.4737 87.3833 83.0887 89.5871 74.3162C86.2808 78.7025 82.424 80.347 78.0165 79.2511C75.5019 78.6246 73.7036 76.8089 71.715 74.8C68.4735 71.5265 64.7216 67.7368 56.5286 67.7368Z" fill="#06B6D4"/>
<path fill-rule="evenodd" clip-rule="evenodd" d="M139.169 64.6332H133.4V75.7441C133.4 78.7076 135.353 78.6609 139.169 78.4755V82.9668C131.445 83.8928 128.374 81.7632 128.374 75.7441V64.6332H124.094V59.8177H128.374V53.6002L133.4 52.1178V59.8177H139.169V64.6332ZM161.159 59.8177H166.183V82.9668H161.159V79.6336C159.391 82.0862 156.646 83.5686 153.017 83.5686C146.689 83.5686 141.432 78.2446 141.432 71.3916C141.432 64.4945 146.689 59.2159 153.017 59.2159C156.646 59.2159 159.391 60.697 161.159 63.1054V59.8177ZM153.808 78.7997C157.996 78.7997 161.159 75.6974 161.159 71.3916C161.159 67.0858 157.996 63.9848 153.808 63.9848C149.621 63.9848 146.457 67.0871 146.457 71.3916C146.457 75.6974 149.621 78.7997 153.808 78.7997ZM174.558 56.3458C172.791 56.3458 171.349 54.8647 171.349 53.1514C171.353 52.3024 171.693 51.4895 172.294 50.8908C172.896 50.2921 173.71 49.9564 174.558 49.9571C175.406 49.956 176.22 50.2916 176.822 50.8904C177.424 51.4891 177.764 52.3021 177.768 53.1514C177.768 54.8634 176.326 56.3458 174.558 56.3458ZM172.046 82.9668V59.8177H177.071V82.9668H172.046ZM182.887 82.9668V49.1672H187.911V82.9655H182.887V82.9668ZM220.526 59.8177H225.83L218.526 82.9668H213.594L208.755 67.3646L203.87 82.9668H198.939L191.633 59.8177H196.937L201.451 75.7895L206.336 59.8177H211.129L215.966 75.7895L220.526 59.8177ZM232.065 56.3458C230.296 56.3458 228.854 54.8647 228.854 53.1514C228.858 52.3021 229.198 51.4891 229.8 50.8904C230.402 50.2916 231.216 49.956 232.065 49.9571C232.913 49.956 233.727 50.2916 234.329 50.8904C234.931 51.4891 235.271 52.3021 235.275 53.1514C235.275 54.8634 233.833 56.3458 232.065 56.3458ZM229.553 82.9668V59.8177H234.577V82.9668H229.553ZM252.629 59.2159C257.839 59.2159 261.562 62.7345 261.562 68.7536V82.9655H256.537V69.262C256.537 65.7434 254.49 63.8927 251.327 63.8927C248.023 63.8927 245.418 65.8368 245.418 70.559V82.9668H240.392V59.8177H245.418V62.7812C246.953 60.3741 249.465 59.2159 252.629 59.2159ZM285.383 50.5589H290.408V82.9655H285.383V79.6323C283.616 82.0862 280.87 83.5673 277.242 83.5673C270.914 83.5673 265.657 78.2433 265.657 71.3903C265.657 64.4932 270.914 59.2146 277.242 59.2146C280.87 59.2146 283.616 60.6957 285.383 63.1041V50.5589ZM278.032 78.7997C282.219 78.7997 285.383 75.6974 285.383 71.3916C285.383 67.0858 282.219 63.9848 278.032 63.9848C273.845 63.9848 270.681 67.0871 270.681 71.3916C270.681 75.6974 273.845 78.7997 278.032 78.7997ZM307.25 83.5686C300.225 83.5686 294.967 78.2446 294.967 71.3916C294.967 64.4945 300.225 59.2159 307.25 59.2159C311.809 59.2159 315.765 61.5764 317.625 65.1883L313.298 67.6888C312.274 65.5126 309.996 64.1235 307.204 64.1235C303.11 64.1235 299.993 67.2258 299.993 71.3916C299.993 75.5587 303.11 78.6609 307.204 78.6609C309.996 78.6609 312.274 77.2252 313.391 75.0957L317.718 77.5495C315.765 81.2068 311.809 83.5686 307.25 83.5686ZM325.999 66.2064C325.999 70.4202 338.516 67.873 338.516 76.4393C338.516 81.0694 334.467 83.5686 329.443 83.5686C324.791 83.5686 321.44 81.4844 319.952 78.1512L324.279 75.652C325.023 77.7349 326.884 78.9852 329.443 78.9852C331.677 78.9852 333.397 78.2446 333.397 76.3913C333.397 72.2722 320.882 74.5873 320.882 66.2998C320.882 61.9473 324.651 59.2159 329.396 59.2159C333.212 59.2159 336.376 60.9759 338.004 64.0315L333.77 66.3919C332.932 64.5866 331.303 63.7526 329.396 63.7526C327.581 63.7526 325.999 64.5399 325.999 66.2064ZM347.449 66.2064C347.449 70.4202 359.964 67.873 359.964 76.4393C359.964 81.0694 355.916 83.5686 350.891 83.5686C346.238 83.5686 342.89 81.4844 341.4 78.1512L345.727 75.652C346.472 77.7349 348.332 78.9852 350.891 78.9852C353.124 78.9852 354.846 78.2446 354.846 76.3913C354.846 72.2722 342.331 74.5873 342.331 66.2998C342.331 61.9473 346.099 59.2159 350.845 59.2159C354.66 59.2159 357.823 60.9759 359.452 64.0315L355.218 66.3919C354.381 64.5866 352.753 63.7526 350.845 63.7526C349.03 63.7526 347.449 64.5399 347.449 66.2064Z" fill="#111827"/>
<path d="M4 280.997L605 127.724V490C605 495.523 600.523 500 595 500H14C8.47715 500 4 495.523 4 490V280.997Z" fill="#06B6D4"/>
<path d="M4 280.997L605 127.724V490C605 495.523 600.523 500 595 500H14C8.47715 500 4 495.523 4 490V280.997Z" fill="#111827"/>
</g>
</g>
<defs>
<filter id="filter0_d_513_87" x="0" y="0" width="608" height="508" filterUnits="userSpaceOnUse" color-interpolation-filters="sRGB">
<feFlood flood-opacity="0" result="BackgroundImageFix"/>
<feColorMatrix in="SourceAlpha" type="matrix" values="0 0 0 0 0 0 0 0 0 0 0 0 0 0 0 0 0 0 127 0" result="hardAlpha"/>
<feOffset dy="4"/>
<feGaussianBlur stdDeviation="2"/>
<feColorMatrix type="matrix" values="0 0 0 0 0 0 0 0 0 0 0 0 0 0 0 0 0 0 0.25 0"/>
<feBlend mode="normal" in2="BackgroundImageFix" result="effect1_dropShadow_513_87"/>
<feBlend mode="normal" in="SourceGraphic" in2="effect1_dropShadow_513_87" result="shape"/>
</filter>
<clipPath id="clip0_513_87">
<rect x="4" width="600" height="500" rx="70" fill="white"/>
</clipPath>
</defs>
</svg>
