<svg width="608" height="508" viewBox="0 0 608 508" fill="none" xmlns="http://www.w3.org/2000/svg">
<g filter="url(#filter0_d_615_120)">
<g clip-path="url(#clip0_615_120)">
<rect x="4" width="600" height="500" rx="70" fill="white"/>
<path d="M4 280.997L605 127.723V490C605 495.523 600.523 500 595 500H14C8.47715 500 4 495.523 4 490V280.997Z" fill="#06B6D4"/>
<path d="M4 280.998L605 127.724V490C605 495.523 600.523 500 595 500H14C8.47715 500 4 495.523 4 490V280.998Z" fill="#111827"/>
<path d="M88.0048 162.754V175.689C87.9611 176.488 88.0612 177.288 88.3002 178.052C88.4915 178.516 88.831 178.904 89.2656 179.154C89.7566 179.445 90.3202 179.589 90.8904 179.571C91.4993 179.588 92.1001 179.429 92.6207 179.112C93.075 178.84 93.4286 178.427 93.6282 177.936C93.8641 177.047 93.9584 176.127 93.9078 175.209V162.754H97.7271V174.676C97.7853 176.08 97.6719 177.487 97.3895 178.864C97.1298 179.704 96.6865 180.475 96.0918 181.122C95.4852 181.811 94.7292 182.352 93.8815 182.705C92.9561 183.074 91.9658 183.254 90.9695 183.232C89.6377 183.262 88.3245 182.915 87.1819 182.23C86.1822 181.644 85.3797 180.773 84.8766 179.729C84.5311 178.978 84.3151 177.837 84.2287 176.308L84.2076 175.861C84.2046 175.784 84.202 175.707 84.1996 175.629L84.1891 175.15C84.1867 174.986 84.1855 174.82 84.1855 174.649L84.1908 162.754H88.0048ZM51.0517 162.754V166.504H47.4117V182.752H43.5502V166.504H40V162.754H51.0517ZM60.621 162.754H65.7274C67.936 162.754 69.5098 162.951 70.4488 163.344C71.3904 163.745 72.1808 164.434 72.7066 165.312C73.2983 166.289 73.5968 167.415 73.5664 168.556C73.6095 169.729 73.2768 170.884 72.6169 171.853C71.9011 172.803 70.9072 173.505 69.7735 173.863L74.5213 182.752H70.3485L65.8488 174.285H64.4297V182.752H60.621V162.754ZM119.182 162.754V166.462H113.036V170.097H119.182V173.753H113.036V182.752H109.254V162.754H119.182ZM139.644 162.754V166.462H133.499V170.097H139.644V173.753H133.499V182.752H129.716V162.754H139.644ZM153.956 162.754V179.123H159.5V182.752H150.147V162.754H153.956ZM180 162.754V166.478H172.863V170.097H180V173.753H172.863V179.017H180V182.752H169.085V162.754H180ZM66.524 166.441H64.4139L64.4297 170.572H66.6928C67.9061 170.572 68.7396 170.413 69.1933 170.097C69.6763 169.72 69.9347 169.124 69.879 168.514C69.8918 168.101 69.7736 167.695 69.5414 167.354C69.3198 167.031 69.0025 166.785 68.6341 166.652C67.9454 166.475 67.234 166.404 66.524 166.441Z" fill="#5E464D"/>
<path d="M109.87 143.763C139.284 143.763 163.129 119.639 163.129 89.8815C163.129 60.1236 139.284 36 109.87 36C80.4562 36 56.6113 60.1236 56.6113 89.8815C56.6113 119.639 80.4562 143.763 109.87 143.763Z" fill="#5E464D"/>
<path d="M93.1213 137.66C95.2999 138.404 102.617 140.783 102.928 138.456C103.097 137.18 99.2353 135.871 94.0075 133.102C86.5722 129.172 79.7702 124.147 73.8296 118.194C65.1587 109.692 60.1727 98.125 59.9452 85.9833C59.5021 69.6828 65.8746 56.5052 76.3565 48.0015C63.5384 57.895 55.864 73.0403 55.4665 89.2276C55.1552 101.018 58.4523 110.951 64.6454 119.993C66.5685 122.477 68.8165 124.691 71.3292 126.576C77.2638 131.066 85.9416 135.217 93.1213 137.654" fill="white"/>
<path d="M163.862 77.532C160.56 62.0017 150.294 51.1294 136.563 43.4486C147.087 50.9237 161.858 66.818 153.127 80.8396C145.742 92.0707 127.806 89.8709 117.968 84.5323C106.299 78.202 91.6969 63.9588 106.098 50.0374C115.436 41.0273 145.135 51.1294 139.907 64.5971C136.858 72.4309 124.989 70.69 119.65 66.8602C115.715 64.0327 112.402 59.1742 114.159 54.1574C114.718 52.5484 114.639 50.0532 112.365 51.889C110.688 53.2606 109.817 55.5184 109.522 57.6285C107.037 75.1898 138.325 88.8053 147.609 71.8137C152.426 62.9934 144.618 50.1851 134.79 44.9415C127.405 40.9851 119.719 38.205 110.297 38.8803C95.2313 39.9353 82.5918 49.378 81.004 64.7712C79.4214 80.0694 89.6501 93.8379 101.694 102.073C114.354 110.724 131.372 116.427 146.945 111.267C160.903 106.641 166.669 90.62 163.862 77.5426" fill="white"/>
<path d="M144.218 65.6366C145.716 55.5715 136.616 48.6609 128.213 45.5221C118.306 41.8294 105.218 43.4436 98.0012 51.6467C92.7259 57.671 93.0688 66.4174 95.7908 73.4968C99.9055 84.1897 109.195 91.918 120.01 95.2572C127.696 97.6311 136.985 98.665 144.772 96.1593C156.129 92.5035 159.827 80.6606 157.48 69.8094C156.977 67.4636 156.205 65.1836 155.18 63.0148C153.745 60.0027 149.35 53.9045 155.406 61.332C156.041 62.1598 156.626 63.0247 157.158 63.9222C158.407 65.9744 159.398 68.1733 160.107 70.4688C163.409 80.5973 160.819 92.4138 151.666 98.5279C144.645 103.207 135.719 103.766 127.574 102.595C116.654 101.013 106.362 95.7373 99.2092 87.2494C92.6784 79.5106 88.2208 68.3956 90.9059 58.2355C92.8736 50.8026 98.9085 45.2531 106.136 42.9372C115.278 39.9778 125.343 41.3546 133.567 46.1604C137.692 48.5606 141.48 51.8841 143.59 56.2414C144.544 58.2044 145.057 60.3524 145.093 62.5348C145.114 63.4187 145.045 64.3025 144.888 65.1724C144.83 65.4889 144.16 66.3805 144.255 65.6472" fill="#3FE0C5"/>
</g>
</g>
<defs>
<filter id="filter0_d_615_120" x="0" y="0" width="608" height="508" filterUnits="userSpaceOnUse" color-interpolation-filters="sRGB">
<feFlood flood-opacity="0" result="BackgroundImageFix"/>
<feColorMatrix in="SourceAlpha" type="matrix" values="0 0 0 0 0 0 0 0 0 0 0 0 0 0 0 0 0 0 127 0" result="hardAlpha"/>
<feOffset dy="4"/>
<feGaussianBlur stdDeviation="2"/>
<feColorMatrix type="matrix" values="0 0 0 0 0 0 0 0 0 0 0 0 0 0 0 0 0 0 0.25 0"/>
<feBlend mode="normal" in2="BackgroundImageFix" result="effect1_dropShadow_615_120"/>
<feBlend mode="normal" in="SourceGraphic" in2="effect1_dropShadow_615_120" result="shape"/>
</filter>
<clipPath id="clip0_615_120">
<rect x="4" width="600" height="500" rx="70" fill="white"/>
</clipPath>
</defs>
</svg>
