<svg width="608" height="508" viewBox="0 0 608 508" fill="none" xmlns="http://www.w3.org/2000/svg">
<g filter="url(#filter0_d_611_119)">
<g clip-path="url(#clip0_611_119)">
<rect x="4" width="600" height="500" rx="70" fill="white"/>
<path d="M4 280.997L605 127.723V490C605 495.523 600.523 500 595 500H14C8.47715 500 4 495.523 4 490V280.997Z" fill="#06B6D4"/>
<path d="M4 280.998L605 127.724V490C605 495.523 600.523 500 595 500H14C8.47715 500 4 495.523 4 490V280.998Z" fill="#111827"/>
<path d="M53.6364 106V59.4545H69.9091C73.1515 59.4545 75.8258 60.0152 77.9318 61.1364C80.0379 62.2424 81.6061 63.7348 82.6364 65.6136C83.6667 67.4773 84.1818 69.5455 84.1818 71.8182C84.1818 73.8182 83.8258 75.4697 83.1136 76.7727C82.4167 78.0758 81.4924 79.1061 80.3409 79.8636C79.2045 80.6212 77.9697 81.1818 76.6364 81.5455V82C78.0606 82.0909 79.4924 82.5909 80.9318 83.5C82.3712 84.4091 83.5758 85.7121 84.5455 87.4091C85.5152 89.1061 86 91.1818 86 93.6364C86 95.9697 85.4697 98.0682 84.4091 99.9318C83.3485 101.795 81.6742 103.273 79.3864 104.364C77.0985 105.455 74.1212 106 70.4545 106H53.6364ZM59.2727 101H70.4545C74.1364 101 76.75 100.288 78.2955 98.8636C79.8561 97.4242 80.6364 95.6818 80.6364 93.6364C80.6364 92.0606 80.2348 90.6061 79.4318 89.2727C78.6288 87.9242 77.4848 86.8485 76 86.0455C74.5152 85.2273 72.7576 84.8182 70.7273 84.8182H59.2727V101ZM59.2727 79.9091H69.7273C71.4242 79.9091 72.9545 79.5758 74.3182 78.9091C75.697 78.2424 76.7879 77.303 77.5909 76.0909C78.4091 74.8788 78.8182 73.4545 78.8182 71.8182C78.8182 69.7727 78.1061 68.0379 76.6818 66.6136C75.2576 65.1742 73 64.4545 69.9091 64.4545H59.2727V79.9091ZM104.807 106.818C102.595 106.818 100.587 106.402 98.7841 105.568C96.9811 104.72 95.5492 103.5 94.4886 101.909C93.428 100.303 92.8977 98.3636 92.8977 96.0909C92.8977 94.0909 93.2917 92.4697 94.0795 91.2273C94.8674 89.9697 95.9205 88.9848 97.2386 88.2727C98.5568 87.5606 100.011 87.0303 101.602 86.6818C103.208 86.3182 104.822 86.0303 106.443 85.8182C108.564 85.5455 110.284 85.3409 111.602 85.2045C112.936 85.053 113.905 84.803 114.511 84.4545C115.133 84.1061 115.443 83.5 115.443 82.6364V82.4545C115.443 80.2121 114.83 78.4697 113.602 77.2273C112.39 75.9848 110.549 75.3636 108.08 75.3636C105.519 75.3636 103.511 75.9242 102.057 77.0455C100.602 78.1667 99.5795 79.3636 98.9886 80.6364L93.8977 78.8182C94.8068 76.697 96.0189 75.0455 97.5341 73.8636C99.0644 72.6667 100.731 71.8333 102.534 71.3636C104.352 70.8788 106.14 70.6364 107.898 70.6364C109.019 70.6364 110.307 70.7727 111.761 71.0455C113.231 71.303 114.648 71.8409 116.011 72.6591C117.39 73.4773 118.534 74.7121 119.443 76.3636C120.352 78.0152 120.807 80.2273 120.807 83V106H115.443V101.273H115.17C114.807 102.03 114.201 102.841 113.352 103.705C112.504 104.568 111.375 105.303 109.966 105.909C108.557 106.515 106.837 106.818 104.807 106.818ZM105.625 102C107.746 102 109.534 101.583 110.989 100.75C112.458 99.9167 113.564 98.8409 114.307 97.5227C115.064 96.2045 115.443 94.8182 115.443 93.3636V88.4545C115.216 88.7273 114.716 88.9773 113.943 89.2045C113.186 89.4167 112.307 89.6061 111.307 89.7727C110.322 89.9242 109.36 90.0606 108.42 90.1818C107.496 90.2879 106.746 90.3788 106.17 90.4545C104.777 90.6364 103.473 90.9318 102.261 91.3409C101.064 91.7348 100.095 92.3333 99.3523 93.1364C98.625 93.9242 98.2614 95 98.2614 96.3636C98.2614 98.2273 98.9508 99.6364 100.33 100.591C101.723 101.53 103.489 102 105.625 102ZM155.324 78.9091L150.506 80.2727C150.203 79.4697 149.756 78.6894 149.165 77.9318C148.589 77.1591 147.801 76.5227 146.801 76.0227C145.801 75.5227 144.521 75.2727 142.96 75.2727C140.824 75.2727 139.044 75.7652 137.619 76.75C136.21 77.7197 135.506 78.9545 135.506 80.4545C135.506 81.7879 135.991 82.8409 136.96 83.6136C137.93 84.3864 139.445 85.0303 141.506 85.5455L146.688 86.8182C149.809 87.5758 152.134 88.7348 153.665 90.2955C155.195 91.8409 155.96 93.8333 155.96 96.2727C155.96 98.2727 155.384 100.061 154.233 101.636C153.097 103.212 151.506 104.455 149.46 105.364C147.415 106.273 145.036 106.727 142.324 106.727C138.763 106.727 135.816 105.955 133.483 104.409C131.15 102.864 129.672 100.606 129.051 97.6364L134.142 96.3636C134.627 98.2424 135.544 99.6515 136.892 100.591C138.256 101.53 140.036 102 142.233 102C144.733 102 146.718 101.47 148.188 100.409C149.672 99.3333 150.415 98.0455 150.415 96.5455C150.415 95.3333 149.991 94.3182 149.142 93.5C148.294 92.6667 146.991 92.0455 145.233 91.6364L139.415 90.2727C136.218 89.5152 133.869 88.3409 132.369 86.75C130.884 85.1439 130.142 83.1364 130.142 80.7273C130.142 78.7576 130.695 77.0152 131.801 75.5C132.922 73.9848 134.445 72.7955 136.369 71.9318C138.309 71.0682 140.506 70.6364 142.96 70.6364C146.415 70.6364 149.127 71.3939 151.097 72.9091C153.081 74.4242 154.491 76.4242 155.324 78.9091ZM169.398 85V106H164.034V59.4545H169.398V76.5455H169.852C170.67 74.7424 171.898 73.3106 173.534 72.25C175.186 71.1742 177.383 70.6364 180.125 70.6364C182.504 70.6364 184.587 71.1136 186.375 72.0682C188.163 73.0076 189.549 74.4545 190.534 76.4091C191.534 78.3485 192.034 80.8182 192.034 83.8182V106H186.67V84.1818C186.67 81.4091 185.951 79.2652 184.511 77.75C183.087 76.2197 181.11 75.4545 178.58 75.4545C176.822 75.4545 175.246 75.8258 173.852 76.5682C172.473 77.3106 171.383 78.3939 170.58 79.8182C169.792 81.2424 169.398 82.9697 169.398 85Z" fill="black"/>
</g>
</g>
<defs>
<filter id="filter0_d_611_119" x="0" y="0" width="608" height="508" filterUnits="userSpaceOnUse" color-interpolation-filters="sRGB">
<feFlood flood-opacity="0" result="BackgroundImageFix"/>
<feColorMatrix in="SourceAlpha" type="matrix" values="0 0 0 0 0 0 0 0 0 0 0 0 0 0 0 0 0 0 127 0" result="hardAlpha"/>
<feOffset dy="4"/>
<feGaussianBlur stdDeviation="2"/>
<feColorMatrix type="matrix" values="0 0 0 0 0 0 0 0 0 0 0 0 0 0 0 0 0 0 0.25 0"/>
<feBlend mode="normal" in2="BackgroundImageFix" result="effect1_dropShadow_611_119"/>
<feBlend mode="normal" in="SourceGraphic" in2="effect1_dropShadow_611_119" result="shape"/>
</filter>
<clipPath id="clip0_611_119">
<rect x="4" width="600" height="500" rx="70" fill="white"/>
</clipPath>
</defs>
</svg>
