<svg width="608" height="508" viewBox="0 0 608 508" fill="none" xmlns="http://www.w3.org/2000/svg">
<g filter="url(#filter0_d_611_107)">
<g clip-path="url(#clip0_611_107)">
<rect x="4" width="600" height="500" rx="70" fill="white"/>
<path d="M4 280.997L605 127.723V490C605 495.523 600.523 500 595 500H14C8.47715 500 4 495.523 4 490V280.997Z" fill="#06B6D4"/>
<path d="M4 280.998L605 127.724V490C605 495.523 600.523 500 595 500H14C8.47715 500 4 495.523 4 490V280.998Z" fill="#111827"/>
<path d="M68 106H53.6364V59.4545H68.6364C73.1515 59.4545 77.0152 60.3864 80.2273 62.25C83.4394 64.0985 85.9015 66.7576 87.6136 70.2273C89.3258 73.6818 90.1818 77.8182 90.1818 82.6364C90.1818 87.4848 89.3182 91.6591 87.5909 95.1591C85.8636 98.6439 83.3485 101.326 80.0455 103.205C76.7424 105.068 72.7273 106 68 106ZM59.2727 101H67.6364C71.4848 101 74.6742 100.258 77.2045 98.7727C79.7348 97.2879 81.6212 95.1742 82.8636 92.4318C84.1061 89.6894 84.7273 86.4242 84.7273 82.6364C84.7273 78.8788 84.1136 75.6439 82.8864 72.9318C81.6591 70.2045 79.8258 68.1136 77.3864 66.6591C74.947 65.1894 71.9091 64.4545 68.2727 64.4545H59.2727V101ZM113.091 106.727C109.939 106.727 107.174 105.977 104.795 104.477C102.432 102.977 100.583 100.879 99.25 98.1818C97.9318 95.4848 97.2727 92.3333 97.2727 88.7273C97.2727 85.0909 97.9318 81.9167 99.25 79.2045C100.583 76.4924 102.432 74.3864 104.795 72.8864C107.174 71.3864 109.939 70.6364 113.091 70.6364C116.242 70.6364 119 71.3864 121.364 72.8864C123.742 74.3864 125.591 76.4924 126.909 79.2045C128.242 81.9167 128.909 85.0909 128.909 88.7273C128.909 92.3333 128.242 95.4848 126.909 98.1818C125.591 100.879 123.742 102.977 121.364 104.477C119 105.977 116.242 106.727 113.091 106.727ZM113.091 101.909C115.485 101.909 117.455 101.295 119 100.068C120.545 98.8409 121.689 97.2273 122.432 95.2273C123.174 93.2273 123.545 91.0606 123.545 88.7273C123.545 86.3939 123.174 84.2197 122.432 82.2045C121.689 80.1894 120.545 78.5606 119 77.3182C117.455 76.0758 115.485 75.4545 113.091 75.4545C110.697 75.4545 108.727 76.0758 107.182 77.3182C105.636 78.5606 104.492 80.1894 103.75 82.2045C103.008 84.2197 102.636 86.3939 102.636 88.7273C102.636 91.0606 103.008 93.2273 103.75 95.2273C104.492 97.2273 105.636 98.8409 107.182 100.068C108.727 101.295 110.697 101.909 113.091 101.909ZM151.278 106.727C148.006 106.727 145.188 105.955 142.824 104.409C140.46 102.864 138.642 100.735 137.369 98.0227C136.097 95.3106 135.46 92.2121 135.46 88.7273C135.46 85.1818 136.112 82.053 137.415 79.3409C138.733 76.6136 140.566 74.4848 142.915 72.9545C145.278 71.4091 148.036 70.6364 151.188 70.6364C153.642 70.6364 155.854 71.0909 157.824 72C159.794 72.9091 161.407 74.1818 162.665 75.8182C163.922 77.4545 164.703 79.3636 165.006 81.5455H159.642C159.233 79.9545 158.324 78.5455 156.915 77.3182C155.521 76.0758 153.642 75.4545 151.278 75.4545C149.188 75.4545 147.354 76 145.778 77.0909C144.218 78.1667 142.998 79.6894 142.119 81.6591C141.256 83.6136 140.824 85.9091 140.824 88.5455C140.824 91.2424 141.248 93.5909 142.097 95.5909C142.96 97.5909 144.172 99.1439 145.733 100.25C147.309 101.356 149.157 101.909 151.278 101.909C152.672 101.909 153.938 101.667 155.074 101.182C156.21 100.697 157.172 100 157.96 99.0909C158.748 98.1818 159.309 97.0909 159.642 95.8182H165.006C164.703 97.8788 163.953 99.7348 162.756 101.386C161.574 103.023 160.006 104.326 158.051 105.295C156.112 106.25 153.854 106.727 151.278 106.727ZM177.847 93.2727L177.756 86.6364H178.847L194.119 71.0909H200.756L184.483 87.5455H184.028L177.847 93.2727ZM172.847 106V59.4545H178.21V106H172.847ZM195.028 106L181.392 88.7273L185.21 85L201.847 106H195.028ZM220.858 106.727C217.494 106.727 214.593 105.985 212.153 104.5C209.729 103 207.858 100.909 206.54 98.2273C205.237 95.5303 204.585 92.3939 204.585 88.8182C204.585 85.2424 205.237 82.0909 206.54 79.3636C207.858 76.6212 209.691 74.4848 212.04 72.9545C214.403 71.4091 217.161 70.6364 220.312 70.6364C222.131 70.6364 223.926 70.9394 225.699 71.5455C227.472 72.1515 229.085 73.1364 230.54 74.5C231.994 75.8485 233.153 77.6364 234.017 79.8636C234.881 82.0909 235.312 84.8333 235.312 88.0909V90.3636H208.403V85.7273H229.858C229.858 83.7576 229.464 82 228.676 80.4545C227.903 78.9091 226.797 77.6894 225.358 76.7955C223.934 75.9015 222.252 75.4545 220.312 75.4545C218.176 75.4545 216.328 75.9848 214.767 77.0455C213.222 78.0909 212.032 79.4545 211.199 81.1364C210.366 82.8182 209.949 84.6212 209.949 86.5455V89.6364C209.949 92.2727 210.403 94.5076 211.312 96.3409C212.237 98.1591 213.517 99.5455 215.153 100.5C216.79 101.439 218.691 101.909 220.858 101.909C222.267 101.909 223.54 101.712 224.676 101.318C225.828 100.909 226.82 100.303 227.653 99.5C228.487 98.6818 229.131 97.6667 229.585 96.4545L234.767 97.9091C234.222 99.6667 233.305 101.212 232.017 102.545C230.729 103.864 229.138 104.894 227.244 105.636C225.35 106.364 223.222 106.727 220.858 106.727ZM243.472 106V71.0909H248.653V76.3636H249.017C249.653 74.6364 250.805 73.2348 252.472 72.1591C254.138 71.0833 256.017 70.5455 258.108 70.5455C258.502 70.5455 258.994 70.553 259.585 70.5682C260.176 70.5833 260.623 70.6061 260.926 70.6364V76.0909C260.744 76.0455 260.328 75.9773 259.676 75.8864C259.04 75.7803 258.366 75.7273 257.653 75.7273C255.956 75.7273 254.441 76.0833 253.108 76.7955C251.79 77.4924 250.744 78.4621 249.972 79.7045C249.214 80.9318 248.835 82.3333 248.835 83.9091V106H243.472Z" fill="black"/>
</g>
</g>
<defs>
<filter id="filter0_d_611_107" x="0" y="0" width="608" height="508" filterUnits="userSpaceOnUse" color-interpolation-filters="sRGB">
<feFlood flood-opacity="0" result="BackgroundImageFix"/>
<feColorMatrix in="SourceAlpha" type="matrix" values="0 0 0 0 0 0 0 0 0 0 0 0 0 0 0 0 0 0 127 0" result="hardAlpha"/>
<feOffset dy="4"/>
<feGaussianBlur stdDeviation="2"/>
<feColorMatrix type="matrix" values="0 0 0 0 0 0 0 0 0 0 0 0 0 0 0 0 0 0 0.25 0"/>
<feBlend mode="normal" in2="BackgroundImageFix" result="effect1_dropShadow_611_107"/>
<feBlend mode="normal" in="SourceGraphic" in2="effect1_dropShadow_611_107" result="shape"/>
</filter>
<clipPath id="clip0_611_107">
<rect x="4" width="600" height="500" rx="70" fill="white"/>
</clipPath>
</defs>
</svg>
