<svg width="608" height="508" viewBox="0 0 608 508" fill="none" xmlns="http://www.w3.org/2000/svg">
<g filter="url(#filter0_d_611_151)">
<g clip-path="url(#clip0_611_151)">
<rect x="4" width="600" height="500" rx="70" fill="white"/>
<path d="M4 280.997L605 127.723V490C605 495.523 600.523 500 595 500H14C8.47715 500 4 495.523 4 490V280.997Z" fill="#06B6D4"/>
<path d="M4 280.998L605 127.724V490C605 495.523 600.523 500 595 500H14C8.47715 500 4 495.523 4 490V280.998Z" fill="#111827"/>
<path d="M67 119.818C64.4091 119.818 62.1818 119.485 60.3182 118.818C58.4545 118.167 56.9015 117.303 55.6591 116.227C54.4318 115.167 53.4545 114.03 52.7273 112.818L57 109.818C57.4848 110.455 58.0985 111.182 58.8409 112C59.5833 112.833 60.5985 113.553 61.8864 114.159C63.1894 114.78 64.8939 115.091 67 115.091C69.8182 115.091 72.1439 114.409 73.9773 113.045C75.8106 111.682 76.7273 109.545 76.7273 106.636V99.5455H76.2727C75.8788 100.182 75.3182 100.97 74.5909 101.909C73.8788 102.833 72.8485 103.659 71.5 104.386C70.1667 105.098 68.3636 105.455 66.0909 105.455C63.2727 105.455 60.7424 104.788 58.5 103.455C56.2727 102.121 54.5076 100.182 53.2045 97.6364C51.9167 95.0909 51.2727 92 51.2727 88.3636C51.2727 84.7879 51.9015 81.6742 53.1591 79.0227C54.4167 76.3561 56.1667 74.2955 58.4091 72.8409C60.6515 71.3712 63.2424 70.6364 66.1818 70.6364C68.4545 70.6364 70.2576 71.0152 71.5909 71.7727C72.9394 72.5152 73.9697 73.3636 74.6818 74.3182C75.4091 75.2576 75.9697 76.0303 76.3636 76.6364H76.9091V71.0909H82.0909V107C82.0909 110 81.4091 112.439 80.0455 114.318C78.697 116.212 76.8788 117.598 74.5909 118.477C72.3182 119.371 69.7879 119.818 67 119.818ZM66.8182 100.636C68.9697 100.636 70.7879 100.144 72.2727 99.1591C73.7576 98.1742 74.8864 96.7576 75.6591 94.9091C76.4318 93.0606 76.8182 90.8485 76.8182 88.2727C76.8182 85.7576 76.4394 83.5379 75.6818 81.6136C74.9242 79.6894 73.803 78.1818 72.3182 77.0909C70.8333 76 69 75.4545 66.8182 75.4545C64.5455 75.4545 62.6515 76.0303 61.1364 77.1818C59.6364 78.3333 58.5076 79.8788 57.75 81.8182C57.0076 83.7576 56.6364 85.9091 56.6364 88.2727C56.6364 90.697 57.0152 92.8409 57.7727 94.7045C58.5455 96.553 59.6818 98.0076 61.1818 99.0682C62.697 100.114 64.5758 100.636 66.8182 100.636ZM106.091 106.727C102.939 106.727 100.174 105.977 97.7955 104.477C95.4318 102.977 93.5833 100.879 92.25 98.1818C90.9318 95.4848 90.2727 92.3333 90.2727 88.7273C90.2727 85.0909 90.9318 81.9167 92.25 79.2045C93.5833 76.4924 95.4318 74.3864 97.7955 72.8864C100.174 71.3864 102.939 70.6364 106.091 70.6364C109.242 70.6364 112 71.3864 114.364 72.8864C116.742 74.3864 118.591 76.4924 119.909 79.2045C121.242 81.9167 121.909 85.0909 121.909 88.7273C121.909 92.3333 121.242 95.4848 119.909 98.1818C118.591 100.879 116.742 102.977 114.364 104.477C112 105.977 109.242 106.727 106.091 106.727ZM106.091 101.909C108.485 101.909 110.455 101.295 112 100.068C113.545 98.8409 114.689 97.2273 115.432 95.2273C116.174 93.2273 116.545 91.0606 116.545 88.7273C116.545 86.3939 116.174 84.2197 115.432 82.2045C114.689 80.1894 113.545 78.5606 112 77.3182C110.455 76.0758 108.485 75.4545 106.091 75.4545C103.697 75.4545 101.727 76.0758 100.182 77.3182C98.6364 78.5606 97.4924 80.1894 96.75 82.2045C96.0076 84.2197 95.6364 86.3939 95.6364 88.7273C95.6364 91.0606 96.0076 93.2273 96.75 95.2273C97.4924 97.2273 98.6364 98.8409 100.182 100.068C101.727 101.295 103.697 101.909 106.091 101.909Z" fill="black"/>
</g>
</g>
<defs>
<filter id="filter0_d_611_151" x="0" y="0" width="608" height="508" filterUnits="userSpaceOnUse" color-interpolation-filters="sRGB">
<feFlood flood-opacity="0" result="BackgroundImageFix"/>
<feColorMatrix in="SourceAlpha" type="matrix" values="0 0 0 0 0 0 0 0 0 0 0 0 0 0 0 0 0 0 127 0" result="hardAlpha"/>
<feOffset dy="4"/>
<feGaussianBlur stdDeviation="2"/>
<feColorMatrix type="matrix" values="0 0 0 0 0 0 0 0 0 0 0 0 0 0 0 0 0 0 0.25 0"/>
<feBlend mode="normal" in2="BackgroundImageFix" result="effect1_dropShadow_611_151"/>
<feBlend mode="normal" in="SourceGraphic" in2="effect1_dropShadow_611_151" result="shape"/>
</filter>
<clipPath id="clip0_611_151">
<rect x="4" width="600" height="500" rx="70" fill="white"/>
</clipPath>
</defs>
</svg>
