<svg width="608" height="508" viewBox="0 0 608 508" fill="none" xmlns="http://www.w3.org/2000/svg">
<g filter="url(#filter0_d_615_155)">
<g clip-path="url(#clip0_615_155)">
<rect x="4" width="600" height="500" rx="70" fill="white"/>
<path d="M4 280.997L605 127.723V490C605 495.523 600.523 500 595 500H14C8.47715 500 4 495.523 4 490V280.997Z" fill="#06B6D4"/>
<path d="M4 280.998L605 127.724V490C605 495.523 600.523 500 595 500H14C8.47715 500 4 495.523 4 490V280.998Z" fill="#111827"/>
<path d="M56.3 72.6713C55.9 72.6713 55.8 72.4713 56 72.1713L58.2 69.3713C58.4 69.0713 58.9 68.8713 59.4 68.8713H97C97.4 68.8713 97.5 69.1713 97.3 69.4713L95.5 72.1713C95.3 72.4713 94.8 72.7713 94.4 72.7713L56.3 72.6713ZM40.4 82.2713C40 82.2713 39.9 82.0713 40.1 81.7713L42.3 78.8713C42.5 78.5713 43 78.3713 43.5 78.3713H91.6C92 78.3713 92.2 78.6713 92.1 78.9713L91.2 81.5713C91.1 81.9713 90.7 82.1713 90.3 82.1713L40.4 82.2713ZM65.9 91.9713C65.5 91.9713 65.4 91.6713 65.6 91.3713L67.1 88.7713C67.3 88.4713 67.7 88.1713 68.2 88.1713H89.2C89.6 88.1713 89.8 88.4713 89.8 88.8713L89.6 91.3713C89.6 91.7713 89.2 92.0713 88.9 92.0713L65.9 91.9713ZM175.3 70.7713C168.7 72.4713 164.1 73.6713 157.6 75.3713C156 75.7713 155.9 75.8713 154.5 74.2713C152.9 72.4713 151.8 71.3713 149.5 70.2713C142.9 66.9713 136.4 67.9713 130.4 71.8713C123.2 76.4713 119.5 83.3713 119.6 91.8713C119.7 100.271 125.5 107.271 133.8 108.471C141 109.371 147 106.871 151.7 101.471C152.6 100.271 153.5 99.0713 154.6 97.5713H134.2C132 97.5713 131.5 96.1713 132.2 94.3713C133.6 91.0713 136.1 85.5713 137.6 82.8713C137.9 82.2713 138.7 81.1713 140.2 81.1713H178.6C178.4 84.0713 178.4 86.8713 178 89.6713C176.8 97.2713 174 104.271 169.4 110.371C161.8 120.371 151.9 126.571 139.3 128.271C129 129.671 119.4 127.671 110.9 121.271C103.1 115.371 98.7 107.571 97.5 97.8713C96.1 86.3713 99.5 76.0713 106.5 66.9713C114 57.1713 123.9 50.9713 136 48.7713C145.9 46.9713 155.4 48.1713 163.9 53.9713C169.5 57.6713 173.5 62.7713 176.1 68.8713C177 69.8713 176.6 70.3713 175.3 70.7713Z" fill="#56C2F0"/>
<path d="M210.2 128.971C200.6 128.771 191.8 126.071 184.5 119.671C178.3 114.271 174.4 107.471 173.1 99.2713C171.2 87.3713 174.5 76.7713 181.6 67.4713C189.3 57.3713 198.6 52.0713 211.1 49.8713C221.9 47.9713 232 49.0713 241.1 55.2713C249.4 60.9713 254.6 68.6713 256 78.7713C257.8 92.9713 253.7 104.571 243.9 114.471C236.9 121.571 228.4 125.971 218.6 127.971C215.8 128.571 212.9 128.671 210.2 128.971ZM235.3 86.4713C235.2 85.0713 235.2 84.0713 235 82.9713C233.1 72.5713 223.5 66.6713 213.5 68.9713C203.7 71.1713 197.4 77.3713 195.1 87.3713C193.2 95.5713 197.2 103.971 204.8 107.271C210.6 109.771 216.4 109.471 222 106.671C230.2 102.271 234.8 95.4713 235.3 86.4713Z" fill="#56C2F0"/>
</g>
</g>
<defs>
<filter id="filter0_d_615_155" x="0" y="0" width="608" height="508" filterUnits="userSpaceOnUse" color-interpolation-filters="sRGB">
<feFlood flood-opacity="0" result="BackgroundImageFix"/>
<feColorMatrix in="SourceAlpha" type="matrix" values="0 0 0 0 0 0 0 0 0 0 0 0 0 0 0 0 0 0 127 0" result="hardAlpha"/>
<feOffset dy="4"/>
<feGaussianBlur stdDeviation="2"/>
<feColorMatrix type="matrix" values="0 0 0 0 0 0 0 0 0 0 0 0 0 0 0 0 0 0 0.25 0"/>
<feBlend mode="normal" in2="BackgroundImageFix" result="effect1_dropShadow_615_155"/>
<feBlend mode="normal" in="SourceGraphic" in2="effect1_dropShadow_615_155" result="shape"/>
</filter>
<clipPath id="clip0_615_155">
<rect x="4" width="600" height="500" rx="70" fill="white"/>
</clipPath>
</defs>
</svg>
