<svg width="608" height="508" viewBox="0 0 608 508" fill="none" xmlns="http://www.w3.org/2000/svg">
<g filter="url(#filter0_d_611_135)">
<g clip-path="url(#clip0_611_135)">
<rect x="4" width="600" height="500" rx="70" fill="white"/>
<path d="M4 280.997L605 127.723V490C605 495.523 600.523 500 595 500H14C8.47715 500 4 495.523 4 490V280.997Z" fill="#06B6D4"/>
<path d="M4 280.998L605 127.724V490C605 495.523 600.523 500 595 500H14C8.47715 500 4 495.523 4 490V280.998Z" fill="#111827"/>
<path d="M53.6364 106V59.4545H59.2727V80.1818H84.0909V59.4545H89.7273V106H84.0909V85.1818H59.2727V106H53.6364ZM110.557 106.818C108.345 106.818 106.337 106.402 104.534 105.568C102.731 104.72 101.299 103.5 100.239 101.909C99.178 100.303 98.6477 98.3636 98.6477 96.0909C98.6477 94.0909 99.0417 92.4697 99.8295 91.2273C100.617 89.9697 101.67 88.9848 102.989 88.2727C104.307 87.5606 105.761 87.0303 107.352 86.6818C108.958 86.3182 110.572 86.0303 112.193 85.8182C114.314 85.5455 116.034 85.3409 117.352 85.2045C118.686 85.053 119.655 84.803 120.261 84.4545C120.883 84.1061 121.193 83.5 121.193 82.6364V82.4545C121.193 80.2121 120.58 78.4697 119.352 77.2273C118.14 75.9848 116.299 75.3636 113.83 75.3636C111.269 75.3636 109.261 75.9242 107.807 77.0455C106.352 78.1667 105.33 79.3636 104.739 80.6364L99.6477 78.8182C100.557 76.697 101.769 75.0455 103.284 73.8636C104.814 72.6667 106.481 71.8333 108.284 71.3636C110.102 70.8788 111.89 70.6364 113.648 70.6364C114.769 70.6364 116.057 70.7727 117.511 71.0455C118.981 71.303 120.398 71.8409 121.761 72.6591C123.14 73.4773 124.284 74.7121 125.193 76.3636C126.102 78.0152 126.557 80.2273 126.557 83V106H121.193V101.273H120.92C120.557 102.03 119.951 102.841 119.102 103.705C118.254 104.568 117.125 105.303 115.716 105.909C114.307 106.515 112.587 106.818 110.557 106.818ZM111.375 102C113.496 102 115.284 101.583 116.739 100.75C118.208 99.9167 119.314 98.8409 120.057 97.5227C120.814 96.2045 121.193 94.8182 121.193 93.3636V88.4545C120.966 88.7273 120.466 88.9773 119.693 89.2045C118.936 89.4167 118.057 89.6061 117.057 89.7727C116.072 89.9242 115.11 90.0606 114.17 90.1818C113.246 90.2879 112.496 90.3788 111.92 90.4545C110.527 90.6364 109.223 90.9318 108.011 91.3409C106.814 91.7348 105.845 92.3333 105.102 93.1364C104.375 93.9242 104.011 95 104.011 96.3636C104.011 98.2273 104.701 99.6364 106.08 100.591C107.473 101.53 109.239 102 111.375 102ZM136.347 106V71.0909H141.528V76.3636H141.892C142.528 74.6364 143.68 73.2348 145.347 72.1591C147.013 71.0833 148.892 70.5455 150.983 70.5455C151.377 70.5455 151.869 70.553 152.46 70.5682C153.051 70.5833 153.498 70.6061 153.801 70.6364V76.0909C153.619 76.0455 153.203 75.9773 152.551 75.8864C151.915 75.7803 151.241 75.7273 150.528 75.7273C148.831 75.7273 147.316 76.0833 145.983 76.7955C144.665 77.4924 143.619 78.4621 142.847 79.7045C142.089 80.9318 141.71 82.3333 141.71 83.9091V106H136.347ZM172.278 106.727C169.369 106.727 166.801 105.992 164.574 104.523C162.347 103.038 160.604 100.947 159.347 98.25C158.089 95.5379 157.46 92.3333 157.46 88.6364C157.46 84.9697 158.089 81.7879 159.347 79.0909C160.604 76.3939 162.354 74.3106 164.597 72.8409C166.839 71.3712 169.43 70.6364 172.369 70.6364C174.642 70.6364 176.438 71.0152 177.756 71.7727C179.089 72.5152 180.104 73.3636 180.801 74.3182C181.513 75.2576 182.066 76.0303 182.46 76.6364H182.915V59.4545H188.278V106H183.097V100.636H182.46C182.066 101.273 181.506 102.076 180.778 103.045C180.051 104 179.013 104.856 177.665 105.614C176.316 106.356 174.521 106.727 172.278 106.727ZM173.006 101.909C175.157 101.909 176.975 101.348 178.46 100.227C179.945 99.0909 181.074 97.5227 181.847 95.5227C182.619 93.5076 183.006 91.1818 183.006 88.5455C183.006 85.9394 182.627 83.6591 181.869 81.7045C181.112 79.7348 179.991 78.2045 178.506 77.1136C177.021 76.0076 175.188 75.4545 173.006 75.4545C170.733 75.4545 168.839 76.0379 167.324 77.2045C165.824 78.3561 164.695 79.9242 163.938 81.9091C163.195 83.8788 162.824 86.0909 162.824 88.5455C162.824 91.0303 163.203 93.2879 163.96 95.3182C164.733 97.3333 165.869 98.9394 167.369 100.136C168.884 101.318 170.763 101.909 173.006 101.909ZM204.21 85V106H198.847V59.4545H204.21V76.5455H204.665C205.483 74.7424 206.71 73.3106 208.347 72.25C209.998 71.1742 212.195 70.6364 214.938 70.6364C217.316 70.6364 219.4 71.1136 221.188 72.0682C222.975 73.0076 224.362 74.4545 225.347 76.4091C226.347 78.3485 226.847 80.8182 226.847 83.8182V106H221.483V84.1818C221.483 81.4091 220.763 79.2652 219.324 77.75C217.9 76.2197 215.922 75.4545 213.392 75.4545C211.634 75.4545 210.059 75.8258 208.665 76.5682C207.286 77.3106 206.195 78.3939 205.392 79.8182C204.604 81.2424 204.21 82.9697 204.21 85ZM246.932 106.818C244.72 106.818 242.712 106.402 240.909 105.568C239.106 104.72 237.674 103.5 236.614 101.909C235.553 100.303 235.023 98.3636 235.023 96.0909C235.023 94.0909 235.417 92.4697 236.205 91.2273C236.992 89.9697 238.045 88.9848 239.364 88.2727C240.682 87.5606 242.136 87.0303 243.727 86.6818C245.333 86.3182 246.947 86.0303 248.568 85.8182C250.689 85.5455 252.409 85.3409 253.727 85.2045C255.061 85.053 256.03 84.803 256.636 84.4545C257.258 84.1061 257.568 83.5 257.568 82.6364V82.4545C257.568 80.2121 256.955 78.4697 255.727 77.2273C254.515 75.9848 252.674 75.3636 250.205 75.3636C247.644 75.3636 245.636 75.9242 244.182 77.0455C242.727 78.1667 241.705 79.3636 241.114 80.6364L236.023 78.8182C236.932 76.697 238.144 75.0455 239.659 73.8636C241.189 72.6667 242.856 71.8333 244.659 71.3636C246.477 70.8788 248.265 70.6364 250.023 70.6364C251.144 70.6364 252.432 70.7727 253.886 71.0455C255.356 71.303 256.773 71.8409 258.136 72.6591C259.515 73.4773 260.659 74.7121 261.568 76.3636C262.477 78.0152 262.932 80.2273 262.932 83V106H257.568V101.273H257.295C256.932 102.03 256.326 102.841 255.477 103.705C254.629 104.568 253.5 105.303 252.091 105.909C250.682 106.515 248.962 106.818 246.932 106.818ZM247.75 102C249.871 102 251.659 101.583 253.114 100.75C254.583 99.9167 255.689 98.8409 256.432 97.5227C257.189 96.2045 257.568 94.8182 257.568 93.3636V88.4545C257.341 88.7273 256.841 88.9773 256.068 89.2045C255.311 89.4167 254.432 89.6061 253.432 89.7727C252.447 89.9242 251.485 90.0606 250.545 90.1818C249.621 90.2879 248.871 90.3788 248.295 90.4545C246.902 90.6364 245.598 90.9318 244.386 91.3409C243.189 91.7348 242.22 92.3333 241.477 93.1364C240.75 93.9242 240.386 95 240.386 96.3636C240.386 98.2273 241.076 99.6364 242.455 100.591C243.848 101.53 245.614 102 247.75 102ZM287.903 71.0909V75.6364H269.812V71.0909H287.903ZM275.085 62.7273H280.449V96C280.449 97.5152 280.669 98.6515 281.108 99.4091C281.563 100.152 282.138 100.652 282.835 100.909C283.547 101.152 284.297 101.273 285.085 101.273C285.676 101.273 286.161 101.242 286.54 101.182C286.919 101.106 287.222 101.045 287.449 101L288.54 105.818C288.176 105.955 287.669 106.091 287.017 106.227C286.366 106.379 285.54 106.455 284.54 106.455C283.025 106.455 281.54 106.129 280.085 105.477C278.646 104.826 277.449 103.833 276.494 102.5C275.555 101.167 275.085 99.4848 275.085 97.4545V62.7273Z" fill="black"/>
</g>
</g>
<defs>
<filter id="filter0_d_611_135" x="0" y="0" width="608" height="508" filterUnits="userSpaceOnUse" color-interpolation-filters="sRGB">
<feFlood flood-opacity="0" result="BackgroundImageFix"/>
<feColorMatrix in="SourceAlpha" type="matrix" values="0 0 0 0 0 0 0 0 0 0 0 0 0 0 0 0 0 0 127 0" result="hardAlpha"/>
<feOffset dy="4"/>
<feGaussianBlur stdDeviation="2"/>
<feColorMatrix type="matrix" values="0 0 0 0 0 0 0 0 0 0 0 0 0 0 0 0 0 0 0.25 0"/>
<feBlend mode="normal" in2="BackgroundImageFix" result="effect1_dropShadow_611_135"/>
<feBlend mode="normal" in="SourceGraphic" in2="effect1_dropShadow_611_135" result="shape"/>
</filter>
<clipPath id="clip0_611_135">
<rect x="4" width="600" height="500" rx="70" fill="white"/>
</clipPath>
</defs>
</svg>
