<svg width="608" height="508" viewBox="0 0 608 508" fill="none" xmlns="http://www.w3.org/2000/svg">
<g filter="url(#filter0_d_611_139)">
<g clip-path="url(#clip0_611_139)">
<rect x="4" width="600" height="500" rx="70" fill="white"/>
<path d="M4 280.997L605 127.723V490C605 495.523 600.523 500 595 500H14C8.47715 500 4 495.523 4 490V280.997Z" fill="#06B6D4"/>
<path d="M4 280.998L605 127.724V490C605 495.523 600.523 500 595 500H14C8.47715 500 4 495.523 4 490V280.998Z" fill="#111827"/>
<path d="M53.6364 106V59.4545H59.2727V80.1818H84.0909V59.4545H89.7273V106H84.0909V85.1818H59.2727V106H53.6364ZM110.557 106.818C108.345 106.818 106.337 106.402 104.534 105.568C102.731 104.72 101.299 103.5 100.239 101.909C99.178 100.303 98.6477 98.3636 98.6477 96.0909C98.6477 94.0909 99.0417 92.4697 99.8295 91.2273C100.617 89.9697 101.67 88.9848 102.989 88.2727C104.307 87.5606 105.761 87.0303 107.352 86.6818C108.958 86.3182 110.572 86.0303 112.193 85.8182C114.314 85.5455 116.034 85.3409 117.352 85.2045C118.686 85.053 119.655 84.803 120.261 84.4545C120.883 84.1061 121.193 83.5 121.193 82.6364V82.4545C121.193 80.2121 120.58 78.4697 119.352 77.2273C118.14 75.9848 116.299 75.3636 113.83 75.3636C111.269 75.3636 109.261 75.9242 107.807 77.0455C106.352 78.1667 105.33 79.3636 104.739 80.6364L99.6477 78.8182C100.557 76.697 101.769 75.0455 103.284 73.8636C104.814 72.6667 106.481 71.8333 108.284 71.3636C110.102 70.8788 111.89 70.6364 113.648 70.6364C114.769 70.6364 116.057 70.7727 117.511 71.0455C118.981 71.303 120.398 71.8409 121.761 72.6591C123.14 73.4773 124.284 74.7121 125.193 76.3636C126.102 78.0152 126.557 80.2273 126.557 83V106H121.193V101.273H120.92C120.557 102.03 119.951 102.841 119.102 103.705C118.254 104.568 117.125 105.303 115.716 105.909C114.307 106.515 112.587 106.818 110.557 106.818ZM111.375 102C113.496 102 115.284 101.583 116.739 100.75C118.208 99.9167 119.314 98.8409 120.057 97.5227C120.814 96.2045 121.193 94.8182 121.193 93.3636V88.4545C120.966 88.7273 120.466 88.9773 119.693 89.2045C118.936 89.4167 118.057 89.6061 117.057 89.7727C116.072 89.9242 115.11 90.0606 114.17 90.1818C113.246 90.2879 112.496 90.3788 111.92 90.4545C110.527 90.6364 109.223 90.9318 108.011 91.3409C106.814 91.7348 105.845 92.3333 105.102 93.1364C104.375 93.9242 104.011 95 104.011 96.3636C104.011 98.2273 104.701 99.6364 106.08 100.591C107.473 101.53 109.239 102 111.375 102ZM161.074 78.9091L156.256 80.2727C155.953 79.4697 155.506 78.6894 154.915 77.9318C154.339 77.1591 153.551 76.5227 152.551 76.0227C151.551 75.5227 150.271 75.2727 148.71 75.2727C146.574 75.2727 144.794 75.7652 143.369 76.75C141.96 77.7197 141.256 78.9545 141.256 80.4545C141.256 81.7879 141.741 82.8409 142.71 83.6136C143.68 84.3864 145.195 85.0303 147.256 85.5455L152.438 86.8182C155.559 87.5758 157.884 88.7348 159.415 90.2955C160.945 91.8409 161.71 93.8333 161.71 96.2727C161.71 98.2727 161.134 100.061 159.983 101.636C158.847 103.212 157.256 104.455 155.21 105.364C153.165 106.273 150.786 106.727 148.074 106.727C144.513 106.727 141.566 105.955 139.233 104.409C136.9 102.864 135.422 100.606 134.801 97.6364L139.892 96.3636C140.377 98.2424 141.294 99.6515 142.642 100.591C144.006 101.53 145.786 102 147.983 102C150.483 102 152.468 101.47 153.938 100.409C155.422 99.3333 156.165 98.0455 156.165 96.5455C156.165 95.3333 155.741 94.3182 154.892 93.5C154.044 92.6667 152.741 92.0455 150.983 91.6364L145.165 90.2727C141.968 89.5152 139.619 88.3409 138.119 86.75C136.634 85.1439 135.892 83.1364 135.892 80.7273C135.892 78.7576 136.445 77.0152 137.551 75.5C138.672 73.9848 140.195 72.7955 142.119 71.9318C144.059 71.0682 146.256 70.6364 148.71 70.6364C152.165 70.6364 154.877 71.3939 156.847 72.9091C158.831 74.4242 160.241 76.4242 161.074 78.9091ZM174.784 93.2727L174.693 86.6364H175.784L191.057 71.0909H197.693L181.42 87.5455H180.966L174.784 93.2727ZM169.784 106V59.4545H175.148V106H169.784ZM191.966 106L178.33 88.7273L182.148 85L198.784 106H191.966ZM217.795 106.727C214.432 106.727 211.53 105.985 209.091 104.5C206.667 103 204.795 100.909 203.477 98.2273C202.174 95.5303 201.523 92.3939 201.523 88.8182C201.523 85.2424 202.174 82.0909 203.477 79.3636C204.795 76.6212 206.629 74.4848 208.977 72.9545C211.341 71.4091 214.098 70.6364 217.25 70.6364C219.068 70.6364 220.864 70.9394 222.636 71.5455C224.409 72.1515 226.023 73.1364 227.477 74.5C228.932 75.8485 230.091 77.6364 230.955 79.8636C231.818 82.0909 232.25 84.8333 232.25 88.0909V90.3636H205.341V85.7273H226.795C226.795 83.7576 226.402 82 225.614 80.4545C224.841 78.9091 223.735 77.6894 222.295 76.7955C220.871 75.9015 219.189 75.4545 217.25 75.4545C215.114 75.4545 213.265 75.9848 211.705 77.0455C210.159 78.0909 208.97 79.4545 208.136 81.1364C207.303 82.8182 206.886 84.6212 206.886 86.5455V89.6364C206.886 92.2727 207.341 94.5076 208.25 96.3409C209.174 98.1591 210.455 99.5455 212.091 100.5C213.727 101.439 215.629 101.909 217.795 101.909C219.205 101.909 220.477 101.712 221.614 101.318C222.765 100.909 223.758 100.303 224.591 99.5C225.424 98.6818 226.068 97.6667 226.523 96.4545L231.705 97.9091C231.159 99.6667 230.242 101.212 228.955 102.545C227.667 103.864 226.076 104.894 224.182 105.636C222.288 106.364 220.159 106.727 217.795 106.727ZM245.773 59.4545V106H240.409V59.4545H245.773ZM260.96 59.4545V106H255.597V59.4545H260.96Z" fill="black"/>
</g>
</g>
<defs>
<filter id="filter0_d_611_139" x="0" y="0" width="608" height="508" filterUnits="userSpaceOnUse" color-interpolation-filters="sRGB">
<feFlood flood-opacity="0" result="BackgroundImageFix"/>
<feColorMatrix in="SourceAlpha" type="matrix" values="0 0 0 0 0 0 0 0 0 0 0 0 0 0 0 0 0 0 127 0" result="hardAlpha"/>
<feOffset dy="4"/>
<feGaussianBlur stdDeviation="2"/>
<feColorMatrix type="matrix" values="0 0 0 0 0 0 0 0 0 0 0 0 0 0 0 0 0 0 0.25 0"/>
<feBlend mode="normal" in2="BackgroundImageFix" result="effect1_dropShadow_611_139"/>
<feBlend mode="normal" in="SourceGraphic" in2="effect1_dropShadow_611_139" result="shape"/>
</filter>
<clipPath id="clip0_611_139">
<rect x="4" width="600" height="500" rx="70" fill="white"/>
</clipPath>
</defs>
</svg>
