<svg width="608" height="508" viewBox="0 0 608 508" fill="none" xmlns="http://www.w3.org/2000/svg">
<g filter="url(#filter0_d_611_123)">
<g clip-path="url(#clip0_611_123)">
<rect x="4" width="600" height="500" rx="70" fill="white"/>
<path d="M4 280.997L605 127.723V490C605 495.523 600.523 500 595 500H14C8.47715 500 4 495.523 4 490V280.997Z" fill="#06B6D4"/>
<path d="M4 280.998L605 127.724V490C605 495.523 600.523 500 595 500H14C8.47715 500 4 495.523 4 490V280.998Z" fill="#111827"/>
<path d="M59.2727 59.4545V106H53.6364V59.4545H59.2727ZM70.5739 106V59.4545H86.3011C89.9527 59.4545 92.9375 60.1136 95.2557 61.4318C97.589 62.7348 99.3163 64.5 100.438 66.7273C101.559 68.9545 102.119 71.4394 102.119 74.1818C102.119 76.9242 101.559 79.4167 100.438 81.6591C99.3314 83.9015 97.6193 85.6894 95.3011 87.0227C92.983 88.3409 90.0133 89 86.392 89H75.1193V84H86.2102C88.7102 84 90.7178 83.5682 92.233 82.7045C93.7481 81.8409 94.8466 80.6742 95.5284 79.2045C96.2254 77.7197 96.5739 76.0455 96.5739 74.1818C96.5739 72.3182 96.2254 70.6515 95.5284 69.1818C94.8466 67.7121 93.7405 66.5606 92.2102 65.7273C90.6799 64.8788 88.6496 64.4545 86.1193 64.4545H76.2102V106H70.5739ZM111.199 106V59.4545H139.108V64.4545H116.835V80.1818H137.017V85.1818H116.835V106H111.199ZM174.216 71.0909C173.943 68.7879 172.837 67 170.898 65.7273C168.958 64.4545 166.58 63.8182 163.761 63.8182C161.701 63.8182 159.898 64.1515 158.352 64.8182C156.822 65.4848 155.625 66.4015 154.761 67.5682C153.913 68.7348 153.489 70.0606 153.489 71.5455C153.489 72.7879 153.784 73.8561 154.375 74.75C154.981 75.6288 155.754 76.3636 156.693 76.9545C157.633 77.5303 158.617 78.0076 159.648 78.3864C160.678 78.75 161.625 79.0455 162.489 79.2727L167.216 80.5455C168.428 80.8636 169.777 81.303 171.261 81.8636C172.761 82.4242 174.193 83.1894 175.557 84.1591C176.936 85.1136 178.072 86.3409 178.966 87.8409C179.86 89.3409 180.307 91.1818 180.307 93.3636C180.307 95.8788 179.648 98.1515 178.33 100.182C177.027 102.212 175.117 103.826 172.602 105.023C170.102 106.22 167.064 106.818 163.489 106.818C160.155 106.818 157.269 106.28 154.83 105.205C152.405 104.129 150.496 102.629 149.102 100.705C147.723 98.7803 146.943 96.5455 146.761 94H152.58C152.731 95.7576 153.322 97.2121 154.352 98.3636C155.398 99.5 156.716 100.348 158.307 100.909C159.913 101.455 161.64 101.727 163.489 101.727C165.64 101.727 167.572 101.379 169.284 100.682C170.996 99.9697 172.352 98.9848 173.352 97.7273C174.352 96.4545 174.852 94.9697 174.852 93.2727C174.852 91.7273 174.42 90.4697 173.557 89.5C172.693 88.5303 171.557 87.7424 170.148 87.1364C168.739 86.5303 167.216 86 165.58 85.5455L159.852 83.9091C156.216 82.8636 153.337 81.3712 151.216 79.4318C149.095 77.4924 148.034 74.9545 148.034 71.8182C148.034 69.2121 148.739 66.9394 150.148 65C151.572 63.0455 153.481 61.5303 155.875 60.4545C158.284 59.3636 160.973 58.8182 163.943 58.8182C166.943 58.8182 169.61 59.3561 171.943 60.4318C174.277 61.4924 176.125 62.947 177.489 64.7955C178.867 66.6439 179.595 68.7424 179.67 71.0909H174.216Z" fill="black"/>
</g>
</g>
<defs>
<filter id="filter0_d_611_123" x="0" y="0" width="608" height="508" filterUnits="userSpaceOnUse" color-interpolation-filters="sRGB">
<feFlood flood-opacity="0" result="BackgroundImageFix"/>
<feColorMatrix in="SourceAlpha" type="matrix" values="0 0 0 0 0 0 0 0 0 0 0 0 0 0 0 0 0 0 127 0" result="hardAlpha"/>
<feOffset dy="4"/>
<feGaussianBlur stdDeviation="2"/>
<feColorMatrix type="matrix" values="0 0 0 0 0 0 0 0 0 0 0 0 0 0 0 0 0 0 0.25 0"/>
<feBlend mode="normal" in2="BackgroundImageFix" result="effect1_dropShadow_611_123"/>
<feBlend mode="normal" in="SourceGraphic" in2="effect1_dropShadow_611_123" result="shape"/>
</filter>
<clipPath id="clip0_611_123">
<rect x="4" width="600" height="500" rx="70" fill="white"/>
</clipPath>
</defs>
</svg>
