<svg width="608" height="508" viewBox="0 0 608 508" fill="none" xmlns="http://www.w3.org/2000/svg">
<g filter="url(#filter0_d_513_160)">
<g clip-path="url(#clip0_513_160)">
<rect x="4" width="600" height="500" rx="70" fill="white"/>
<path d="M4 280.997L605 127.723V490C605 495.523 600.523 500 595 500H14C8.47715 500 4 495.523 4 490V280.997Z" fill="#06B6D4"/>
<path d="M4 280.998L605 127.724V490C605 495.523 600.523 500 595 500H14C8.47715 500 4 495.523 4 490V280.998Z" fill="#111827"/>
<path d="M77.3679 153.129C77.3679 157.984 76.8217 161.906 75.7292 164.892C74.6368 167.88 73.0837 170.198 71.0674 171.849C69.0536 173.5 66.6371 174.606 63.8203 175.164C61.0036 175.721 57.8697 176 54.4236 176C49.7592 176 46.1898 175.273 43.7154 173.815C41.2385 172.358 40 170.611 40 168.569C40 166.87 40.6897 165.438 42.0742 164.272C43.4586 163.107 45.3163 162.525 47.6473 162.525C49.3967 162.525 50.7938 162.999 51.8359 163.945C52.8805 164.892 53.744 165.828 54.4236 166.749C55.1989 167.769 55.8559 168.448 56.3895 168.788C56.9232 169.128 57.409 169.299 57.847 169.299C58.7683 169.299 59.4731 168.753 59.9589 167.661C60.4448 166.568 60.6864 164.444 60.6864 161.287V101.408L77.3679 96.8188V153.129ZM101.125 98.4198V136.956C101.125 138.025 101.332 139.032 101.745 139.979C102.157 140.925 102.729 141.741 103.456 142.421C104.186 143.1 105.035 143.646 106.006 144.059C106.978 144.472 108.022 144.678 109.14 144.678C110.401 144.678 111.836 143.971 113.583 142.748C116.349 140.81 118.026 139.478 118.026 137.902C118.026 137.525 118.026 98.4198 118.026 98.4198H134.634V153.129H118.026V148.029C115.841 149.874 113.51 151.354 111.033 152.472C108.556 153.589 106.152 154.148 103.821 154.148C101.103 154.148 98.5754 153.698 96.2445 152.799C93.9135 151.9 91.8746 150.674 90.1277 149.121C88.3782 147.568 87.0063 145.746 86.0095 143.656C85.0152 141.57 84.5168 139.334 84.5168 136.956V98.4198H101.125ZM157.926 153.129H141.391V76.4219L157.926 71.833V153.129ZM164.833 101.408L181.442 96.8188V153.129H164.833V101.408ZM216.144 124.863C214.541 125.545 212.925 126.333 211.298 127.232C209.672 128.13 208.19 129.115 206.856 130.182C205.519 131.249 204.439 132.392 203.613 133.605C202.788 134.819 202.375 136.082 202.375 137.394C202.375 138.413 202.508 139.397 202.775 140.344C203.042 141.29 203.42 142.103 203.905 142.783C204.391 143.463 204.925 144.009 205.509 144.422C206.09 144.835 206.722 145.041 207.402 145.041C208.761 145.041 210.133 144.628 211.517 143.802C212.902 142.977 214.442 141.935 216.144 140.671V124.863ZM232.823 153.129H216.144V148.756C215.22 149.534 214.322 150.252 213.448 150.906C212.575 151.561 211.59 152.132 210.498 152.618C209.406 153.104 208.18 153.479 206.818 153.748C205.459 154.015 203.855 154.148 202.012 154.148C199.485 154.148 197.215 153.783 195.201 153.056C193.185 152.326 191.473 151.331 190.066 150.068C188.656 148.807 187.576 147.311 186.824 145.587C186.071 143.865 185.693 141.983 185.693 139.944C185.693 137.854 186.094 135.961 186.897 134.26C187.697 132.561 188.79 131.033 190.174 129.671C191.559 128.312 193.172 127.098 195.017 126.028C196.862 124.961 198.843 123.977 200.955 123.078C203.067 122.18 205.265 121.357 207.548 120.604C209.828 119.851 212.089 119.134 214.322 118.454L216.144 118.016V112.627C216.144 109.13 215.475 106.654 214.14 105.196C212.804 103.739 211.019 103.011 208.786 103.011C206.163 103.011 204.341 103.643 203.321 104.904C202.302 106.168 201.791 107.696 201.791 109.493C201.791 110.512 201.683 111.509 201.464 112.481C201.247 113.453 200.87 114.301 200.336 115.031C199.802 115.758 199.037 116.342 198.04 116.778C197.046 117.216 195.795 117.435 194.29 117.435C191.959 117.435 190.066 116.765 188.608 115.431C187.151 114.094 186.423 112.408 186.423 110.366C186.423 108.473 187.065 106.714 188.352 105.088C189.64 103.459 191.375 102.062 193.562 100.899C195.747 99.7312 198.272 98.8099 201.137 98.1303C204.001 97.4506 207.037 97.1108 210.241 97.1108C214.176 97.1108 217.564 97.4632 220.406 98.1655C223.245 98.8703 225.589 99.8772 227.434 101.189C229.279 102.5 230.638 104.078 231.512 105.924C232.388 107.769 232.823 109.835 232.823 112.116V153.129Z" fill="black"/>
<path d="M185.243 82.7451C185.243 88.9752 180.193 94.0222 173.966 94.0222C167.735 94.0222 162.688 88.9752 162.688 82.7451C162.688 76.5175 167.735 71.468 173.966 71.468C180.193 71.468 185.243 76.5175 185.243 82.7451Z" fill="#CB3C33"/>
<path d="M80.643 82.7451C80.643 88.9752 75.5935 94.0222 69.366 94.0222C63.1384 94.0222 58.0889 88.9752 58.0889 82.7451C58.0889 76.5175 63.1384 71.468 69.366 71.468C75.5935 71.468 80.643 76.5175 80.643 82.7451Z" fill="#4063D8"/>
<path d="M212.338 82.7451C212.338 88.9752 207.289 94.0222 201.061 94.0222C194.834 94.0222 189.784 88.9752 189.784 82.7451C189.784 76.5175 194.834 71.468 201.061 71.468C207.289 71.468 212.338 76.5175 212.338 82.7451Z" fill="#9558B2"/>
<path d="M198.793 59.2771C198.793 65.5047 193.744 70.5542 187.516 70.5542C181.286 70.5542 176.239 65.5047 176.239 59.2771C176.239 53.0495 181.286 48 187.516 48C193.744 48 198.793 53.0495 198.793 59.2771Z" fill="#389826"/>
</g>
</g>
<defs>
<filter id="filter0_d_513_160" x="0" y="0" width="608" height="508" filterUnits="userSpaceOnUse" color-interpolation-filters="sRGB">
<feFlood flood-opacity="0" result="BackgroundImageFix"/>
<feColorMatrix in="SourceAlpha" type="matrix" values="0 0 0 0 0 0 0 0 0 0 0 0 0 0 0 0 0 0 127 0" result="hardAlpha"/>
<feOffset dy="4"/>
<feGaussianBlur stdDeviation="2"/>
<feColorMatrix type="matrix" values="0 0 0 0 0 0 0 0 0 0 0 0 0 0 0 0 0 0 0.25 0"/>
<feBlend mode="normal" in2="BackgroundImageFix" result="effect1_dropShadow_513_160"/>
<feBlend mode="normal" in="SourceGraphic" in2="effect1_dropShadow_513_160" result="shape"/>
</filter>
<clipPath id="clip0_513_160">
<rect x="4" width="600" height="500" rx="70" fill="white"/>
</clipPath>
</defs>
</svg>
