<svg width="608" height="508" viewBox="0 0 608 508" fill="none" xmlns="http://www.w3.org/2000/svg">
<g filter="url(#filter0_d_513_160)">
<g clip-path="url(#clip0_513_160)">
<rect x="4" width="600" height="500" rx="70" fill="white"/>
<path d="M4 280.997L605 127.724V490C605 495.523 600.523 500 595 500H14C8.47715 500 4 495.523 4 490V280.997Z" fill="#06B6D4"/>
<path d="M4 280.997L605 127.724V490C605 495.523 600.523 500 595 500H14C8.47715 500 4 495.523 4 490V280.997Z" fill="#111827"/>
<path d="M61.3679 125.129C61.3679 129.984 60.8217 133.906 59.7292 136.892C58.6368 139.879 57.0837 142.198 55.0674 143.849C53.0536 145.5 50.6371 146.605 47.8203 147.164C45.0036 147.721 41.8697 148 38.4236 148C33.7592 148 30.1898 147.272 27.7154 145.815C25.2385 144.358 24 142.611 24 140.569C24 138.87 24.6897 137.438 26.0742 136.272C27.4586 135.107 29.3163 134.525 31.6473 134.525C33.3967 134.525 34.7938 134.999 35.8359 135.945C36.8805 136.892 37.744 137.828 38.4236 138.749C39.1989 139.769 39.8559 140.448 40.3895 140.788C40.9232 141.128 41.409 141.299 41.847 141.299C42.7683 141.299 43.4731 140.753 43.9589 139.66C44.4448 138.568 44.6864 136.443 44.6864 133.287V73.4076L61.3679 68.8187V125.129ZM85.1253 70.4196V108.956C85.1253 110.025 85.3318 111.032 85.7446 111.979C86.1574 112.925 86.7288 113.741 87.4563 114.42C88.1863 115.1 89.0346 115.646 90.0062 116.059C90.9779 116.472 92.0225 116.678 93.1401 116.678C94.4013 116.678 95.8361 115.971 97.583 114.748C100.349 112.809 102.026 111.478 102.026 109.902C102.026 109.524 102.026 70.4196 102.026 70.4196H118.634V125.129H102.026V120.029C99.8409 121.874 97.51 123.354 95.0331 124.472C92.5561 125.589 90.1522 126.148 87.8213 126.148C85.1027 126.148 82.5754 125.698 80.2445 124.799C77.9135 123.9 75.8746 122.674 74.1277 121.121C72.3782 119.568 71.0063 117.746 70.0095 115.656C69.0152 113.57 68.5168 111.334 68.5168 108.956V70.4196H85.1253ZM141.926 125.129H125.391V48.4218L141.926 43.8329V125.129ZM148.833 73.4076L165.442 68.8187V125.129H148.833V73.4076ZM200.144 96.8629C198.541 97.5451 196.925 98.3329 195.298 99.2316C193.672 100.13 192.19 101.114 190.856 102.182C189.519 103.249 188.439 104.392 187.613 105.605C186.788 106.818 186.375 108.082 186.375 109.394C186.375 110.413 186.508 111.397 186.775 112.344C187.042 113.29 187.42 114.103 187.905 114.783C188.391 115.463 188.925 116.009 189.509 116.422C190.09 116.834 190.722 117.041 191.402 117.041C192.761 117.041 194.133 116.628 195.517 115.802C196.902 114.977 198.442 113.935 200.144 112.671V96.8629ZM216.823 125.129H200.144V120.756C199.22 121.534 198.322 122.251 197.448 122.906C196.575 123.56 195.59 124.132 194.498 124.618C193.406 125.103 192.18 125.479 190.818 125.748C189.459 126.015 187.855 126.148 186.012 126.148C183.485 126.148 181.215 125.783 179.201 125.056C177.185 124.326 175.473 123.331 174.066 122.068C172.656 120.807 171.576 119.311 170.824 117.587C170.071 115.865 169.693 113.982 169.693 111.943C169.693 109.854 170.094 107.961 170.897 106.26C171.697 104.561 172.79 103.033 174.174 101.671C175.559 100.311 177.172 99.0982 179.017 98.0284C180.862 96.9611 182.843 95.9768 184.955 95.0782C187.067 94.1795 189.265 93.3564 191.548 92.6038C193.828 91.8511 196.089 91.1337 198.322 90.4541L200.144 90.0161V84.6267C200.144 81.1303 199.475 78.6534 198.14 77.196C196.804 75.7385 195.019 75.011 192.786 75.011C190.163 75.011 188.341 75.6428 187.321 76.904C186.302 78.1676 185.791 79.6955 185.791 81.4928C185.791 82.5123 185.683 83.5091 185.464 84.4807C185.247 85.4524 184.87 86.3007 184.336 87.0307C183.802 87.7582 183.037 88.3421 182.04 88.7776C181.046 89.2156 179.795 89.4346 178.29 89.4346C175.959 89.4346 174.066 88.765 172.608 87.4309C171.151 86.0943 170.423 84.4078 170.423 82.3663C170.423 80.4734 171.065 78.7138 172.352 77.0877C173.64 75.4591 175.375 74.062 177.562 72.8991C179.747 71.7311 182.272 70.8098 185.137 70.1302C188.001 69.4505 191.037 69.1107 194.241 69.1107C198.176 69.1107 201.564 69.4631 204.406 70.1654C207.245 70.8702 209.589 71.8771 211.434 73.1886C213.279 74.5 214.638 76.0783 215.512 77.9234C216.388 79.7685 216.823 81.8352 216.823 84.1158V125.129Z" fill="black"/>
<path d="M169.243 54.745C169.243 60.9751 164.193 66.0221 157.966 66.0221C151.735 66.0221 146.688 60.9751 146.688 54.745C146.688 48.5174 151.735 43.4679 157.966 43.4679C164.193 43.4679 169.243 48.5174 169.243 54.745Z" fill="#CB3C33"/>
<path d="M64.643 54.745C64.643 60.9751 59.5935 66.0221 53.366 66.0221C47.1384 66.0221 42.0889 60.9751 42.0889 54.745C42.0889 48.5174 47.1384 43.4679 53.366 43.4679C59.5935 43.4679 64.643 48.5174 64.643 54.745Z" fill="#4063D8"/>
<path d="M196.338 54.745C196.338 60.9751 191.288 66.0221 185.061 66.0221C178.833 66.0221 173.784 60.9751 173.784 54.745C173.784 48.5174 178.833 43.4679 185.061 43.4679C191.288 43.4679 196.338 48.5174 196.338 54.745Z" fill="#9558B2"/>
<path d="M182.793 31.2771C182.793 37.5047 177.743 42.5542 171.516 42.5542C165.286 42.5542 160.239 37.5047 160.239 31.2771C160.239 25.0495 165.286 20 171.516 20C177.743 20 182.793 25.0495 182.793 31.2771Z" fill="#389826"/>
</g>
</g>
<defs>
<filter id="filter0_d_513_160" x="0" y="0" width="608" height="508" filterUnits="userSpaceOnUse" color-interpolation-filters="sRGB">
<feFlood flood-opacity="0" result="BackgroundImageFix"/>
<feColorMatrix in="SourceAlpha" type="matrix" values="0 0 0 0 0 0 0 0 0 0 0 0 0 0 0 0 0 0 127 0" result="hardAlpha"/>
<feOffset dy="4"/>
<feGaussianBlur stdDeviation="2"/>
<feColorMatrix type="matrix" values="0 0 0 0 0 0 0 0 0 0 0 0 0 0 0 0 0 0 0.25 0"/>
<feBlend mode="normal" in2="BackgroundImageFix" result="effect1_dropShadow_513_160"/>
<feBlend mode="normal" in="SourceGraphic" in2="effect1_dropShadow_513_160" result="shape"/>
</filter>
<clipPath id="clip0_513_160">
<rect x="4" width="600" height="500" rx="70" fill="white"/>
</clipPath>
</defs>
</svg>
