<svg width="608" height="508" viewBox="0 0 608 508" fill="none" xmlns="http://www.w3.org/2000/svg">
<g filter="url(#filter0_d_611_147)">
<g clip-path="url(#clip0_611_147)">
<rect x="4" width="600" height="500" rx="70" fill="white"/>
<path d="M4 280.997L605 127.723V490C605 495.523 600.523 500 595 500H14C8.47715 500 4 495.523 4 490V280.997Z" fill="#06B6D4"/>
<path d="M4 280.998L605 127.724V490C605 495.523 600.523 500 595 500H14C8.47715 500 4 495.523 4 490V280.998Z" fill="#111827"/>
<path d="M52.9091 71.0909H58.2727V108.545C58.2727 110.697 57.9015 112.561 57.1591 114.136C56.4318 115.712 55.3258 116.932 53.8409 117.795C52.3712 118.659 50.5152 119.091 48.2727 119.091C48.0909 119.091 47.9091 119.091 47.7273 119.091C47.5455 119.091 47.3636 119.091 47.1818 119.091V114.091C47.3636 114.091 47.5303 114.091 47.6818 114.091C47.8333 114.091 48 114.091 48.1818 114.091C49.8182 114.091 51.0152 113.606 51.7727 112.636C52.5303 111.682 52.9091 110.318 52.9091 108.545V71.0909ZM55.5455 65.2727C54.5 65.2727 53.5985 64.9167 52.8409 64.2045C52.0985 63.4924 51.7273 62.6364 51.7273 61.6364C51.7273 60.6364 52.0985 59.7803 52.8409 59.0682C53.5985 58.3561 54.5 58 55.5455 58C56.5909 58 57.4848 58.3561 58.2273 59.0682C58.9848 59.7803 59.3636 60.6364 59.3636 61.6364C59.3636 62.6364 58.9848 63.4924 58.2273 64.2045C57.4848 64.9167 56.5909 65.2727 55.5455 65.2727ZM90.0966 91.7273V71.0909H95.4602V106H90.0966V100.091H89.733C88.9148 101.864 87.642 103.371 85.9148 104.614C84.1875 105.841 82.0057 106.455 79.3693 106.455C77.1875 106.455 75.2481 105.977 73.5511 105.023C71.8542 104.053 70.5208 102.598 69.5511 100.659C68.5814 98.7045 68.0966 96.2424 68.0966 93.2727V71.0909H73.4602V92.9091C73.4602 95.4545 74.1723 97.4848 75.5966 99C77.036 100.515 78.8693 101.273 81.0966 101.273C82.4299 101.273 83.786 100.932 85.1648 100.25C86.5587 99.5682 87.7254 98.5227 88.6648 97.1136C89.6193 95.7045 90.0966 93.9091 90.0966 91.7273ZM110.648 59.4545V106H105.284V59.4545H110.648ZM120.472 106V71.0909H125.835V106H120.472ZM123.199 65.2727C122.153 65.2727 121.252 64.9167 120.494 64.2045C119.752 63.4924 119.381 62.6364 119.381 61.6364C119.381 60.6364 119.752 59.7803 120.494 59.0682C121.252 58.3561 122.153 58 123.199 58C124.244 58 125.138 58.3561 125.881 59.0682C126.638 59.7803 127.017 60.6364 127.017 61.6364C127.017 62.6364 126.638 63.4924 125.881 64.2045C125.138 64.9167 124.244 65.2727 123.199 65.2727ZM145.932 106.818C143.72 106.818 141.712 106.402 139.909 105.568C138.106 104.72 136.674 103.5 135.614 101.909C134.553 100.303 134.023 98.3636 134.023 96.0909C134.023 94.0909 134.417 92.4697 135.205 91.2273C135.992 89.9697 137.045 88.9848 138.364 88.2727C139.682 87.5606 141.136 87.0303 142.727 86.6818C144.333 86.3182 145.947 86.0303 147.568 85.8182C149.689 85.5455 151.409 85.3409 152.727 85.2045C154.061 85.053 155.03 84.803 155.636 84.4545C156.258 84.1061 156.568 83.5 156.568 82.6364V82.4545C156.568 80.2121 155.955 78.4697 154.727 77.2273C153.515 75.9848 151.674 75.3636 149.205 75.3636C146.644 75.3636 144.636 75.9242 143.182 77.0455C141.727 78.1667 140.705 79.3636 140.114 80.6364L135.023 78.8182C135.932 76.697 137.144 75.0455 138.659 73.8636C140.189 72.6667 141.856 71.8333 143.659 71.3636C145.477 70.8788 147.265 70.6364 149.023 70.6364C150.144 70.6364 151.432 70.7727 152.886 71.0455C154.356 71.303 155.773 71.8409 157.136 72.6591C158.515 73.4773 159.659 74.7121 160.568 76.3636C161.477 78.0152 161.932 80.2273 161.932 83V106H156.568V101.273H156.295C155.932 102.03 155.326 102.841 154.477 103.705C153.629 104.568 152.5 105.303 151.091 105.909C149.682 106.515 147.962 106.818 145.932 106.818ZM146.75 102C148.871 102 150.659 101.583 152.114 100.75C153.583 99.9167 154.689 98.8409 155.432 97.5227C156.189 96.2045 156.568 94.8182 156.568 93.3636V88.4545C156.341 88.7273 155.841 88.9773 155.068 89.2045C154.311 89.4167 153.432 89.6061 152.432 89.7727C151.447 89.9242 150.485 90.0606 149.545 90.1818C148.621 90.2879 147.871 90.3788 147.295 90.4545C145.902 90.6364 144.598 90.9318 143.386 91.3409C142.189 91.7348 141.22 92.3333 140.477 93.1364C139.75 93.9242 139.386 95 139.386 96.3636C139.386 98.2273 140.076 99.6364 141.455 100.591C142.848 101.53 144.614 102 146.75 102Z" fill="black"/>
</g>
</g>
<defs>
<filter id="filter0_d_611_147" x="0" y="0" width="608" height="508" filterUnits="userSpaceOnUse" color-interpolation-filters="sRGB">
<feFlood flood-opacity="0" result="BackgroundImageFix"/>
<feColorMatrix in="SourceAlpha" type="matrix" values="0 0 0 0 0 0 0 0 0 0 0 0 0 0 0 0 0 0 127 0" result="hardAlpha"/>
<feOffset dy="4"/>
<feGaussianBlur stdDeviation="2"/>
<feColorMatrix type="matrix" values="0 0 0 0 0 0 0 0 0 0 0 0 0 0 0 0 0 0 0.25 0"/>
<feBlend mode="normal" in2="BackgroundImageFix" result="effect1_dropShadow_611_147"/>
<feBlend mode="normal" in="SourceGraphic" in2="effect1_dropShadow_611_147" result="shape"/>
</filter>
<clipPath id="clip0_611_147">
<rect x="4" width="600" height="500" rx="70" fill="white"/>
</clipPath>
</defs>
</svg>
