<svg width="608" height="508" viewBox="0 0 608 508" fill="none" xmlns="http://www.w3.org/2000/svg">
<g filter="url(#filter0_d_611_111)">
<g clip-path="url(#clip0_611_111)">
<rect x="4" width="600" height="500" rx="70" fill="white"/>
<path d="M4 280.997L605 127.723V490C605 495.523 600.523 500 595 500H14C8.47715 500 4 495.523 4 490V280.997Z" fill="#06B6D4"/>
<path d="M4 280.998L605 127.724V490C605 495.523 600.523 500 595 500H14C8.47715 500 4 495.523 4 490V280.998Z" fill="#111827"/>
<path d="M53.6364 106V59.4545H59.2727V82.5455H59.8182L80.7273 59.4545H88.0909L68.5455 80.4545L88.0909 106H81.2727L65.0909 84.3636L59.2727 90.9091V106H53.6364ZM114.472 91.7273V71.0909H119.835V106H114.472V100.091H114.108C113.29 101.864 112.017 103.371 110.29 104.614C108.563 105.841 106.381 106.455 103.744 106.455C101.562 106.455 99.6231 105.977 97.9261 105.023C96.2292 104.053 94.8958 102.598 93.9261 100.659C92.9564 98.7045 92.4716 96.2424 92.4716 93.2727V71.0909H97.8352V92.9091C97.8352 95.4545 98.5473 97.4848 99.9716 99C101.411 100.515 103.244 101.273 105.472 101.273C106.805 101.273 108.161 100.932 109.54 100.25C110.934 99.5682 112.1 98.5227 113.04 97.1136C113.994 95.7045 114.472 93.9091 114.472 91.7273ZM130.386 106V59.4545H135.75V76.6364H136.205C136.598 76.0303 137.144 75.2576 137.841 74.3182C138.553 73.3636 139.568 72.5152 140.886 71.7727C142.22 71.0152 144.023 70.6364 146.295 70.6364C149.235 70.6364 151.826 71.3712 154.068 72.8409C156.311 74.3106 158.061 76.3939 159.318 79.0909C160.576 81.7879 161.205 84.9697 161.205 88.6364C161.205 92.3333 160.576 95.5379 159.318 98.25C158.061 100.947 156.318 103.038 154.091 104.523C151.864 105.992 149.295 106.727 146.386 106.727C144.144 106.727 142.348 106.356 141 105.614C139.652 104.856 138.614 104 137.886 103.045C137.159 102.076 136.598 101.273 136.205 100.636H135.568V106H130.386ZM135.659 88.5455C135.659 91.1818 136.045 93.5076 136.818 95.5227C137.591 97.5227 138.72 99.0909 140.205 100.227C141.689 101.348 143.508 101.909 145.659 101.909C147.902 101.909 149.773 101.318 151.273 100.136C152.788 98.9394 153.924 97.3333 154.682 95.3182C155.455 93.2879 155.841 91.0303 155.841 88.5455C155.841 86.0909 155.462 83.8788 154.705 81.9091C153.962 79.9242 152.833 78.3561 151.318 77.2045C149.818 76.0379 147.932 75.4545 145.659 75.4545C143.477 75.4545 141.644 76.0076 140.159 77.1136C138.674 78.2045 137.553 79.7348 136.795 81.7045C136.038 83.6591 135.659 85.9394 135.659 88.5455ZM184.045 106.727C180.682 106.727 177.78 105.985 175.341 104.5C172.917 103 171.045 100.909 169.727 98.2273C168.424 95.5303 167.773 92.3939 167.773 88.8182C167.773 85.2424 168.424 82.0909 169.727 79.3636C171.045 76.6212 172.879 74.4848 175.227 72.9545C177.591 71.4091 180.348 70.6364 183.5 70.6364C185.318 70.6364 187.114 70.9394 188.886 71.5455C190.659 72.1515 192.273 73.1364 193.727 74.5C195.182 75.8485 196.341 77.6364 197.205 79.8636C198.068 82.0909 198.5 84.8333 198.5 88.0909V90.3636H171.591V85.7273H193.045C193.045 83.7576 192.652 82 191.864 80.4545C191.091 78.9091 189.985 77.6894 188.545 76.7955C187.121 75.9015 185.439 75.4545 183.5 75.4545C181.364 75.4545 179.515 75.9848 177.955 77.0455C176.409 78.0909 175.22 79.4545 174.386 81.1364C173.553 82.8182 173.136 84.6212 173.136 86.5455V89.6364C173.136 92.2727 173.591 94.5076 174.5 96.3409C175.424 98.1591 176.705 99.5455 178.341 100.5C179.977 101.439 181.879 101.909 184.045 101.909C185.455 101.909 186.727 101.712 187.864 101.318C189.015 100.909 190.008 100.303 190.841 99.5C191.674 98.6818 192.318 97.6667 192.773 96.4545L197.955 97.9091C197.409 99.6667 196.492 101.212 195.205 102.545C193.917 103.864 192.326 104.894 190.432 105.636C188.538 106.364 186.409 106.727 184.045 106.727ZM206.659 106V71.0909H211.841V76.3636H212.205C212.841 74.6364 213.992 73.2348 215.659 72.1591C217.326 71.0833 219.205 70.5455 221.295 70.5455C221.689 70.5455 222.182 70.553 222.773 70.5682C223.364 70.5833 223.811 70.6061 224.114 70.6364V76.0909C223.932 76.0455 223.515 75.9773 222.864 75.8864C222.227 75.7803 221.553 75.7273 220.841 75.7273C219.144 75.7273 217.629 76.0833 216.295 76.7955C214.977 77.4924 213.932 78.4621 213.159 79.7045C212.402 80.9318 212.023 82.3333 212.023 83.9091V106H206.659ZM235.835 85V106H230.472V71.0909H235.653V76.5455H236.108C236.926 74.7727 238.169 73.3485 239.835 72.2727C241.502 71.1818 243.653 70.6364 246.29 70.6364C248.653 70.6364 250.722 71.1212 252.494 72.0909C254.267 73.0455 255.646 74.5 256.631 76.4545C257.616 78.3939 258.108 80.8485 258.108 83.8182V106H252.744V84.1818C252.744 81.4394 252.032 79.303 250.608 77.7727C249.184 76.2273 247.229 75.4545 244.744 75.4545C243.032 75.4545 241.502 75.8258 240.153 76.5682C238.82 77.3106 237.767 78.3939 236.994 79.8182C236.222 81.2424 235.835 82.9697 235.835 85ZM282.545 106.727C279.182 106.727 276.28 105.985 273.841 104.5C271.417 103 269.545 100.909 268.227 98.2273C266.924 95.5303 266.273 92.3939 266.273 88.8182C266.273 85.2424 266.924 82.0909 268.227 79.3636C269.545 76.6212 271.379 74.4848 273.727 72.9545C276.091 71.4091 278.848 70.6364 282 70.6364C283.818 70.6364 285.614 70.9394 287.386 71.5455C289.159 72.1515 290.773 73.1364 292.227 74.5C293.682 75.8485 294.841 77.6364 295.705 79.8636C296.568 82.0909 297 84.8333 297 88.0909V90.3636H270.091V85.7273H291.545C291.545 83.7576 291.152 82 290.364 80.4545C289.591 78.9091 288.485 77.6894 287.045 76.7955C285.621 75.9015 283.939 75.4545 282 75.4545C279.864 75.4545 278.015 75.9848 276.455 77.0455C274.909 78.0909 273.72 79.4545 272.886 81.1364C272.053 82.8182 271.636 84.6212 271.636 86.5455V89.6364C271.636 92.2727 272.091 94.5076 273 96.3409C273.924 98.1591 275.205 99.5455 276.841 100.5C278.477 101.439 280.379 101.909 282.545 101.909C283.955 101.909 285.227 101.712 286.364 101.318C287.515 100.909 288.508 100.303 289.341 99.5C290.174 98.6818 290.818 97.6667 291.273 96.4545L296.455 97.9091C295.909 99.6667 294.992 101.212 293.705 102.545C292.417 103.864 290.826 104.894 288.932 105.636C287.038 106.364 284.909 106.727 282.545 106.727ZM320.341 71.0909V75.6364H302.25V71.0909H320.341ZM307.523 62.7273H312.886V96C312.886 97.5152 313.106 98.6515 313.545 99.4091C314 100.152 314.576 100.652 315.273 100.909C315.985 101.152 316.735 101.273 317.523 101.273C318.114 101.273 318.598 101.242 318.977 101.182C319.356 101.106 319.659 101.045 319.886 101L320.977 105.818C320.614 105.955 320.106 106.091 319.455 106.227C318.803 106.379 317.977 106.455 316.977 106.455C315.462 106.455 313.977 106.129 312.523 105.477C311.083 104.826 309.886 103.833 308.932 102.5C307.992 101.167 307.523 99.4848 307.523 97.4545V62.7273ZM342.67 106.727C339.307 106.727 336.405 105.985 333.966 104.5C331.542 103 329.67 100.909 328.352 98.2273C327.049 95.5303 326.398 92.3939 326.398 88.8182C326.398 85.2424 327.049 82.0909 328.352 79.3636C329.67 76.6212 331.504 74.4848 333.852 72.9545C336.216 71.4091 338.973 70.6364 342.125 70.6364C343.943 70.6364 345.739 70.9394 347.511 71.5455C349.284 72.1515 350.898 73.1364 352.352 74.5C353.807 75.8485 354.966 77.6364 355.83 79.8636C356.693 82.0909 357.125 84.8333 357.125 88.0909V90.3636H330.216V85.7273H351.67C351.67 83.7576 351.277 82 350.489 80.4545C349.716 78.9091 348.61 77.6894 347.17 76.7955C345.746 75.9015 344.064 75.4545 342.125 75.4545C339.989 75.4545 338.14 75.9848 336.58 77.0455C335.034 78.0909 333.845 79.4545 333.011 81.1364C332.178 82.8182 331.761 84.6212 331.761 86.5455V89.6364C331.761 92.2727 332.216 94.5076 333.125 96.3409C334.049 98.1591 335.33 99.5455 336.966 100.5C338.602 101.439 340.504 101.909 342.67 101.909C344.08 101.909 345.352 101.712 346.489 101.318C347.64 100.909 348.633 100.303 349.466 99.5C350.299 98.6818 350.943 97.6667 351.398 96.4545L356.58 97.9091C356.034 99.6667 355.117 101.212 353.83 102.545C352.542 103.864 350.951 104.894 349.057 105.636C347.163 106.364 345.034 106.727 342.67 106.727ZM390.011 78.9091L385.193 80.2727C384.89 79.4697 384.443 78.6894 383.852 77.9318C383.277 77.1591 382.489 76.5227 381.489 76.0227C380.489 75.5227 379.208 75.2727 377.648 75.2727C375.511 75.2727 373.731 75.7652 372.307 76.75C370.898 77.7197 370.193 78.9545 370.193 80.4545C370.193 81.7879 370.678 82.8409 371.648 83.6136C372.617 84.3864 374.133 85.0303 376.193 85.5455L381.375 86.8182C384.496 87.5758 386.822 88.7348 388.352 90.2955C389.883 91.8409 390.648 93.8333 390.648 96.2727C390.648 98.2727 390.072 100.061 388.92 101.636C387.784 103.212 386.193 104.455 384.148 105.364C382.102 106.273 379.723 106.727 377.011 106.727C373.451 106.727 370.504 105.955 368.17 104.409C365.837 102.864 364.36 100.606 363.739 97.6364L368.83 96.3636C369.314 98.2424 370.231 99.6515 371.58 100.591C372.943 101.53 374.723 102 376.92 102C379.42 102 381.405 101.47 382.875 100.409C384.36 99.3333 385.102 98.0455 385.102 96.5455C385.102 95.3333 384.678 94.3182 383.83 93.5C382.981 92.6667 381.678 92.0455 379.92 91.6364L374.102 90.2727C370.905 89.5152 368.557 88.3409 367.057 86.75C365.572 85.1439 364.83 83.1364 364.83 80.7273C364.83 78.7576 365.383 77.0152 366.489 75.5C367.61 73.9848 369.133 72.7955 371.057 71.9318C372.996 71.0682 375.193 70.6364 377.648 70.6364C381.102 70.6364 383.814 71.3939 385.784 72.9091C387.769 74.4242 389.178 76.4242 390.011 78.9091Z" fill="black"/>
</g>
</g>
<defs>
<filter id="filter0_d_611_111" x="0" y="0" width="608" height="508" filterUnits="userSpaceOnUse" color-interpolation-filters="sRGB">
<feFlood flood-opacity="0" result="BackgroundImageFix"/>
<feColorMatrix in="SourceAlpha" type="matrix" values="0 0 0 0 0 0 0 0 0 0 0 0 0 0 0 0 0 0 127 0" result="hardAlpha"/>
<feOffset dy="4"/>
<feGaussianBlur stdDeviation="2"/>
<feColorMatrix type="matrix" values="0 0 0 0 0 0 0 0 0 0 0 0 0 0 0 0 0 0 0.25 0"/>
<feBlend mode="normal" in2="BackgroundImageFix" result="effect1_dropShadow_611_111"/>
<feBlend mode="normal" in="SourceGraphic" in2="effect1_dropShadow_611_111" result="shape"/>
</filter>
<clipPath id="clip0_611_111">
<rect x="4" width="600" height="500" rx="70" fill="white"/>
</clipPath>
</defs>
</svg>
