<svg width="608" height="508" viewBox="0 0 608 508" fill="none" xmlns="http://www.w3.org/2000/svg">
<g filter="url(#filter0_d_513_142)">
<g clip-path="url(#clip0_513_142)">
<rect x="4" width="600" height="500" rx="70" fill="white"/>
<path d="M4 280.997L605 127.724V490C605 495.523 600.523 500 595 500H14C8.47715 500 4 495.523 4 490V280.997Z" fill="#06B6D4"/>
<path d="M4 280.997L605 127.724V490C605 495.523 600.523 500 595 500H14C8.47715 500 4 495.523 4 490V280.997Z" fill="#111827"/>
<path d="M91.9102 66.7588H133.404V69.6893H95.7138V91.7452H131.157V94.6757H95.7138V118.891H133.836V121.821H91.9102V66.7588ZM137.121 66.7588H141.53L161.067 90.974L181.036 66.7588L208.197 36L163.574 93.5189L186.568 121.821H181.987L161.067 96.0638L140.061 121.821H135.565L158.733 93.5189L137.121 66.7588ZM188.211 69.6893V66.7588H235.497V69.6893H213.712V121.821H209.909V69.6893H188.211Z" fill="black"/>
<path d="M40 66.7588H44.7545L110.317 153.934L83.2229 121.821L43.9765 70.9232L43.8036 121.821H40V66.7588Z" fill="black"/>
<path d="M235.115 118.006C235.901 118.006 236.475 117.471 236.475 116.78C236.475 116.089 235.901 115.554 235.115 115.554C234.338 115.554 233.755 116.089 233.755 116.78C233.755 117.471 234.338 118.006 235.115 118.006ZM238.852 114.78C238.852 116.821 240.508 118.155 242.923 118.155C245.495 118.155 247.049 116.78 247.049 114.393V105.989H244.977V114.385C244.977 115.71 244.227 116.418 242.904 116.418C241.72 116.418 240.915 115.759 240.888 114.78H238.852ZM249.76 114.673C249.908 116.796 251.897 118.155 254.857 118.155C258.021 118.155 260.001 116.731 260.001 114.459C260.001 112.673 258.872 111.685 256.134 111.117L254.663 110.796C252.924 110.434 252.22 109.948 252.22 109.1C252.22 108.03 253.312 107.331 254.95 107.331C256.504 107.331 257.577 108.014 257.771 109.109H259.788C259.668 107.108 257.688 105.701 254.977 105.701C252.063 105.701 250.12 107.108 250.12 109.224C250.12 110.969 251.221 112.006 253.636 112.508L255.357 112.878C257.124 113.249 257.901 113.792 257.901 114.698C257.901 115.751 256.68 116.517 255.014 116.517C253.229 116.517 251.989 115.8 251.813 114.673H249.76Z" fill="black"/>
</g>
</g>
<defs>
<filter id="filter0_d_513_142" x="0" y="0" width="608" height="508" filterUnits="userSpaceOnUse" color-interpolation-filters="sRGB">
<feFlood flood-opacity="0" result="BackgroundImageFix"/>
<feColorMatrix in="SourceAlpha" type="matrix" values="0 0 0 0 0 0 0 0 0 0 0 0 0 0 0 0 0 0 127 0" result="hardAlpha"/>
<feOffset dy="4"/>
<feGaussianBlur stdDeviation="2"/>
<feColorMatrix type="matrix" values="0 0 0 0 0 0 0 0 0 0 0 0 0 0 0 0 0 0 0.25 0"/>
<feBlend mode="normal" in2="BackgroundImageFix" result="effect1_dropShadow_513_142"/>
<feBlend mode="normal" in="SourceGraphic" in2="effect1_dropShadow_513_142" result="shape"/>
</filter>
<clipPath id="clip0_513_142">
<rect x="4" width="600" height="500" rx="70" fill="white"/>
</clipPath>
</defs>
</svg>
