<svg width="608" height="508" viewBox="0 0 608 508" fill="none" xmlns="http://www.w3.org/2000/svg">
<g filter="url(#filter0_d_611_95)">
<g clip-path="url(#clip0_611_95)">
<rect x="4" width="600" height="500" rx="70" fill="white"/>
<path d="M4 280.997L605 127.724V490C605 495.523 600.523 500 595 500H14C8.47715 500 4 495.523 4 490V280.997Z" fill="#06B6D4"/>
<path d="M4 280.997L605 127.724V490C605 495.523 600.523 500 595 500H14C8.47715 500 4 495.523 4 490V280.997Z" fill="#111827"/>
<path d="M90.5455 59.4545V106H85.0909L59.7273 69.4545H59.2727V106H53.6364V59.4545H59.0909L84.5455 96.0909H85V59.4545H90.5455ZM115.733 106.727C112.369 106.727 109.468 105.985 107.028 104.5C104.604 103 102.733 100.909 101.415 98.2273C100.112 95.5303 99.4602 92.3939 99.4602 88.8182C99.4602 85.2424 100.112 82.0909 101.415 79.3636C102.733 76.6212 104.566 74.4848 106.915 72.9545C109.278 71.4091 112.036 70.6364 115.188 70.6364C117.006 70.6364 118.801 70.9394 120.574 71.5455C122.347 72.1515 123.96 73.1364 125.415 74.5C126.869 75.8485 128.028 77.6364 128.892 79.8636C129.756 82.0909 130.188 84.8333 130.188 88.0909V90.3636H103.278V85.7273H124.733C124.733 83.7576 124.339 82 123.551 80.4545C122.778 78.9091 121.672 77.6894 120.233 76.7955C118.809 75.9015 117.127 75.4545 115.188 75.4545C113.051 75.4545 111.203 75.9848 109.642 77.0455C108.097 78.0909 106.907 79.4545 106.074 81.1364C105.241 82.8182 104.824 84.6212 104.824 86.5455V89.6364C104.824 92.2727 105.278 94.5076 106.188 96.3409C107.112 98.1591 108.392 99.5455 110.028 100.5C111.665 101.439 113.566 101.909 115.733 101.909C117.142 101.909 118.415 101.712 119.551 101.318C120.703 100.909 121.695 100.303 122.528 99.5C123.362 98.6818 124.006 97.6667 124.46 96.4545L129.642 97.9091C129.097 99.6667 128.18 101.212 126.892 102.545C125.604 103.864 124.013 104.894 122.119 105.636C120.225 106.364 118.097 106.727 115.733 106.727ZM141.409 71.0909L149.773 85.3636L158.136 71.0909H164.318L153.045 88.5455L164.318 106H158.136L149.773 92.4545L141.409 106H135.227L146.318 88.5455L135.227 71.0909H141.409ZM187.153 71.0909V75.6364H169.062V71.0909H187.153ZM174.335 62.7273H179.699V96C179.699 97.5152 179.919 98.6515 180.358 99.4091C180.813 100.152 181.388 100.652 182.085 100.909C182.797 101.152 183.547 101.273 184.335 101.273C184.926 101.273 185.411 101.242 185.79 101.182C186.169 101.106 186.472 101.045 186.699 101L187.79 105.818C187.426 105.955 186.919 106.091 186.267 106.227C185.616 106.379 184.79 106.455 183.79 106.455C182.275 106.455 180.79 106.129 179.335 105.477C177.896 104.826 176.699 103.833 175.744 102.5C174.805 101.167 174.335 99.4848 174.335 97.4545V62.7273ZM199.131 106.364C198.009 106.364 197.047 105.962 196.244 105.159C195.441 104.356 195.04 103.394 195.04 102.273C195.04 101.152 195.441 100.189 196.244 99.3864C197.047 98.5833 198.009 98.1818 199.131 98.1818C200.252 98.1818 201.214 98.5833 202.017 99.3864C202.82 100.189 203.222 101.152 203.222 102.273C203.222 103.015 203.032 103.697 202.653 104.318C202.29 104.939 201.797 105.439 201.176 105.818C200.57 106.182 199.888 106.364 199.131 106.364ZM212.847 71.0909H218.21V108.545C218.21 110.697 217.839 112.561 217.097 114.136C216.369 115.712 215.263 116.932 213.778 117.795C212.309 118.659 210.453 119.091 208.21 119.091C208.028 119.091 207.847 119.091 207.665 119.091C207.483 119.091 207.301 119.091 207.119 119.091V114.091C207.301 114.091 207.468 114.091 207.619 114.091C207.771 114.091 207.938 114.091 208.119 114.091C209.756 114.091 210.953 113.606 211.71 112.636C212.468 111.682 212.847 110.318 212.847 108.545V71.0909ZM215.483 65.2727C214.438 65.2727 213.536 64.9167 212.778 64.2045C212.036 63.4924 211.665 62.6364 211.665 61.6364C211.665 60.6364 212.036 59.7803 212.778 59.0682C213.536 58.3561 214.438 58 215.483 58C216.528 58 217.422 58.3561 218.165 59.0682C218.922 59.7803 219.301 60.6364 219.301 61.6364C219.301 62.6364 218.922 63.4924 218.165 64.2045C217.422 64.9167 216.528 65.2727 215.483 65.2727ZM252.761 78.9091L247.943 80.2727C247.64 79.4697 247.193 78.6894 246.602 77.9318C246.027 77.1591 245.239 76.5227 244.239 76.0227C243.239 75.5227 241.958 75.2727 240.398 75.2727C238.261 75.2727 236.481 75.7652 235.057 76.75C233.648 77.7197 232.943 78.9545 232.943 80.4545C232.943 81.7879 233.428 82.8409 234.398 83.6136C235.367 84.3864 236.883 85.0303 238.943 85.5455L244.125 86.8182C247.246 87.5758 249.572 88.7348 251.102 90.2955C252.633 91.8409 253.398 93.8333 253.398 96.2727C253.398 98.2727 252.822 100.061 251.67 101.636C250.534 103.212 248.943 104.455 246.898 105.364C244.852 106.273 242.473 106.727 239.761 106.727C236.201 106.727 233.254 105.955 230.92 104.409C228.587 102.864 227.11 100.606 226.489 97.6364L231.58 96.3636C232.064 98.2424 232.981 99.6515 234.33 100.591C235.693 101.53 237.473 102 239.67 102C242.17 102 244.155 101.47 245.625 100.409C247.11 99.3333 247.852 98.0455 247.852 96.5455C247.852 95.3333 247.428 94.3182 246.58 93.5C245.731 92.6667 244.428 92.0455 242.67 91.6364L236.852 90.2727C233.655 89.5152 231.307 88.3409 229.807 86.75C228.322 85.1439 227.58 83.1364 227.58 80.7273C227.58 78.7576 228.133 77.0152 229.239 75.5C230.36 73.9848 231.883 72.7955 233.807 71.9318C235.746 71.0682 237.943 70.6364 240.398 70.6364C243.852 70.6364 246.564 71.3939 248.534 72.9091C250.519 74.4242 251.928 76.4242 252.761 78.9091Z" fill="black"/>
</g>
</g>
<defs>
<filter id="filter0_d_611_95" x="0" y="0" width="608" height="508" filterUnits="userSpaceOnUse" color-interpolation-filters="sRGB">
<feFlood flood-opacity="0" result="BackgroundImageFix"/>
<feColorMatrix in="SourceAlpha" type="matrix" values="0 0 0 0 0 0 0 0 0 0 0 0 0 0 0 0 0 0 127 0" result="hardAlpha"/>
<feOffset dy="4"/>
<feGaussianBlur stdDeviation="2"/>
<feColorMatrix type="matrix" values="0 0 0 0 0 0 0 0 0 0 0 0 0 0 0 0 0 0 0.25 0"/>
<feBlend mode="normal" in2="BackgroundImageFix" result="effect1_dropShadow_611_95"/>
<feBlend mode="normal" in="SourceGraphic" in2="effect1_dropShadow_611_95" result="shape"/>
</filter>
<clipPath id="clip0_611_95">
<rect x="4" width="600" height="500" rx="70" fill="white"/>
</clipPath>
</defs>
</svg>
