<svg width="608" height="508" viewBox="0 0 608 508" fill="none" xmlns="http://www.w3.org/2000/svg">
<g filter="url(#filter0_d_611_115)">
<g clip-path="url(#clip0_611_115)">
<rect x="4" width="600" height="500" rx="70" fill="white"/>
<path d="M4 280.997L605 127.723V490C605 495.523 600.523 500 595 500H14C8.47715 500 4 495.523 4 490V280.997Z" fill="#06B6D4"/>
<path d="M4 280.998L605 127.724V490C605 495.523 600.523 500 595 500H14C8.47715 500 4 495.523 4 490V280.998Z" fill="#111827"/>
<path d="M90.5455 59.4545V106H85.0909L59.7273 69.4545H59.2727V106H53.6364V59.4545H59.0909L84.5455 96.0909H85V59.4545H90.5455ZM115.278 106.727C112.127 106.727 109.362 105.977 106.983 104.477C104.619 102.977 102.771 100.879 101.438 98.1818C100.119 95.4848 99.4602 92.3333 99.4602 88.7273C99.4602 85.0909 100.119 81.9167 101.438 79.2045C102.771 76.4924 104.619 74.3864 106.983 72.8864C109.362 71.3864 112.127 70.6364 115.278 70.6364C118.43 70.6364 121.188 71.3864 123.551 72.8864C125.93 74.3864 127.778 76.4924 129.097 79.2045C130.43 81.9167 131.097 85.0909 131.097 88.7273C131.097 92.3333 130.43 95.4848 129.097 98.1818C127.778 100.879 125.93 102.977 123.551 104.477C121.188 105.977 118.43 106.727 115.278 106.727ZM115.278 101.909C117.672 101.909 119.642 101.295 121.188 100.068C122.733 98.8409 123.877 97.2273 124.619 95.2273C125.362 93.2273 125.733 91.0606 125.733 88.7273C125.733 86.3939 125.362 84.2197 124.619 82.2045C123.877 80.1894 122.733 78.5606 121.188 77.3182C119.642 76.0758 117.672 75.4545 115.278 75.4545C112.884 75.4545 110.915 76.0758 109.369 77.3182C107.824 78.5606 106.68 80.1894 105.938 82.2045C105.195 84.2197 104.824 86.3939 104.824 88.7273C104.824 91.0606 105.195 93.2273 105.938 95.2273C106.68 97.2273 107.824 98.8409 109.369 100.068C110.915 101.295 112.884 101.909 115.278 101.909ZM152.466 106.727C149.557 106.727 146.989 105.992 144.761 104.523C142.534 103.038 140.792 100.947 139.534 98.25C138.277 95.5379 137.648 92.3333 137.648 88.6364C137.648 84.9697 138.277 81.7879 139.534 79.0909C140.792 76.3939 142.542 74.3106 144.784 72.8409C147.027 71.3712 149.617 70.6364 152.557 70.6364C154.83 70.6364 156.625 71.0152 157.943 71.7727C159.277 72.5152 160.292 73.3636 160.989 74.3182C161.701 75.2576 162.254 76.0303 162.648 76.6364H163.102V59.4545H168.466V106H163.284V100.636H162.648C162.254 101.273 161.693 102.076 160.966 103.045C160.239 104 159.201 104.856 157.852 105.614C156.504 106.356 154.708 106.727 152.466 106.727ZM153.193 101.909C155.345 101.909 157.163 101.348 158.648 100.227C160.133 99.0909 161.261 97.5227 162.034 95.5227C162.807 93.5076 163.193 91.1818 163.193 88.5455C163.193 85.9394 162.814 83.6591 162.057 81.7045C161.299 79.7348 160.178 78.2045 158.693 77.1136C157.208 76.0076 155.375 75.4545 153.193 75.4545C150.92 75.4545 149.027 76.0379 147.511 77.2045C146.011 78.3561 144.883 79.9242 144.125 81.9091C143.383 83.8788 143.011 86.0909 143.011 88.5455C143.011 91.0303 143.39 93.2879 144.148 95.3182C144.92 97.3333 146.057 98.9394 147.557 100.136C149.072 101.318 150.951 101.909 153.193 101.909ZM193.67 106.727C190.307 106.727 187.405 105.985 184.966 104.5C182.542 103 180.67 100.909 179.352 98.2273C178.049 95.5303 177.398 92.3939 177.398 88.8182C177.398 85.2424 178.049 82.0909 179.352 79.3636C180.67 76.6212 182.504 74.4848 184.852 72.9545C187.216 71.4091 189.973 70.6364 193.125 70.6364C194.943 70.6364 196.739 70.9394 198.511 71.5455C200.284 72.1515 201.898 73.1364 203.352 74.5C204.807 75.8485 205.966 77.6364 206.83 79.8636C207.693 82.0909 208.125 84.8333 208.125 88.0909V90.3636H181.216V85.7273H202.67C202.67 83.7576 202.277 82 201.489 80.4545C200.716 78.9091 199.61 77.6894 198.17 76.7955C196.746 75.9015 195.064 75.4545 193.125 75.4545C190.989 75.4545 189.14 75.9848 187.58 77.0455C186.034 78.0909 184.845 79.4545 184.011 81.1364C183.178 82.8182 182.761 84.6212 182.761 86.5455V89.6364C182.761 92.2727 183.216 94.5076 184.125 96.3409C185.049 98.1591 186.33 99.5455 187.966 100.5C189.602 101.439 191.504 101.909 193.67 101.909C195.08 101.909 196.352 101.712 197.489 101.318C198.64 100.909 199.633 100.303 200.466 99.5C201.299 98.6818 201.943 97.6667 202.398 96.4545L207.58 97.9091C207.034 99.6667 206.117 101.212 204.83 102.545C203.542 103.864 201.951 104.894 200.057 105.636C198.163 106.364 196.034 106.727 193.67 106.727ZM220.193 106.364C219.072 106.364 218.11 105.962 217.307 105.159C216.504 104.356 216.102 103.394 216.102 102.273C216.102 101.152 216.504 100.189 217.307 99.3864C218.11 98.5833 219.072 98.1818 220.193 98.1818C221.314 98.1818 222.277 98.5833 223.08 99.3864C223.883 100.189 224.284 101.152 224.284 102.273C224.284 103.015 224.095 103.697 223.716 104.318C223.352 104.939 222.86 105.439 222.239 105.818C221.633 106.182 220.951 106.364 220.193 106.364ZM233.909 71.0909H239.273V108.545C239.273 110.697 238.902 112.561 238.159 114.136C237.432 115.712 236.326 116.932 234.841 117.795C233.371 118.659 231.515 119.091 229.273 119.091C229.091 119.091 228.909 119.091 228.727 119.091C228.545 119.091 228.364 119.091 228.182 119.091V114.091C228.364 114.091 228.53 114.091 228.682 114.091C228.833 114.091 229 114.091 229.182 114.091C230.818 114.091 232.015 113.606 232.773 112.636C233.53 111.682 233.909 110.318 233.909 108.545V71.0909ZM236.545 65.2727C235.5 65.2727 234.598 64.9167 233.841 64.2045C233.098 63.4924 232.727 62.6364 232.727 61.6364C232.727 60.6364 233.098 59.7803 233.841 59.0682C234.598 58.3561 235.5 58 236.545 58C237.591 58 238.485 58.3561 239.227 59.0682C239.985 59.7803 240.364 60.6364 240.364 61.6364C240.364 62.6364 239.985 63.4924 239.227 64.2045C238.485 64.9167 237.591 65.2727 236.545 65.2727ZM273.824 78.9091L269.006 80.2727C268.703 79.4697 268.256 78.6894 267.665 77.9318C267.089 77.1591 266.301 76.5227 265.301 76.0227C264.301 75.5227 263.021 75.2727 261.46 75.2727C259.324 75.2727 257.544 75.7652 256.119 76.75C254.71 77.7197 254.006 78.9545 254.006 80.4545C254.006 81.7879 254.491 82.8409 255.46 83.6136C256.43 84.3864 257.945 85.0303 260.006 85.5455L265.188 86.8182C268.309 87.5758 270.634 88.7348 272.165 90.2955C273.695 91.8409 274.46 93.8333 274.46 96.2727C274.46 98.2727 273.884 100.061 272.733 101.636C271.597 103.212 270.006 104.455 267.96 105.364C265.915 106.273 263.536 106.727 260.824 106.727C257.263 106.727 254.316 105.955 251.983 104.409C249.65 102.864 248.172 100.606 247.551 97.6364L252.642 96.3636C253.127 98.2424 254.044 99.6515 255.392 100.591C256.756 101.53 258.536 102 260.733 102C263.233 102 265.218 101.47 266.688 100.409C268.172 99.3333 268.915 98.0455 268.915 96.5455C268.915 95.3333 268.491 94.3182 267.642 93.5C266.794 92.6667 265.491 92.0455 263.733 91.6364L257.915 90.2727C254.718 89.5152 252.369 88.3409 250.869 86.75C249.384 85.1439 248.642 83.1364 248.642 80.7273C248.642 78.7576 249.195 77.0152 250.301 75.5C251.422 73.9848 252.945 72.7955 254.869 71.9318C256.809 71.0682 259.006 70.6364 261.46 70.6364C264.915 70.6364 267.627 71.3939 269.597 72.9091C271.581 74.4242 272.991 76.4242 273.824 78.9091Z" fill="black"/>
</g>
</g>
<defs>
<filter id="filter0_d_611_115" x="0" y="0" width="608" height="508" filterUnits="userSpaceOnUse" color-interpolation-filters="sRGB">
<feFlood flood-opacity="0" result="BackgroundImageFix"/>
<feColorMatrix in="SourceAlpha" type="matrix" values="0 0 0 0 0 0 0 0 0 0 0 0 0 0 0 0 0 0 127 0" result="hardAlpha"/>
<feOffset dy="4"/>
<feGaussianBlur stdDeviation="2"/>
<feColorMatrix type="matrix" values="0 0 0 0 0 0 0 0 0 0 0 0 0 0 0 0 0 0 0.25 0"/>
<feBlend mode="normal" in2="BackgroundImageFix" result="effect1_dropShadow_611_115"/>
<feBlend mode="normal" in="SourceGraphic" in2="effect1_dropShadow_611_115" result="shape"/>
</filter>
<clipPath id="clip0_611_115">
<rect x="4" width="600" height="500" rx="70" fill="white"/>
</clipPath>
</defs>
</svg>
