<svg width="608" height="508" viewBox="0 0 608 508" fill="none" xmlns="http://www.w3.org/2000/svg">
<g filter="url(#filter0_d_612_94)">
<g clip-path="url(#clip0_612_94)">
<rect x="4" width="600" height="500" rx="70" fill="white"/>
<path d="M4 280.997L605 127.723V490C605 495.523 600.523 500 595 500H14C8.47715 500 4 495.523 4 490V280.997Z" fill="#06B6D4"/>
<path d="M4 280.998L605 127.724V490C605 495.523 600.523 500 595 500H14C8.47715 500 4 495.523 4 490V280.998Z" fill="#111827"/>
<path d="M110 193.754C107.826 193.754 105.797 193.174 103.913 192.159L84.6377 180.71C81.7391 179.116 83.1884 178.536 84.058 178.246C87.971 176.942 88.6957 176.652 92.7536 174.333C93.1884 174.043 93.7681 174.188 94.2029 174.478L108.986 183.319C109.565 183.609 110.29 183.609 110.725 183.319L168.551 149.841C169.13 149.551 169.42 148.971 169.42 148.246V81.4348C169.42 80.7101 169.13 80.1304 168.551 79.8406L110.725 46.5072C110.145 46.2174 109.42 46.2174 108.986 46.5072L51.1594 79.8406C50.5797 80.1304 50.2899 80.8551 50.2899 81.4348V148.246C50.2899 148.826 50.5797 149.551 51.1594 149.841L66.9565 158.971C75.5072 163.319 80.8696 158.246 80.8696 153.174V87.2319C80.8696 86.3623 81.5942 85.4928 82.6087 85.4928H90C90.8696 85.4928 91.7391 86.2174 91.7391 87.2319V153.174C91.7391 164.623 85.5072 171.29 74.6377 171.29C71.3043 171.29 68.6957 171.29 61.3043 167.667L46.087 158.971C42.3188 156.797 40 152.739 40 148.391V81.5797C40 77.2319 42.3188 73.1739 46.087 71L103.913 37.5217C107.536 35.4928 112.464 35.4928 116.087 37.5217L173.913 71C177.681 73.1739 180 77.2319 180 81.5797V148.391C180 152.739 177.681 156.797 173.913 158.971L116.087 192.449C114.203 193.319 112.029 193.754 110 193.754ZM127.826 147.812C102.464 147.812 97.2464 136.217 97.2464 126.362C97.2464 125.493 97.971 124.623 98.9855 124.623H106.522C107.391 124.623 108.116 125.203 108.116 126.072C109.275 133.754 112.609 137.522 127.971 137.522C140.145 137.522 145.362 134.768 145.362 128.246C145.362 124.478 143.913 121.725 124.928 119.841C109.13 118.246 99.2754 114.768 99.2754 102.159C99.2754 90.4203 109.13 83.4638 125.652 83.4638C144.203 83.4638 153.333 89.8406 154.493 103.754C154.493 104.188 154.348 104.623 154.058 105.058C153.768 105.348 153.333 105.638 152.899 105.638H145.362C144.638 105.638 143.913 105.058 143.768 104.333C142.029 96.3623 137.536 93.7536 125.652 93.7536C112.319 93.7536 110.725 98.3913 110.725 101.87C110.725 106.072 112.609 107.377 130.58 109.696C148.406 112.014 156.812 115.348 156.812 127.812C156.667 140.565 146.232 147.812 127.826 147.812Z" fill="#539E43"/>
</g>
</g>
<defs>
<filter id="filter0_d_612_94" x="0" y="0" width="608" height="508" filterUnits="userSpaceOnUse" color-interpolation-filters="sRGB">
<feFlood flood-opacity="0" result="BackgroundImageFix"/>
<feColorMatrix in="SourceAlpha" type="matrix" values="0 0 0 0 0 0 0 0 0 0 0 0 0 0 0 0 0 0 127 0" result="hardAlpha"/>
<feOffset dy="4"/>
<feGaussianBlur stdDeviation="2"/>
<feColorMatrix type="matrix" values="0 0 0 0 0 0 0 0 0 0 0 0 0 0 0 0 0 0 0.25 0"/>
<feBlend mode="normal" in2="BackgroundImageFix" result="effect1_dropShadow_612_94"/>
<feBlend mode="normal" in="SourceGraphic" in2="effect1_dropShadow_612_94" result="shape"/>
</filter>
<clipPath id="clip0_612_94">
<rect x="4" width="600" height="500" rx="70" fill="white"/>
</clipPath>
</defs>
</svg>
