<svg width="608" height="508" viewBox="0 0 608 508" fill="none" xmlns="http://www.w3.org/2000/svg">
<g filter="url(#filter0_d_611_143)">
<g clip-path="url(#clip0_611_143)">
<rect x="4" width="600" height="500" rx="70" fill="white"/>
<path d="M4 280.997L605 127.723V490C605 495.523 600.523 500 595 500H14C8.47715 500 4 495.523 4 490V280.997Z" fill="#06B6D4"/>
<path d="M4 280.998L605 127.724V490C605 495.523 600.523 500 595 500H14C8.47715 500 4 495.523 4 490V280.998Z" fill="#111827"/>
<path d="M92.9091 82.7273C92.9091 87.6364 92.0227 91.8788 90.25 95.4545C88.4773 99.0303 86.0455 101.788 82.9545 103.727C79.8636 105.667 76.3333 106.636 72.3636 106.636C68.3939 106.636 64.8636 105.667 61.7727 103.727C58.6818 101.788 56.25 99.0303 54.4773 95.4545C52.7045 91.8788 51.8182 87.6364 51.8182 82.7273C51.8182 77.8182 52.7045 73.5758 54.4773 70C56.25 66.4242 58.6818 63.6667 61.7727 61.7273C64.8636 59.7879 68.3939 58.8182 72.3636 58.8182C76.3333 58.8182 79.8636 59.7879 82.9545 61.7273C86.0455 63.6667 88.4773 66.4242 90.25 70C92.0227 73.5758 92.9091 77.8182 92.9091 82.7273ZM87.4545 82.7273C87.4545 78.697 86.7803 75.2955 85.4318 72.5227C84.0985 69.75 82.2879 67.6515 80 66.2273C77.7273 64.803 75.1818 64.0909 72.3636 64.0909C69.5455 64.0909 66.9924 64.803 64.7045 66.2273C62.4318 67.6515 60.6212 69.75 59.2727 72.5227C57.9394 75.2955 57.2727 78.697 57.2727 82.7273C57.2727 86.7576 57.9394 90.1591 59.2727 92.9318C60.6212 95.7045 62.4318 97.803 64.7045 99.2273C66.9924 100.652 69.5455 101.364 72.3636 101.364C75.1818 101.364 77.7273 100.652 80 99.2273C82.2879 97.803 84.0985 95.7045 85.4318 92.9318C86.7803 90.1591 87.4545 86.7576 87.4545 82.7273ZM139.841 74H134.205C133.871 72.3788 133.288 70.9545 132.455 69.7273C131.636 68.5 130.636 67.4697 129.455 66.6364C128.288 65.7879 126.992 65.1515 125.568 64.7273C124.144 64.303 122.659 64.0909 121.114 64.0909C118.295 64.0909 115.742 64.803 113.455 66.2273C111.182 67.6515 109.371 69.75 108.023 72.5227C106.689 75.2955 106.023 78.697 106.023 82.7273C106.023 86.7576 106.689 90.1591 108.023 92.9318C109.371 95.7045 111.182 97.803 113.455 99.2273C115.742 100.652 118.295 101.364 121.114 101.364C122.659 101.364 124.144 101.152 125.568 100.727C126.992 100.303 128.288 99.6742 129.455 98.8409C130.636 97.9924 131.636 96.9545 132.455 95.7273C133.288 94.4848 133.871 93.0606 134.205 91.4545H139.841C139.417 93.8333 138.644 95.9621 137.523 97.8409C136.402 99.7197 135.008 101.318 133.341 102.636C131.674 103.939 129.803 104.932 127.727 105.614C125.667 106.295 123.462 106.636 121.114 106.636C117.144 106.636 113.614 105.667 110.523 103.727C107.432 101.788 105 99.0303 103.227 95.4545C101.455 91.8788 100.568 87.6364 100.568 82.7273C100.568 77.8182 101.455 73.5758 103.227 70C105 66.4242 107.432 63.6667 110.523 61.7273C113.614 59.7879 117.144 58.8182 121.114 58.8182C123.462 58.8182 125.667 59.1591 127.727 59.8409C129.803 60.5227 131.674 61.5227 133.341 62.8409C135.008 64.1439 136.402 65.7348 137.523 67.6136C138.644 69.4773 139.417 71.6061 139.841 74ZM158.494 106.818C156.282 106.818 154.275 106.402 152.472 105.568C150.669 104.72 149.237 103.5 148.176 101.909C147.116 100.303 146.585 98.3636 146.585 96.0909C146.585 94.0909 146.979 92.4697 147.767 91.2273C148.555 89.9697 149.608 88.9848 150.926 88.2727C152.244 87.5606 153.699 87.0303 155.29 86.6818C156.896 86.3182 158.509 86.0303 160.131 85.8182C162.252 85.5455 163.972 85.3409 165.29 85.2045C166.623 85.053 167.593 84.803 168.199 84.4545C168.82 84.1061 169.131 83.5 169.131 82.6364V82.4545C169.131 80.2121 168.517 78.4697 167.29 77.2273C166.078 75.9848 164.237 75.3636 161.767 75.3636C159.206 75.3636 157.199 75.9242 155.744 77.0455C154.29 78.1667 153.267 79.3636 152.676 80.6364L147.585 78.8182C148.494 76.697 149.706 75.0455 151.222 73.8636C152.752 72.6667 154.419 71.8333 156.222 71.3636C158.04 70.8788 159.828 70.6364 161.585 70.6364C162.706 70.6364 163.994 70.7727 165.449 71.0455C166.919 71.303 168.335 71.8409 169.699 72.6591C171.078 73.4773 172.222 74.7121 173.131 76.3636C174.04 78.0152 174.494 80.2273 174.494 83V106H169.131V101.273H168.858C168.494 102.03 167.888 102.841 167.04 103.705C166.191 104.568 165.063 105.303 163.653 105.909C162.244 106.515 160.525 106.818 158.494 106.818ZM159.312 102C161.434 102 163.222 101.583 164.676 100.75C166.146 99.9167 167.252 98.8409 167.994 97.5227C168.752 96.2045 169.131 94.8182 169.131 93.3636V88.4545C168.903 88.7273 168.403 88.9773 167.631 89.2045C166.873 89.4167 165.994 89.6061 164.994 89.7727C164.009 89.9242 163.047 90.0606 162.108 90.1818C161.184 90.2879 160.434 90.3788 159.858 90.4545C158.464 90.6364 157.161 90.9318 155.949 91.3409C154.752 91.7348 153.782 92.3333 153.04 93.1364C152.313 93.9242 151.949 95 151.949 96.3636C151.949 98.2273 152.638 99.6364 154.017 100.591C155.411 101.53 157.176 102 159.312 102ZM184.284 106V71.0909H189.466V76.5455H189.92C190.648 74.6818 191.822 73.2348 193.443 72.2045C195.064 71.1591 197.011 70.6364 199.284 70.6364C201.587 70.6364 203.504 71.1591 205.034 72.2045C206.58 73.2348 207.784 74.6818 208.648 76.5455H209.011C209.905 74.7424 211.246 73.3106 213.034 72.25C214.822 71.1742 216.966 70.6364 219.466 70.6364C222.587 70.6364 225.14 71.6136 227.125 73.5682C229.11 75.5076 230.102 78.5303 230.102 82.6364V106H224.739V82.6364C224.739 80.0606 224.034 78.2197 222.625 77.1136C221.216 76.0076 219.557 75.4545 217.648 75.4545C215.193 75.4545 213.292 76.197 211.943 77.6818C210.595 79.1515 209.92 81.0152 209.92 83.2727V106H204.466V82.0909C204.466 80.1061 203.822 78.5076 202.534 77.2955C201.246 76.0682 199.587 75.4545 197.557 75.4545C196.163 75.4545 194.86 75.8258 193.648 76.5682C192.451 77.3106 191.481 78.3409 190.739 79.6591C190.011 80.9621 189.648 82.4697 189.648 84.1818V106H184.284ZM245.273 59.4545V106H239.909V59.4545H245.273Z" fill="black"/>
</g>
</g>
<defs>
<filter id="filter0_d_611_143" x="0" y="0" width="608" height="508" filterUnits="userSpaceOnUse" color-interpolation-filters="sRGB">
<feFlood flood-opacity="0" result="BackgroundImageFix"/>
<feColorMatrix in="SourceAlpha" type="matrix" values="0 0 0 0 0 0 0 0 0 0 0 0 0 0 0 0 0 0 127 0" result="hardAlpha"/>
<feOffset dy="4"/>
<feGaussianBlur stdDeviation="2"/>
<feColorMatrix type="matrix" values="0 0 0 0 0 0 0 0 0 0 0 0 0 0 0 0 0 0 0.25 0"/>
<feBlend mode="normal" in2="BackgroundImageFix" result="effect1_dropShadow_611_143"/>
<feBlend mode="normal" in="SourceGraphic" in2="effect1_dropShadow_611_143" result="shape"/>
</filter>
<clipPath id="clip0_611_143">
<rect x="4" width="600" height="500" rx="70" fill="white"/>
</clipPath>
</defs>
</svg>
