<svg width="608" height="508" viewBox="0 0 608 508" fill="none" xmlns="http://www.w3.org/2000/svg">
<g filter="url(#filter0_d_611_85)">
<g clip-path="url(#clip0_611_85)">
<rect x="4" width="600" height="500" rx="70" fill="white"/>
<path d="M4 280.997L605 127.724V490C605 495.523 600.523 500 595 500H14C8.47715 500 4 495.523 4 490V280.997Z" fill="#06B6D4"/>
<path d="M4 280.997L605 127.724V490C605 495.523 600.523 500 595 500H14C8.47715 500 4 495.523 4 490V280.997Z" fill="#111827"/>
<path d="M53.6364 106V59.4545H69.3636C73 59.4545 75.9848 60.0758 78.3182 61.3182C80.6515 62.5455 82.3788 64.2348 83.5 66.3864C84.6212 68.5379 85.1818 70.9848 85.1818 73.7273C85.1818 76.4697 84.6212 78.9015 83.5 81.0227C82.3788 83.1439 80.6591 84.8106 78.3409 86.0227C76.0227 87.2197 73.0606 87.8182 69.4545 87.8182H56.7273V82.7273H69.2727C71.7576 82.7273 73.7576 82.3636 75.2727 81.6364C76.803 80.9091 77.9091 79.8788 78.5909 78.5455C79.2879 77.197 79.6364 75.5909 79.6364 73.7273C79.6364 71.8636 79.2879 70.2348 78.5909 68.8409C77.8939 67.447 76.7803 66.3712 75.25 65.6136C73.7197 64.8409 71.697 64.4545 69.1818 64.4545H59.2727V106H53.6364ZM75.5455 85.0909L87 106H80.4545L69.1818 85.0909H75.5455ZM108.108 106.727C104.744 106.727 101.843 105.985 99.4034 104.5C96.9792 103 95.108 100.909 93.7898 98.2273C92.4867 95.5303 91.8352 92.3939 91.8352 88.8182C91.8352 85.2424 92.4867 82.0909 93.7898 79.3636C95.108 76.6212 96.9413 74.4848 99.2898 72.9545C101.653 71.4091 104.411 70.6364 107.562 70.6364C109.381 70.6364 111.176 70.9394 112.949 71.5455C114.722 72.1515 116.335 73.1364 117.79 74.5C119.244 75.8485 120.403 77.6364 121.267 79.8636C122.131 82.0909 122.562 84.8333 122.562 88.0909V90.3636H95.6534V85.7273H117.108C117.108 83.7576 116.714 82 115.926 80.4545C115.153 78.9091 114.047 77.6894 112.608 76.7955C111.184 75.9015 109.502 75.4545 107.562 75.4545C105.426 75.4545 103.578 75.9848 102.017 77.0455C100.472 78.0909 99.2822 79.4545 98.4489 81.1364C97.6155 82.8182 97.1989 84.6212 97.1989 86.5455V89.6364C97.1989 92.2727 97.6534 94.5076 98.5625 96.3409C99.4867 98.1591 100.767 99.5455 102.403 100.5C104.04 101.439 105.941 101.909 108.108 101.909C109.517 101.909 110.79 101.712 111.926 101.318C113.078 100.909 114.07 100.303 114.903 99.5C115.737 98.6818 116.381 97.6667 116.835 96.4545L122.017 97.9091C121.472 99.6667 120.555 101.212 119.267 102.545C117.979 103.864 116.388 104.894 114.494 105.636C112.6 106.364 110.472 106.727 108.108 106.727ZM155.449 78.9091L150.631 80.2727C150.328 79.4697 149.881 78.6894 149.29 77.9318C148.714 77.1591 147.926 76.5227 146.926 76.0227C145.926 75.5227 144.646 75.2727 143.085 75.2727C140.949 75.2727 139.169 75.7652 137.744 76.75C136.335 77.7197 135.631 78.9545 135.631 80.4545C135.631 81.7879 136.116 82.8409 137.085 83.6136C138.055 84.3864 139.57 85.0303 141.631 85.5455L146.812 86.8182C149.934 87.5758 152.259 88.7348 153.79 90.2955C155.32 91.8409 156.085 93.8333 156.085 96.2727C156.085 98.2727 155.509 100.061 154.358 101.636C153.222 103.212 151.631 104.455 149.585 105.364C147.54 106.273 145.161 106.727 142.449 106.727C138.888 106.727 135.941 105.955 133.608 104.409C131.275 102.864 129.797 100.606 129.176 97.6364L134.267 96.3636C134.752 98.2424 135.669 99.6515 137.017 100.591C138.381 101.53 140.161 102 142.358 102C144.858 102 146.843 101.47 148.312 100.409C149.797 99.3333 150.54 98.0455 150.54 96.5455C150.54 95.3333 150.116 94.3182 149.267 93.5C148.419 92.6667 147.116 92.0455 145.358 91.6364L139.54 90.2727C136.343 89.5152 133.994 88.3409 132.494 86.75C131.009 85.1439 130.267 83.1364 130.267 80.7273C130.267 78.7576 130.82 77.0152 131.926 75.5C133.047 73.9848 134.57 72.7955 136.494 71.9318C138.434 71.0682 140.631 70.6364 143.085 70.6364C146.54 70.6364 149.252 71.3939 151.222 72.9091C153.206 74.4242 154.616 76.4242 155.449 78.9091ZM178.341 106.727C175.068 106.727 172.25 105.955 169.886 104.409C167.523 102.864 165.705 100.735 164.432 98.0227C163.159 95.3106 162.523 92.2121 162.523 88.7273C162.523 85.1818 163.174 82.053 164.477 79.3409C165.795 76.6136 167.629 74.4848 169.977 72.9545C172.341 71.4091 175.098 70.6364 178.25 70.6364C180.705 70.6364 182.917 71.0909 184.886 72C186.856 72.9091 188.47 74.1818 189.727 75.8182C190.985 77.4545 191.765 79.3636 192.068 81.5455H186.705C186.295 79.9545 185.386 78.5455 183.977 77.3182C182.583 76.0758 180.705 75.4545 178.341 75.4545C176.25 75.4545 174.417 76 172.841 77.0909C171.28 78.1667 170.061 79.6894 169.182 81.6591C168.318 83.6136 167.886 85.9091 167.886 88.5455C167.886 91.2424 168.311 93.5909 169.159 95.5909C170.023 97.5909 171.235 99.1439 172.795 100.25C174.371 101.356 176.22 101.909 178.341 101.909C179.735 101.909 181 101.667 182.136 101.182C183.273 100.697 184.235 100 185.023 99.0909C185.811 98.1818 186.371 97.0909 186.705 95.8182H192.068C191.765 97.8788 191.015 99.7348 189.818 101.386C188.636 103.023 187.068 104.326 185.114 105.295C183.174 106.25 180.917 106.727 178.341 106.727ZM199.909 106V71.0909H205.091V76.3636H205.455C206.091 74.6364 207.242 73.2348 208.909 72.1591C210.576 71.0833 212.455 70.5455 214.545 70.5455C214.939 70.5455 215.432 70.553 216.023 70.5682C216.614 70.5833 217.061 70.6061 217.364 70.6364V76.0909C217.182 76.0455 216.765 75.9773 216.114 75.8864C215.477 75.7803 214.803 75.7273 214.091 75.7273C212.394 75.7273 210.879 76.0833 209.545 76.7955C208.227 77.4924 207.182 78.4621 206.409 79.7045C205.652 80.9318 205.273 82.3333 205.273 83.9091V106H199.909ZM223.722 106V71.0909H229.085V106H223.722ZM226.449 65.2727C225.403 65.2727 224.502 64.9167 223.744 64.2045C223.002 63.4924 222.631 62.6364 222.631 61.6364C222.631 60.6364 223.002 59.7803 223.744 59.0682C224.502 58.3561 225.403 58 226.449 58C227.494 58 228.388 58.3561 229.131 59.0682C229.888 59.7803 230.267 60.6364 230.267 61.6364C230.267 62.6364 229.888 63.4924 229.131 64.2045C228.388 64.9167 227.494 65.2727 226.449 65.2727ZM238.909 119.091V71.0909H244.091V76.6364H244.727C245.121 76.0303 245.667 75.2576 246.364 74.3182C247.076 73.3636 248.091 72.5152 249.409 71.7727C250.742 71.0152 252.545 70.6364 254.818 70.6364C257.758 70.6364 260.348 71.3712 262.591 72.8409C264.833 74.3106 266.583 76.3939 267.841 79.0909C269.098 81.7879 269.727 84.9697 269.727 88.6364C269.727 92.3333 269.098 95.5379 267.841 98.25C266.583 100.947 264.841 103.038 262.614 104.523C260.386 105.992 257.818 106.727 254.909 106.727C252.667 106.727 250.871 106.356 249.523 105.614C248.174 104.856 247.136 104 246.409 103.045C245.682 102.076 245.121 101.273 244.727 100.636H244.273V119.091H238.909ZM244.182 88.5455C244.182 91.1818 244.568 93.5076 245.341 95.5227C246.114 97.5227 247.242 99.0909 248.727 100.227C250.212 101.348 252.03 101.909 254.182 101.909C256.424 101.909 258.295 101.318 259.795 100.136C261.311 98.9394 262.447 97.3333 263.205 95.3182C263.977 93.2879 264.364 91.0303 264.364 88.5455C264.364 86.0909 263.985 83.8788 263.227 81.9091C262.485 79.9242 261.356 78.3561 259.841 77.2045C258.341 76.0379 256.455 75.4545 254.182 75.4545C252 75.4545 250.167 76.0076 248.682 77.1136C247.197 78.2045 246.076 79.7348 245.318 81.7045C244.561 83.6591 244.182 85.9394 244.182 88.5455ZM293.091 71.0909V75.6364H275V71.0909H293.091ZM280.273 62.7273H285.636V96C285.636 97.5152 285.856 98.6515 286.295 99.4091C286.75 100.152 287.326 100.652 288.023 100.909C288.735 101.152 289.485 101.273 290.273 101.273C290.864 101.273 291.348 101.242 291.727 101.182C292.106 101.106 292.409 101.045 292.636 101L293.727 105.818C293.364 105.955 292.856 106.091 292.205 106.227C291.553 106.379 290.727 106.455 289.727 106.455C288.212 106.455 286.727 106.129 285.273 105.477C283.833 104.826 282.636 103.833 281.682 102.5C280.742 101.167 280.273 99.4848 280.273 97.4545V62.7273Z" fill="black"/>
</g>
</g>
<defs>
<filter id="filter0_d_611_85" x="0" y="0" width="608" height="508" filterUnits="userSpaceOnUse" color-interpolation-filters="sRGB">
<feFlood flood-opacity="0" result="BackgroundImageFix"/>
<feColorMatrix in="SourceAlpha" type="matrix" values="0 0 0 0 0 0 0 0 0 0 0 0 0 0 0 0 0 0 127 0" result="hardAlpha"/>
<feOffset dy="4"/>
<feGaussianBlur stdDeviation="2"/>
<feColorMatrix type="matrix" values="0 0 0 0 0 0 0 0 0 0 0 0 0 0 0 0 0 0 0.25 0"/>
<feBlend mode="normal" in2="BackgroundImageFix" result="effect1_dropShadow_611_85"/>
<feBlend mode="normal" in="SourceGraphic" in2="effect1_dropShadow_611_85" result="shape"/>
</filter>
<clipPath id="clip0_611_85">
<rect x="4" width="600" height="500" rx="70" fill="white"/>
</clipPath>
</defs>
</svg>
