<svg width="608" height="508" viewBox="0 0 608 508" fill="none" xmlns="http://www.w3.org/2000/svg">
<g filter="url(#filter0_d_611_103)">
<g clip-path="url(#clip0_611_103)">
<rect x="4" width="600" height="500" rx="70" fill="white"/>
<path d="M4 280.997L605 127.724V490C605 495.523 600.523 500 595 500H14C8.47715 500 4 495.523 4 490V280.997Z" fill="#06B6D4"/>
<path d="M4 280.997L605 127.724V490C605 495.523 600.523 500 595 500H14C8.47715 500 4 495.523 4 490V280.997Z" fill="#111827"/>
<path d="M53.6364 106V59.4545H69.3636C73 59.4545 75.9848 60.0758 78.3182 61.3182C80.6515 62.5455 82.3788 64.2348 83.5 66.3864C84.6212 68.5379 85.1818 70.9848 85.1818 73.7273C85.1818 76.4697 84.6212 78.9015 83.5 81.0227C82.3788 83.1439 80.6591 84.8106 78.3409 86.0227C76.0227 87.2197 73.0606 87.8182 69.4545 87.8182H56.7273V82.7273H69.2727C71.7576 82.7273 73.7576 82.3636 75.2727 81.6364C76.803 80.9091 77.9091 79.8788 78.5909 78.5455C79.2879 77.197 79.6364 75.5909 79.6364 73.7273C79.6364 71.8636 79.2879 70.2348 78.5909 68.8409C77.8939 67.447 76.7803 66.3712 75.25 65.6136C73.7197 64.8409 71.697 64.4545 69.1818 64.4545H59.2727V106H53.6364ZM75.5455 85.0909L87 106H80.4545L69.1818 85.0909H75.5455ZM115.847 91.7273V71.0909H121.21V106H115.847V100.091H115.483C114.665 101.864 113.392 103.371 111.665 104.614C109.938 105.841 107.756 106.455 105.119 106.455C102.938 106.455 100.998 105.977 99.3011 105.023C97.6042 104.053 96.2708 102.598 95.3011 100.659C94.3314 98.7045 93.8466 96.2424 93.8466 93.2727V71.0909H99.2102V92.9091C99.2102 95.4545 99.9223 97.4848 101.347 99C102.786 100.515 104.619 101.273 106.847 101.273C108.18 101.273 109.536 100.932 110.915 100.25C112.309 99.5682 113.475 98.5227 114.415 97.1136C115.369 95.7045 115.847 93.9091 115.847 91.7273ZM155.761 78.9091L150.943 80.2727C150.64 79.4697 150.193 78.6894 149.602 77.9318C149.027 77.1591 148.239 76.5227 147.239 76.0227C146.239 75.5227 144.958 75.2727 143.398 75.2727C141.261 75.2727 139.481 75.7652 138.057 76.75C136.648 77.7197 135.943 78.9545 135.943 80.4545C135.943 81.7879 136.428 82.8409 137.398 83.6136C138.367 84.3864 139.883 85.0303 141.943 85.5455L147.125 86.8182C150.246 87.5758 152.572 88.7348 154.102 90.2955C155.633 91.8409 156.398 93.8333 156.398 96.2727C156.398 98.2727 155.822 100.061 154.67 101.636C153.534 103.212 151.943 104.455 149.898 105.364C147.852 106.273 145.473 106.727 142.761 106.727C139.201 106.727 136.254 105.955 133.92 104.409C131.587 102.864 130.11 100.606 129.489 97.6364L134.58 96.3636C135.064 98.2424 135.981 99.6515 137.33 100.591C138.693 101.53 140.473 102 142.67 102C145.17 102 147.155 101.47 148.625 100.409C150.11 99.3333 150.852 98.0455 150.852 96.5455C150.852 95.3333 150.428 94.3182 149.58 93.5C148.731 92.6667 147.428 92.0455 145.67 91.6364L139.852 90.2727C136.655 89.5152 134.307 88.3409 132.807 86.75C131.322 85.1439 130.58 83.1364 130.58 80.7273C130.58 78.7576 131.133 77.0152 132.239 75.5C133.36 73.9848 134.883 72.7955 136.807 71.9318C138.746 71.0682 140.943 70.6364 143.398 70.6364C146.852 70.6364 149.564 71.3939 151.534 72.9091C153.519 74.4242 154.928 76.4242 155.761 78.9091ZM179.653 71.0909V75.6364H161.562V71.0909H179.653ZM166.835 62.7273H172.199V96C172.199 97.5152 172.419 98.6515 172.858 99.4091C173.313 100.152 173.888 100.652 174.585 100.909C175.297 101.152 176.047 101.273 176.835 101.273C177.426 101.273 177.911 101.242 178.29 101.182C178.669 101.106 178.972 101.045 179.199 101L180.29 105.818C179.926 105.955 179.419 106.091 178.767 106.227C178.116 106.379 177.29 106.455 176.29 106.455C174.775 106.455 173.29 106.129 171.835 105.477C170.396 104.826 169.199 103.833 168.244 102.5C167.305 101.167 166.835 99.4848 166.835 97.4545V62.7273Z" fill="black"/>
</g>
</g>
<defs>
<filter id="filter0_d_611_103" x="0" y="0" width="608" height="508" filterUnits="userSpaceOnUse" color-interpolation-filters="sRGB">
<feFlood flood-opacity="0" result="BackgroundImageFix"/>
<feColorMatrix in="SourceAlpha" type="matrix" values="0 0 0 0 0 0 0 0 0 0 0 0 0 0 0 0 0 0 127 0" result="hardAlpha"/>
<feOffset dy="4"/>
<feGaussianBlur stdDeviation="2"/>
<feColorMatrix type="matrix" values="0 0 0 0 0 0 0 0 0 0 0 0 0 0 0 0 0 0 0.25 0"/>
<feBlend mode="normal" in2="BackgroundImageFix" result="effect1_dropShadow_611_103"/>
<feBlend mode="normal" in="SourceGraphic" in2="effect1_dropShadow_611_103" result="shape"/>
</filter>
<clipPath id="clip0_611_103">
<rect x="4" width="600" height="500" rx="70" fill="white"/>
</clipPath>
</defs>
</svg>
