<svg width="608" height="508" viewBox="0 0 608 508" fill="none" xmlns="http://www.w3.org/2000/svg">
<g filter="url(#filter0_d_513_142)">
<g clip-path="url(#clip0_513_142)">
<rect x="4" width="600" height="500" rx="70" fill="white"/>
<path d="M4 280.997L605 127.724V490C605 495.523 600.523 500 595 500H14C8.47715 500 4 495.523 4 490V280.997Z" fill="#06B6D4"/>
<path d="M4 280.997L605 127.724V490C605 495.523 600.523 500 595 500H14C8.47715 500 4 495.523 4 490V280.997Z" fill="#111827"/>
<path d="M109.506 44.7401H169.861V49.0027H115.039V81.0839H166.592V85.3464H115.039V120.569H170.49V124.831H109.506V44.7401ZM175.268 44.7401H181.681L210.098 79.9622L239.144 44.7401L278.651 0L213.744 83.6639L247.191 124.831H240.527L210.098 87.3655L179.543 124.831H173.005L206.703 83.6639L175.268 44.7401ZM249.58 49.0027V44.7401H318.36V49.0027H286.673V124.831H281.141V49.0027H249.58Z" fill="black"/>
<path d="M34 44.7401H40.9157L136.279 171.54L96.8697 124.831L39.784 50.7974L39.5325 124.831H34V44.7401Z" fill="black"/>
<path d="M317.802 119.282C318.946 119.282 319.78 118.504 319.78 117.498C319.78 116.492 318.946 115.714 317.802 115.714C316.672 115.714 315.824 116.492 315.824 117.498C315.824 118.504 316.672 119.282 317.802 119.282ZM323.239 114.589C323.239 117.558 325.647 119.498 329.16 119.498C332.9 119.498 335.161 117.498 335.161 114.026V101.802H332.147V114.014C332.147 115.942 331.057 116.971 329.133 116.971C327.41 116.971 326.239 116.014 326.199 114.589H323.239ZM339.104 114.433C339.319 117.522 342.212 119.498 346.518 119.498C351.12 119.498 354 117.426 354 114.122C354 111.524 352.358 110.087 348.375 109.261L346.236 108.794C343.706 108.267 342.683 107.561 342.683 106.328C342.683 104.771 344.271 103.754 346.653 103.754C348.914 103.754 350.474 104.747 350.757 106.34H353.691C353.516 103.43 350.636 101.383 346.693 101.383C342.454 101.383 339.629 103.43 339.629 106.507C339.629 109.046 341.23 110.554 344.742 111.284L347.245 111.823C349.815 112.362 350.945 113.152 350.945 114.469C350.945 116.002 349.169 117.115 346.747 117.115C344.15 117.115 342.347 116.073 342.091 114.433H339.104Z" fill="black"/>
</g>
</g>
<defs>
<filter id="filter0_d_513_142" x="0" y="0" width="608" height="508" filterUnits="userSpaceOnUse" color-interpolation-filters="sRGB">
<feFlood flood-opacity="0" result="BackgroundImageFix"/>
<feColorMatrix in="SourceAlpha" type="matrix" values="0 0 0 0 0 0 0 0 0 0 0 0 0 0 0 0 0 0 127 0" result="hardAlpha"/>
<feOffset dy="4"/>
<feGaussianBlur stdDeviation="2"/>
<feColorMatrix type="matrix" values="0 0 0 0 0 0 0 0 0 0 0 0 0 0 0 0 0 0 0.25 0"/>
<feBlend mode="normal" in2="BackgroundImageFix" result="effect1_dropShadow_513_142"/>
<feBlend mode="normal" in="SourceGraphic" in2="effect1_dropShadow_513_142" result="shape"/>
</filter>
<clipPath id="clip0_513_142">
<rect x="4" width="600" height="500" rx="70" fill="white"/>
</clipPath>
</defs>
</svg>
