<svg width="608" height="508" viewBox="0 0 608 508" fill="none" xmlns="http://www.w3.org/2000/svg">
<g filter="url(#filter0_d_513_148)">
<g clip-path="url(#clip0_513_148)">
<rect x="4" width="600" height="500" rx="70" fill="white"/>
<path d="M4 280.997L605 127.724V490C605 495.523 600.523 500 595 500H14C8.47715 500 4 495.523 4 490V280.997Z" fill="#111827"/>
<path d="M181.641 106.234L175.678 102.539C175.627 101.957 175.57 101.377 175.508 100.8L180.643 96.0181C181.165 95.5317 181.398 94.8117 181.257 94.1162C181.12 93.4166 180.629 92.8406 179.962 92.5947L173.401 90.1494C173.236 89.5815 173.064 89.0178 172.887 88.4513L176.976 82.7728C177.393 82.1954 177.479 81.4442 177.207 80.7894C176.936 80.1332 176.342 79.6632 175.645 79.5477L168.73 78.4229C168.461 77.8985 168.181 77.3823 167.899 76.8742L170.806 70.4893C171.104 69.84 171.042 69.0901 170.646 68.4923C170.25 67.9 169.581 67.5536 168.866 67.5808L161.843 67.8253C161.48 67.3716 161.11 66.9219 160.734 66.4804L162.351 59.6472C162.514 58.953 162.309 58.2208 161.803 57.7181C161.302 57.2155 160.574 57.0077 159.874 57.1707L153.041 58.7873C152.598 58.4123 152.149 58.0415 151.693 57.6788L151.939 50.6554C151.966 49.9449 151.62 49.2697 151.028 48.8757C150.434 48.4791 149.683 48.4193 149.031 48.7141L142.659 51.6212C142.145 51.3387 141.628 51.0588 141.111 50.7885L139.983 43.8738C139.869 43.1728 139.399 42.5778 138.742 42.3115C138.085 42.0384 137.329 42.1268 136.758 42.5424L131.08 46.6315C130.52 46.4535 129.958 46.2824 129.395 46.1194L126.95 39.5578C126.701 38.8895 126.125 38.3991 125.428 38.2605C124.73 38.1233 124.016 38.3556 123.526 38.8745L118.745 44.0096C118.167 43.9458 117.586 43.8874 117.006 43.8398L113.311 37.8624C112.937 37.2579 112.275 36.8898 111.558 36.8898C110.841 36.8898 110.186 37.2579 109.819 37.8624L106.124 43.8398C105.543 43.8874 104.961 43.9458 104.385 44.0096L99.6035 38.8745C99.1185 38.3556 98.3985 38.1233 97.7016 38.2605C97.002 38.4004 96.426 38.8895 96.1801 39.5578L93.7348 46.1194C93.1669 46.2824 92.6045 46.4549 92.0503 46.6315L86.3718 42.5424C85.7944 42.1254 85.0418 42.0371 84.3884 42.3115C83.7322 42.5832 83.2608 43.1782 83.1467 43.8738L82.0192 50.7885C81.4975 51.0588 80.9813 51.3373 80.4705 51.6212L74.0992 48.7141C73.4512 48.4179 72.6999 48.4791 72.1022 48.8757C71.5099 49.2697 71.1635 49.9449 71.1906 50.6554L71.4352 57.6788C70.9814 58.0415 70.5318 58.4123 70.0875 58.7873L63.2543 57.1707C62.5601 57.009 61.8279 57.2155 61.3253 57.7181C60.8199 58.2221 60.6148 58.9489 60.7778 59.6472L62.3808 66.4804C62.0072 66.9233 61.6377 67.3716 61.275 67.8253L54.2516 67.5808C53.5438 67.5604 52.866 67.9 52.472 68.4923C52.0753 69.0819 52.0155 69.8372 52.3103 70.4893L55.2175 76.8742C54.9349 77.3864 54.6551 77.9026 54.3848 78.4229L47.47 79.5477C46.7677 79.6618 46.1754 80.1319 45.9078 80.7894C45.6361 81.4483 45.7244 82.2022 46.1387 82.7728L50.2278 88.4513C50.0498 89.0123 49.8773 89.5761 49.7143 90.1494L43.1527 92.5947C42.4871 92.8433 41.9967 93.4193 41.8581 94.1162C41.7195 94.8145 41.9518 95.529 42.4721 96.0181L47.6072 100.8C47.5434 101.377 47.4863 101.959 47.4374 102.539L41.4737 106.234C40.8691 106.608 40.501 107.268 40.501 107.986C40.501 108.705 40.8691 109.358 41.4737 109.725L47.4374 113.42C47.4863 114.002 47.5434 114.582 47.6072 115.159L42.4721 119.941C41.9518 120.426 41.7195 121.146 41.8581 121.843C41.9967 122.543 42.4871 123.117 43.1527 123.364L49.7143 125.81C49.8773 126.378 50.0498 126.941 50.2278 127.508L46.1387 133.186C45.723 133.765 45.6347 134.516 45.9078 135.17C46.1808 135.829 46.7745 136.299 47.4836 136.411L54.3983 137.536C54.6687 138.061 54.9458 138.577 55.2311 139.085L52.3239 145.456C52.0278 146.104 52.0889 146.856 52.4856 147.453C52.8823 148.047 53.5574 148.393 54.2652 148.365L61.275 148.119C61.6404 148.575 62.0086 149.022 62.3835 149.467L60.7805 156.3C60.6175 156.993 60.8226 157.713 61.328 158.215C61.8293 158.722 62.5588 158.924 63.2571 158.761L70.0903 157.158C70.5345 157.536 70.9841 157.903 71.4379 158.264L71.1934 165.288C71.1662 165.998 71.5126 166.673 72.1049 167.067C72.6945 167.462 73.4498 167.522 74.1019 167.226L80.4732 164.319C80.9867 164.604 81.5029 164.881 82.0219 165.152L83.1494 172.066C83.2635 172.77 83.7336 173.365 84.3911 173.642C85.0472 173.915 85.8039 173.827 86.3745 173.413L92.053 169.324C92.614 169.502 93.1778 169.675 93.7511 169.838L96.1964 176.4C96.445 177.066 97.021 177.559 97.7179 177.695C98.4161 177.836 99.1307 177.602 99.6198 177.081L104.402 171.945C104.979 172.012 105.56 172.068 106.141 172.119L109.836 178.083C110.208 178.685 110.869 179.056 111.574 179.056C112.28 179.056 112.947 178.686 113.327 178.083L117.022 172.119C117.603 172.068 118.184 172.012 118.761 171.945L123.543 177.081C124.028 177.602 124.748 177.836 125.445 177.695C126.144 177.557 126.72 177.066 126.966 176.4L129.411 169.838C129.979 169.675 130.543 169.502 131.11 169.324L136.788 173.413C137.365 173.827 138.118 173.915 138.771 173.642C139.429 173.372 139.899 172.776 140.013 172.066L141.141 165.152C141.662 164.881 142.179 164.6 142.689 164.319L149.061 167.226C149.709 167.522 150.46 167.462 151.058 167.067C151.65 166.67 151.995 165.998 151.969 165.288L151.725 158.264C152.178 157.901 152.628 157.536 153.071 157.158L159.904 158.761C160.598 158.924 161.331 158.722 161.833 158.215C162.339 157.711 162.544 156.987 162.381 156.3L160.778 149.467C161.153 149.022 161.522 148.575 161.883 148.119L168.907 148.365C169.615 148.393 170.293 148.047 170.686 147.453C171.083 146.861 171.144 146.107 170.847 145.456L167.94 139.085C168.224 138.57 168.502 138.054 168.771 137.536L175.686 136.411C176.389 136.299 176.982 135.829 177.248 135.17C177.52 134.514 177.434 133.757 177.017 133.186L172.928 127.508C173.105 126.947 173.277 126.383 173.441 125.81L180.003 123.364C180.67 123.115 181.162 122.54 181.298 121.843C181.439 121.145 181.205 120.43 180.684 119.941L175.549 115.159C175.611 114.582 175.668 114 175.718 113.42L181.682 109.725C182.287 109.353 182.655 108.691 182.655 107.986C182.655 107.281 182.288 106.614 181.683 106.234H181.641ZM141.702 155.819C139.419 155.327 137.979 153.075 138.469 150.792C138.956 148.51 141.199 147.057 143.481 147.546C145.764 148.033 147.217 150.29 146.728 152.572C146.239 154.854 143.998 156.308 141.715 155.819H141.702ZM139.678 142.098C137.599 141.652 135.548 142.976 135.113 145.06L132.994 154.949C126.459 157.911 119.137 159.568 111.53 159.568C103.705 159.568 96.3146 157.843 89.658 154.746L87.5387 144.856C87.0931 142.777 85.0527 141.446 82.9742 141.894L74.2391 143.769C72.6225 142.098 71.1146 140.318 69.7289 138.444H112.25C112.731 138.444 113.051 138.357 113.051 137.919V122.84C113.051 122.403 112.731 122.316 112.25 122.316H99.8195V112.793H113.255C114.482 112.793 119.816 113.143 121.515 119.966C122.048 122.058 123.226 128.877 124.028 131.064C124.827 133.51 128.076 138.4 131.54 138.4H152.733C152.973 138.4 153.23 138.373 153.5 138.324C152.033 140.321 150.416 142.209 148.691 143.976L139.752 142.06L139.678 142.098ZM80.8549 155.615C78.5727 156.107 76.3312 154.653 75.8421 152.368C75.3544 150.086 76.8039 147.831 79.0889 147.342C81.3712 146.854 83.6127 148.308 84.1017 150.589C84.5894 152.871 83.1386 155.126 80.8549 155.615ZM64.6889 90.2717C65.6344 92.4045 64.6726 94.9041 62.5425 95.8551C60.4097 96.8019 57.9236 95.8387 56.9727 93.7086C56.0217 91.5785 56.989 89.0762 59.1191 88.1252C61.2519 87.1797 63.738 88.1415 64.6889 90.2717ZM59.7304 102.009L68.8323 97.9607C70.7749 97.0981 71.658 94.8226 70.7885 92.88L68.9138 88.6415H76.2768V121.789H61.4693C60.1801 117.251 59.4859 112.469 59.4859 107.524C59.4859 105.636 59.5878 103.775 59.7834 101.941L59.7304 102.009ZM99.67 98.7894V89.0083H117.195C118.101 89.0083 123.593 90.0557 123.593 94.1569C123.593 97.5668 119.382 98.7894 115.918 98.7894H99.6157H99.67ZM163.383 107.592C163.383 108.891 163.336 110.174 163.241 111.451H157.902C157.368 111.451 157.153 111.801 157.153 112.324V114.769C157.153 120.529 153.906 121.793 151.054 122.105C148.337 122.411 145.334 120.969 144.968 119.307C143.365 110.3 140.702 108.384 136.491 105.043C141.721 101.728 147.155 96.8237 147.155 90.235C147.155 83.1572 142.305 78.7014 139.004 76.5142C134.358 73.4576 129.223 72.8463 127.837 72.8463H72.6823C80.1675 64.5052 90.3426 58.5821 101.754 56.4086L108.261 63.2282C109.728 64.7633 112.16 64.8312 113.709 63.3532L120.99 56.3977C136.205 59.2369 149.111 68.7192 156.583 81.8015L151.597 93.0498C150.737 94.9924 151.615 97.2747 153.553 98.1305L163.144 102.396C163.31 104.094 163.397 105.82 163.397 107.558L163.383 107.592ZM108.229 50.6717C109.913 49.0551 112.589 49.123 114.192 50.8089C115.795 52.4934 115.741 55.1696 114.052 56.7862C112.368 58.4028 109.692 58.3349 108.089 56.6477C106.486 54.9631 106.54 52.2869 108.229 50.6703V50.6717ZM157.678 90.4754C158.622 88.3426 161.115 87.3781 163.247 88.329C165.38 89.2745 166.345 91.7796 165.394 93.9124C164.45 96.0452 161.957 97.0098 159.824 96.0588C157.691 95.1133 156.727 92.6083 157.678 90.4754Z" fill="#111827"/>
</g>
</g>
<defs>
<filter id="filter0_d_513_148" x="0" y="0" width="608" height="508" filterUnits="userSpaceOnUse" color-interpolation-filters="sRGB">
<feFlood flood-opacity="0" result="BackgroundImageFix"/>
<feColorMatrix in="SourceAlpha" type="matrix" values="0 0 0 0 0 0 0 0 0 0 0 0 0 0 0 0 0 0 127 0" result="hardAlpha"/>
<feOffset dy="4"/>
<feGaussianBlur stdDeviation="2"/>
<feColorMatrix type="matrix" values="0 0 0 0 0 0 0 0 0 0 0 0 0 0 0 0 0 0 0.25 0"/>
<feBlend mode="normal" in2="BackgroundImageFix" result="effect1_dropShadow_513_148"/>
<feBlend mode="normal" in="SourceGraphic" in2="effect1_dropShadow_513_148" result="shape"/>
</filter>
<clipPath id="clip0_513_148">
<rect x="4" width="600" height="500" rx="70" fill="white"/>
</clipPath>
</defs>
</svg>
