<svg width="608" height="508" viewBox="0 0 608 508" fill="none" xmlns="http://www.w3.org/2000/svg">
<g filter="url(#filter0_d_513_148)">
<g clip-path="url(#clip0_513_148)">
<rect x="4" width="600" height="500" rx="70" fill="white"/>
<path d="M4 280.997L605 127.724V490C605 495.523 600.523 500 595 500H14C8.47715 500 4 495.523 4 490V280.997Z" fill="#111827"/>
<path d="M182.641 106.234L176.678 102.539C176.627 101.957 176.57 101.377 176.508 100.8L181.643 96.0181C182.165 95.5317 182.398 94.8117 182.257 94.1162C182.12 93.4166 181.629 92.8406 180.962 92.5947L174.401 90.1494C174.236 89.5815 174.064 89.0178 173.887 88.4513L177.976 82.7728C178.393 82.1954 178.479 81.4442 178.207 80.7894C177.936 80.1332 177.342 79.6632 176.645 79.5477L169.73 78.4229C169.461 77.8985 169.181 77.3823 168.899 76.8742L171.806 70.4893C172.104 69.84 172.042 69.0901 171.646 68.4923C171.25 67.9 170.581 67.5536 169.866 67.5808L162.843 67.8253C162.48 67.3716 162.11 66.9219 161.734 66.4804L163.351 59.6472C163.514 58.953 163.309 58.2208 162.803 57.7181C162.302 57.2155 161.574 57.0077 160.874 57.1707L154.041 58.7873C153.598 58.4123 153.149 58.0415 152.693 57.6788L152.939 50.6554C152.966 49.9449 152.62 49.2697 152.028 48.8757C151.434 48.4791 150.683 48.4193 150.031 48.7141L143.659 51.6212C143.145 51.3387 142.628 51.0588 142.111 50.7885L140.983 43.8738C140.869 43.1728 140.399 42.5778 139.742 42.3115C139.085 42.0384 138.329 42.1268 137.758 42.5424L132.08 46.6315C131.52 46.4535 130.958 46.2824 130.395 46.1194L127.95 39.5578C127.701 38.8895 127.125 38.3991 126.428 38.2605C125.73 38.1233 125.016 38.3556 124.526 38.8745L119.745 44.0096C119.167 43.9458 118.586 43.8874 118.006 43.8398L114.311 37.8624C113.937 37.2579 113.275 36.8898 112.558 36.8898C111.841 36.8898 111.186 37.2579 110.819 37.8624L107.124 43.8398C106.543 43.8874 105.961 43.9458 105.385 44.0096L100.603 38.8745C100.118 38.3556 99.3985 38.1233 98.7016 38.2605C98.002 38.4004 97.426 38.8895 97.1801 39.5578L94.7348 46.1194C94.1669 46.2824 93.6045 46.4549 93.0503 46.6315L87.3718 42.5424C86.7944 42.1254 86.0418 42.0371 85.3884 42.3115C84.7322 42.5832 84.2608 43.1782 84.1467 43.8738L83.0192 50.7885C82.4975 51.0588 81.9813 51.3373 81.4705 51.6212L75.0992 48.7141C74.4512 48.4179 73.6999 48.4791 73.1022 48.8757C72.5099 49.2697 72.1635 49.9449 72.1906 50.6554L72.4352 57.6788C71.9814 58.0415 71.5318 58.4123 71.0875 58.7873L64.2543 57.1707C63.5601 57.009 62.8279 57.2155 62.3253 57.7181C61.8199 58.2221 61.6148 58.9489 61.7778 59.6472L63.3808 66.4804C63.0072 66.9233 62.6377 67.3716 62.275 67.8253L55.2516 67.5808C54.5438 67.5604 53.866 67.9 53.472 68.4923C53.0753 69.0819 53.0155 69.8372 53.3103 70.4893L56.2175 76.8742C55.9349 77.3864 55.6551 77.9026 55.3848 78.4229L48.47 79.5477C47.7677 79.6618 47.1754 80.1319 46.9078 80.7894C46.6361 81.4483 46.7244 82.2022 47.1387 82.7728L51.2278 88.4513C51.0498 89.0123 50.8773 89.5761 50.7143 90.1494L44.1527 92.5947C43.4871 92.8433 42.9967 93.4193 42.8581 94.1162C42.7195 94.8144 42.9518 95.529 43.4721 96.0181L48.6072 100.8C48.5434 101.377 48.4863 101.959 48.4374 102.539L42.4737 106.234C41.8691 106.608 41.501 107.268 41.501 107.986C41.501 108.705 41.8691 109.358 42.4737 109.725L48.4374 113.42C48.4863 114.002 48.5434 114.582 48.6072 115.159L43.4721 119.941C42.9518 120.426 42.7195 121.146 42.8581 121.843C42.9967 122.543 43.4871 123.117 44.1527 123.364L50.7143 125.81C50.8773 126.378 51.0498 126.941 51.2278 127.508L47.1387 133.186C46.723 133.765 46.6347 134.516 46.9078 135.17C47.1808 135.829 47.7745 136.299 48.4836 136.411L55.3983 137.536C55.6687 138.061 55.9458 138.577 56.2311 139.085L53.3239 145.456C53.0278 146.104 53.0889 146.856 53.4856 147.453C53.8823 148.047 54.5574 148.393 55.2652 148.365L62.275 148.119C62.6404 148.575 63.0086 149.022 63.3835 149.467L61.7805 156.3C61.6175 156.993 61.8226 157.713 62.328 158.215C62.8293 158.722 63.5588 158.924 64.2571 158.761L71.0903 157.158C71.5345 157.536 71.9841 157.903 72.4379 158.264L72.1934 165.288C72.1662 165.998 72.5126 166.673 73.1049 167.067C73.6945 167.462 74.4498 167.522 75.1019 167.226L81.4732 164.319C81.9867 164.604 82.5029 164.881 83.0219 165.152L84.1494 172.066C84.2635 172.77 84.7336 173.365 85.3911 173.642C86.0472 173.915 86.8039 173.827 87.3745 173.413L93.053 169.324C93.614 169.502 94.1778 169.675 94.7511 169.838L97.1964 176.4C97.445 177.066 98.021 177.559 98.7179 177.695C99.4161 177.836 100.131 177.602 100.62 177.081L105.402 171.945C105.979 172.012 106.56 172.068 107.141 172.119L110.836 178.083C111.208 178.685 111.869 179.056 112.574 179.056C113.28 179.056 113.947 178.686 114.327 178.083L118.022 172.119C118.603 172.068 119.184 172.012 119.761 171.945L124.543 177.081C125.028 177.602 125.748 177.836 126.445 177.695C127.144 177.557 127.72 177.066 127.966 176.4L130.411 169.838C130.979 169.675 131.543 169.502 132.11 169.324L137.788 173.413C138.365 173.827 139.118 173.915 139.771 173.642C140.429 173.372 140.899 172.776 141.013 172.066L142.141 165.152C142.662 164.881 143.179 164.6 143.689 164.319L150.061 167.226C150.709 167.522 151.46 167.462 152.058 167.067C152.65 166.67 152.995 165.998 152.969 165.288L152.725 158.264C153.178 157.901 153.628 157.536 154.071 157.158L160.904 158.761C161.598 158.924 162.331 158.722 162.833 158.215C163.339 157.711 163.544 156.987 163.381 156.3L161.778 149.467C162.153 149.022 162.522 148.575 162.883 148.119L169.907 148.365C170.615 148.393 171.293 148.047 171.686 147.453C172.083 146.861 172.144 146.107 171.847 145.456L168.94 139.085C169.224 138.57 169.502 138.054 169.771 137.536L176.686 136.411C177.389 136.299 177.982 135.829 178.248 135.17C178.52 134.514 178.434 133.757 178.017 133.186L173.928 127.508C174.105 126.947 174.277 126.383 174.441 125.81L181.003 123.364C181.67 123.115 182.162 122.54 182.298 121.843C182.439 121.145 182.205 120.43 181.684 119.941L176.549 115.159C176.611 114.582 176.668 114 176.718 113.42L182.682 109.725C183.287 109.353 183.655 108.691 183.655 107.986C183.655 107.281 183.288 106.614 182.683 106.234H182.641ZM142.702 155.819C140.419 155.327 138.979 153.075 139.469 150.792C139.956 148.51 142.199 147.057 144.481 147.546C146.764 148.033 148.217 150.29 147.728 152.572C147.239 154.854 144.998 156.308 142.715 155.819H142.702ZM140.678 142.098C138.599 141.652 136.548 142.976 136.113 145.06L133.994 154.949C127.459 157.911 120.137 159.568 112.53 159.568C104.705 159.568 97.3146 157.843 90.658 154.746L88.5387 144.856C88.0931 142.777 86.0527 141.446 83.9742 141.894L75.2391 143.769C73.6225 142.098 72.1146 140.318 70.7289 138.444H113.25C113.731 138.444 114.051 138.357 114.051 137.919V122.84C114.051 122.403 113.731 122.316 113.25 122.316H100.819V112.793H114.255C115.482 112.793 120.816 113.143 122.515 119.966C123.048 122.058 124.226 128.877 125.028 131.064C125.827 133.51 129.076 138.4 132.54 138.4H153.733C153.973 138.4 154.23 138.373 154.5 138.324C153.033 140.321 151.416 142.209 149.691 143.976L140.752 142.06L140.678 142.098ZM81.8549 155.615C79.5727 156.107 77.3312 154.653 76.8421 152.368C76.3544 150.086 77.8039 147.831 80.0889 147.342C82.3712 146.854 84.6127 148.308 85.1017 150.589C85.5894 152.871 84.1386 155.126 81.8549 155.615ZM65.6889 90.2717C66.6344 92.4045 65.6726 94.9041 63.5425 95.8551C61.4097 96.8019 58.9236 95.8387 57.9727 93.7086C57.0217 91.5785 57.989 89.0762 60.1191 88.1252C62.2519 87.1797 64.738 88.1415 65.6889 90.2717ZM60.7304 102.009L69.8323 97.9607C71.7749 97.0981 72.658 94.8226 71.7885 92.88L69.9138 88.6415H77.2768V121.789H62.4693C61.1801 117.251 60.4859 112.469 60.4859 107.524C60.4859 105.636 60.5878 103.775 60.7834 101.941L60.7304 102.009ZM100.67 98.7894V89.0083H118.195C119.101 89.0083 124.593 90.0557 124.593 94.1569C124.593 97.5667 120.382 98.7894 116.918 98.7894H100.616H100.67ZM164.383 107.592C164.383 108.891 164.336 110.174 164.241 111.451H158.902C158.368 111.451 158.153 111.801 158.153 112.324V114.769C158.153 120.529 154.906 121.793 152.054 122.105C149.337 122.411 146.334 120.969 145.968 119.307C144.365 110.3 141.702 108.384 137.491 105.043C142.721 101.728 148.155 96.8237 148.155 90.235C148.155 83.1572 143.305 78.7014 140.004 76.5142C135.358 73.4576 130.223 72.8463 128.837 72.8463H73.6823C81.1675 64.5052 91.3426 58.5821 102.754 56.4086L109.261 63.2282C110.728 64.7633 113.16 64.8312 114.709 63.3532L121.99 56.3977C137.205 59.2369 150.111 68.7192 157.583 81.8015L152.597 93.0498C151.737 94.9924 152.615 97.2747 154.553 98.1305L164.144 102.396C164.31 104.094 164.397 105.82 164.397 107.558L164.383 107.592ZM109.229 50.6717C110.913 49.0551 113.589 49.123 115.192 50.8089C116.795 52.4934 116.741 55.1696 115.052 56.7862C113.368 58.4028 110.692 58.3349 109.089 56.6477C107.486 54.9631 107.54 52.2869 109.229 50.6703V50.6717ZM158.678 90.4754C159.622 88.3426 162.115 87.3781 164.247 88.329C166.38 89.2745 167.345 91.7796 166.394 93.9124C165.45 96.0452 162.957 97.0098 160.824 96.0588C158.691 95.1133 157.727 92.6083 158.678 90.4754Z" fill="#111827"/>
</g>
</g>
<defs>
<filter id="filter0_d_513_148" x="0" y="0" width="608" height="508" filterUnits="userSpaceOnUse" color-interpolation-filters="sRGB">
<feFlood flood-opacity="0" result="BackgroundImageFix"/>
<feColorMatrix in="SourceAlpha" type="matrix" values="0 0 0 0 0 0 0 0 0 0 0 0 0 0 0 0 0 0 127 0" result="hardAlpha"/>
<feOffset dy="4"/>
<feGaussianBlur stdDeviation="2"/>
<feColorMatrix type="matrix" values="0 0 0 0 0 0 0 0 0 0 0 0 0 0 0 0 0 0 0.25 0"/>
<feBlend mode="normal" in2="BackgroundImageFix" result="effect1_dropShadow_513_148"/>
<feBlend mode="normal" in="SourceGraphic" in2="effect1_dropShadow_513_148" result="shape"/>
</filter>
<clipPath id="clip0_513_148">
<rect x="4" width="600" height="500" rx="70" fill="white"/>
</clipPath>
</defs>
</svg>
