<svg width="608" height="508" viewBox="0 0 608 508" fill="none" xmlns="http://www.w3.org/2000/svg">
<g filter="url(#filter0_d_611_131)">
<g clip-path="url(#clip0_611_131)">
<rect x="4" width="600" height="500" rx="70" fill="white"/>
<path d="M4 280.997L605 127.723V490C605 495.523 600.523 500 595 500H14C8.47715 500 4 495.523 4 490V280.997Z" fill="#06B6D4"/>
<path d="M4 280.998L605 127.724V490C605 495.523 600.523 500 595 500H14C8.47715 500 4 495.523 4 490V280.998Z" fill="#111827"/>
<path d="M79.0909 71.0909C78.8182 68.7879 77.7121 67 75.7727 65.7273C73.8333 64.4545 71.4545 63.8182 68.6364 63.8182C66.5758 63.8182 64.7727 64.1515 63.2273 64.8182C61.697 65.4848 60.5 66.4015 59.6364 67.5682C58.7879 68.7348 58.3636 70.0606 58.3636 71.5455C58.3636 72.7879 58.6591 73.8561 59.25 74.75C59.8561 75.6288 60.6288 76.3636 61.5682 76.9545C62.5076 77.5303 63.4924 78.0076 64.5227 78.3864C65.553 78.75 66.5 79.0455 67.3636 79.2727L72.0909 80.5455C73.303 80.8636 74.6515 81.303 76.1364 81.8636C77.6364 82.4242 79.0682 83.1894 80.4318 84.1591C81.8106 85.1136 82.947 86.3409 83.8409 87.8409C84.7349 89.3409 85.1818 91.1818 85.1818 93.3636C85.1818 95.8788 84.5227 98.1515 83.2045 100.182C81.9015 102.212 79.9924 103.826 77.4773 105.023C74.9773 106.22 71.9394 106.818 68.3636 106.818C65.0303 106.818 62.1439 106.28 59.7045 105.205C57.2803 104.129 55.3712 102.629 53.9773 100.705C52.5985 98.7803 51.8182 96.5455 51.6364 94H57.4545C57.6061 95.7576 58.197 97.2121 59.2273 98.3636C60.2727 99.5 61.5909 100.348 63.1818 100.909C64.7879 101.455 66.5152 101.727 68.3636 101.727C70.5152 101.727 72.447 101.379 74.1591 100.682C75.8712 99.9697 77.2273 98.9848 78.2273 97.7273C79.2273 96.4545 79.7273 94.9697 79.7273 93.2727C79.7273 91.7273 79.2955 90.4697 78.4318 89.5C77.5682 88.5303 76.4318 87.7424 75.0227 87.1364C73.6136 86.5303 72.0909 86 70.4545 85.5455L64.7273 83.9091C61.0909 82.8636 58.2121 81.3712 56.0909 79.4318C53.9697 77.4924 52.9091 74.9545 52.9091 71.8182C52.9091 69.2121 53.6136 66.9394 55.0227 65C56.447 63.0455 58.3561 61.5303 60.75 60.4545C63.1591 59.3636 65.8485 58.8182 68.8182 58.8182C71.8182 58.8182 74.4848 59.3561 76.8182 60.4318C79.1515 61.4924 81 62.947 82.3636 64.7955C83.7424 66.6439 84.4697 68.7424 84.5455 71.0909H79.0909ZM107.903 106.727C104.752 106.727 101.987 105.977 99.608 104.477C97.2443 102.977 95.3958 100.879 94.0625 98.1818C92.7443 95.4848 92.0852 92.3333 92.0852 88.7273C92.0852 85.0909 92.7443 81.9167 94.0625 79.2045C95.3958 76.4924 97.2443 74.3864 99.608 72.8864C101.987 71.3864 104.752 70.6364 107.903 70.6364C111.055 70.6364 113.813 71.3864 116.176 72.8864C118.555 74.3864 120.403 76.4924 121.722 79.2045C123.055 81.9167 123.722 85.0909 123.722 88.7273C123.722 92.3333 123.055 95.4848 121.722 98.1818C120.403 100.879 118.555 102.977 116.176 104.477C113.813 105.977 111.055 106.727 107.903 106.727ZM107.903 101.909C110.297 101.909 112.267 101.295 113.812 100.068C115.358 98.8409 116.502 97.2273 117.244 95.2273C117.987 93.2273 118.358 91.0606 118.358 88.7273C118.358 86.3939 117.987 84.2197 117.244 82.2045C116.502 80.1894 115.358 78.5606 113.812 77.3182C112.267 76.0758 110.297 75.4545 107.903 75.4545C105.509 75.4545 103.54 76.0758 101.994 77.3182C100.449 78.5606 99.3049 80.1894 98.5625 82.2045C97.8201 84.2197 97.4489 86.3939 97.4489 88.7273C97.4489 91.0606 97.8201 93.2273 98.5625 95.2273C99.3049 97.2273 100.449 98.8409 101.994 100.068C103.54 101.295 105.509 101.909 107.903 101.909ZM137.273 59.4545V106H131.909V59.4545H137.273ZM157.369 106.818C155.157 106.818 153.15 106.402 151.347 105.568C149.544 104.72 148.112 103.5 147.051 101.909C145.991 100.303 145.46 98.3636 145.46 96.0909C145.46 94.0909 145.854 92.4697 146.642 91.2273C147.43 89.9697 148.483 88.9848 149.801 88.2727C151.119 87.5606 152.574 87.0303 154.165 86.6818C155.771 86.3182 157.384 86.0303 159.006 85.8182C161.127 85.5455 162.847 85.3409 164.165 85.2045C165.498 85.053 166.468 84.803 167.074 84.4545C167.695 84.1061 168.006 83.5 168.006 82.6364V82.4545C168.006 80.2121 167.392 78.4697 166.165 77.2273C164.953 75.9848 163.112 75.3636 160.642 75.3636C158.081 75.3636 156.074 75.9242 154.619 77.0455C153.165 78.1667 152.142 79.3636 151.551 80.6364L146.46 78.8182C147.369 76.697 148.581 75.0455 150.097 73.8636C151.627 72.6667 153.294 71.8333 155.097 71.3636C156.915 70.8788 158.703 70.6364 160.46 70.6364C161.581 70.6364 162.869 70.7727 164.324 71.0455C165.794 71.303 167.21 71.8409 168.574 72.6591C169.953 73.4773 171.097 74.7121 172.006 76.3636C172.915 78.0152 173.369 80.2273 173.369 83V106H168.006V101.273H167.733C167.369 102.03 166.763 102.841 165.915 103.705C165.066 104.568 163.938 105.303 162.528 105.909C161.119 106.515 159.4 106.818 157.369 106.818ZM158.188 102C160.309 102 162.097 101.583 163.551 100.75C165.021 99.9167 166.127 98.8409 166.869 97.5227C167.627 96.2045 168.006 94.8182 168.006 93.3636V88.4545C167.778 88.7273 167.278 88.9773 166.506 89.2045C165.748 89.4167 164.869 89.6061 163.869 89.7727C162.884 89.9242 161.922 90.0606 160.983 90.1818C160.059 90.2879 159.309 90.3788 158.733 90.4545C157.339 90.6364 156.036 90.9318 154.824 91.3409C153.627 91.7348 152.657 92.3333 151.915 93.1364C151.188 93.9242 150.824 95 150.824 96.3636C150.824 98.2273 151.513 99.6364 152.892 100.591C154.286 101.53 156.051 102 158.188 102ZM188.523 85V106H183.159V71.0909H188.341V76.5455H188.795C189.614 74.7727 190.856 73.3485 192.523 72.2727C194.189 71.1818 196.341 70.6364 198.977 70.6364C201.341 70.6364 203.409 71.1212 205.182 72.0909C206.955 73.0455 208.333 74.5 209.318 76.4545C210.303 78.3939 210.795 80.8485 210.795 83.8182V106H205.432V84.1818C205.432 81.4394 204.72 79.303 203.295 77.7727C201.871 76.2273 199.917 75.4545 197.432 75.4545C195.72 75.4545 194.189 75.8258 192.841 76.5682C191.508 77.3106 190.455 78.3939 189.682 79.8182C188.909 81.2424 188.523 82.9697 188.523 85ZM230.869 106.818C228.657 106.818 226.65 106.402 224.847 105.568C223.044 104.72 221.612 103.5 220.551 101.909C219.491 100.303 218.96 98.3636 218.96 96.0909C218.96 94.0909 219.354 92.4697 220.142 91.2273C220.93 89.9697 221.983 88.9848 223.301 88.2727C224.619 87.5606 226.074 87.0303 227.665 86.6818C229.271 86.3182 230.884 86.0303 232.506 85.8182C234.627 85.5455 236.347 85.3409 237.665 85.2045C238.998 85.053 239.968 84.803 240.574 84.4545C241.195 84.1061 241.506 83.5 241.506 82.6364V82.4545C241.506 80.2121 240.892 78.4697 239.665 77.2273C238.453 75.9848 236.612 75.3636 234.142 75.3636C231.581 75.3636 229.574 75.9242 228.119 77.0455C226.665 78.1667 225.642 79.3636 225.051 80.6364L219.96 78.8182C220.869 76.697 222.081 75.0455 223.597 73.8636C225.127 72.6667 226.794 71.8333 228.597 71.3636C230.415 70.8788 232.203 70.6364 233.96 70.6364C235.081 70.6364 236.369 70.7727 237.824 71.0455C239.294 71.303 240.71 71.8409 242.074 72.6591C243.453 73.4773 244.597 74.7121 245.506 76.3636C246.415 78.0152 246.869 80.2273 246.869 83V106H241.506V101.273H241.233C240.869 102.03 240.263 102.841 239.415 103.705C238.566 104.568 237.438 105.303 236.028 105.909C234.619 106.515 232.9 106.818 230.869 106.818ZM231.688 102C233.809 102 235.597 101.583 237.051 100.75C238.521 99.9167 239.627 98.8409 240.369 97.5227C241.127 96.2045 241.506 94.8182 241.506 93.3636V88.4545C241.278 88.7273 240.778 88.9773 240.006 89.2045C239.248 89.4167 238.369 89.6061 237.369 89.7727C236.384 89.9242 235.422 90.0606 234.483 90.1818C233.559 90.2879 232.809 90.3788 232.233 90.4545C230.839 90.6364 229.536 90.9318 228.324 91.3409C227.127 91.7348 226.157 92.3333 225.415 93.1364C224.688 93.9242 224.324 95 224.324 96.3636C224.324 98.2273 225.013 99.6364 226.392 100.591C227.786 101.53 229.551 102 231.688 102Z" fill="black"/>
</g>
</g>
<defs>
<filter id="filter0_d_611_131" x="0" y="0" width="608" height="508" filterUnits="userSpaceOnUse" color-interpolation-filters="sRGB">
<feFlood flood-opacity="0" result="BackgroundImageFix"/>
<feColorMatrix in="SourceAlpha" type="matrix" values="0 0 0 0 0 0 0 0 0 0 0 0 0 0 0 0 0 0 127 0" result="hardAlpha"/>
<feOffset dy="4"/>
<feGaussianBlur stdDeviation="2"/>
<feColorMatrix type="matrix" values="0 0 0 0 0 0 0 0 0 0 0 0 0 0 0 0 0 0 0.25 0"/>
<feBlend mode="normal" in2="BackgroundImageFix" result="effect1_dropShadow_611_131"/>
<feBlend mode="normal" in="SourceGraphic" in2="effect1_dropShadow_611_131" result="shape"/>
</filter>
<clipPath id="clip0_611_131">
<rect x="4" width="600" height="500" rx="70" fill="white"/>
</clipPath>
</defs>
</svg>
