<svg width="608" height="508" viewBox="0 0 608 508" fill="none" xmlns="http://www.w3.org/2000/svg">
<g filter="url(#filter0_d_611_127)">
<g clip-path="url(#clip0_611_127)">
<rect x="4" width="600" height="500" rx="70" fill="white"/>
<path d="M4 280.997L605 127.723V490C605 495.523 600.523 500 595 500H14C8.47715 500 4 495.523 4 490V280.997Z" fill="#06B6D4"/>
<path d="M4 280.998L605 127.724V490C605 495.523 600.523 500 595 500H14C8.47715 500 4 495.523 4 490V280.998Z" fill="#111827"/>
<path d="M79.0909 71.0909C78.8182 68.7879 77.7121 67 75.7727 65.7273C73.8333 64.4545 71.4545 63.8182 68.6364 63.8182C66.5758 63.8182 64.7727 64.1515 63.2273 64.8182C61.697 65.4848 60.5 66.4015 59.6364 67.5682C58.7879 68.7348 58.3636 70.0606 58.3636 71.5455C58.3636 72.7879 58.6591 73.8561 59.25 74.75C59.8561 75.6288 60.6288 76.3636 61.5682 76.9545C62.5076 77.5303 63.4924 78.0076 64.5227 78.3864C65.553 78.75 66.5 79.0455 67.3636 79.2727L72.0909 80.5455C73.303 80.8636 74.6515 81.303 76.1364 81.8636C77.6364 82.4242 79.0682 83.1894 80.4318 84.1591C81.8106 85.1136 82.947 86.3409 83.8409 87.8409C84.7349 89.3409 85.1818 91.1818 85.1818 93.3636C85.1818 95.8788 84.5227 98.1515 83.2045 100.182C81.9015 102.212 79.9924 103.826 77.4773 105.023C74.9773 106.22 71.9394 106.818 68.3636 106.818C65.0303 106.818 62.1439 106.28 59.7045 105.205C57.2803 104.129 55.3712 102.629 53.9773 100.705C52.5985 98.7803 51.8182 96.5455 51.6364 94H57.4545C57.6061 95.7576 58.197 97.2121 59.2273 98.3636C60.2727 99.5 61.5909 100.348 63.1818 100.909C64.7879 101.455 66.5152 101.727 68.3636 101.727C70.5152 101.727 72.447 101.379 74.1591 100.682C75.8712 99.9697 77.2273 98.9848 78.2273 97.7273C79.2273 96.4545 79.7273 94.9697 79.7273 93.2727C79.7273 91.7273 79.2955 90.4697 78.4318 89.5C77.5682 88.5303 76.4318 87.7424 75.0227 87.1364C73.6136 86.5303 72.0909 86 70.4545 85.5455L64.7273 83.9091C61.0909 82.8636 58.2121 81.3712 56.0909 79.4318C53.9697 77.4924 52.9091 74.9545 52.9091 71.8182C52.9091 69.2121 53.6136 66.9394 55.0227 65C56.447 63.0455 58.3561 61.5303 60.75 60.4545C63.1591 59.3636 65.8485 58.8182 68.8182 58.8182C71.8182 58.8182 74.4848 59.3561 76.8182 60.4318C79.1515 61.4924 81 62.947 82.3636 64.7955C83.7424 66.6439 84.4697 68.7424 84.5455 71.0909H79.0909ZM107.903 106.727C104.752 106.727 101.987 105.977 99.608 104.477C97.2443 102.977 95.3958 100.879 94.0625 98.1818C92.7443 95.4848 92.0852 92.3333 92.0852 88.7273C92.0852 85.0909 92.7443 81.9167 94.0625 79.2045C95.3958 76.4924 97.2443 74.3864 99.608 72.8864C101.987 71.3864 104.752 70.6364 107.903 70.6364C111.055 70.6364 113.813 71.3864 116.176 72.8864C118.555 74.3864 120.403 76.4924 121.722 79.2045C123.055 81.9167 123.722 85.0909 123.722 88.7273C123.722 92.3333 123.055 95.4848 121.722 98.1818C120.403 100.879 118.555 102.977 116.176 104.477C113.813 105.977 111.055 106.727 107.903 106.727ZM107.903 101.909C110.297 101.909 112.267 101.295 113.812 100.068C115.358 98.8409 116.502 97.2273 117.244 95.2273C117.987 93.2273 118.358 91.0606 118.358 88.7273C118.358 86.3939 117.987 84.2197 117.244 82.2045C116.502 80.1894 115.358 78.5606 113.812 77.3182C112.267 76.0758 110.297 75.4545 107.903 75.4545C105.509 75.4545 103.54 76.0758 101.994 77.3182C100.449 78.5606 99.3049 80.1894 98.5625 82.2045C97.8201 84.2197 97.4489 86.3939 97.4489 88.7273C97.4489 91.0606 97.8201 93.2273 98.5625 95.2273C99.3049 97.2273 100.449 98.8409 101.994 100.068C103.54 101.295 105.509 101.909 107.903 101.909ZM137.273 59.4545V106H131.909V59.4545H137.273ZM147.097 106V71.0909H152.46V106H147.097ZM149.824 65.2727C148.778 65.2727 147.877 64.9167 147.119 64.2045C146.377 63.4924 146.006 62.6364 146.006 61.6364C146.006 60.6364 146.377 59.7803 147.119 59.0682C147.877 58.3561 148.778 58 149.824 58C150.869 58 151.763 58.3561 152.506 59.0682C153.263 59.7803 153.642 60.6364 153.642 61.6364C153.642 62.6364 153.263 63.4924 152.506 64.2045C151.763 64.9167 150.869 65.2727 149.824 65.2727ZM175.466 106.727C172.557 106.727 169.989 105.992 167.761 104.523C165.534 103.038 163.792 100.947 162.534 98.25C161.277 95.5379 160.648 92.3333 160.648 88.6364C160.648 84.9697 161.277 81.7879 162.534 79.0909C163.792 76.3939 165.542 74.3106 167.784 72.8409C170.027 71.3712 172.617 70.6364 175.557 70.6364C177.83 70.6364 179.625 71.0152 180.943 71.7727C182.277 72.5152 183.292 73.3636 183.989 74.3182C184.701 75.2576 185.254 76.0303 185.648 76.6364H186.102V59.4545H191.466V106H186.284V100.636H185.648C185.254 101.273 184.693 102.076 183.966 103.045C183.239 104 182.201 104.856 180.852 105.614C179.504 106.356 177.708 106.727 175.466 106.727ZM176.193 101.909C178.345 101.909 180.163 101.348 181.648 100.227C183.133 99.0909 184.261 97.5227 185.034 95.5227C185.807 93.5076 186.193 91.1818 186.193 88.5455C186.193 85.9394 185.814 83.6591 185.057 81.7045C184.299 79.7348 183.178 78.2045 181.693 77.1136C180.208 76.0076 178.375 75.4545 176.193 75.4545C173.92 75.4545 172.027 76.0379 170.511 77.2045C169.011 78.3561 167.883 79.9242 167.125 81.9091C166.383 83.8788 166.011 86.0909 166.011 88.5455C166.011 91.0303 166.39 93.2879 167.148 95.3182C167.92 97.3333 169.057 98.9394 170.557 100.136C172.072 101.318 173.951 101.909 176.193 101.909ZM202.034 106V71.0909H207.398V106H202.034ZM204.761 65.2727C203.716 65.2727 202.814 64.9167 202.057 64.2045C201.314 63.4924 200.943 62.6364 200.943 61.6364C200.943 60.6364 201.314 59.7803 202.057 59.0682C202.814 58.3561 203.716 58 204.761 58C205.807 58 206.701 58.3561 207.443 59.0682C208.201 59.7803 208.58 60.6364 208.58 61.6364C208.58 62.6364 208.201 63.4924 207.443 64.2045C206.701 64.9167 205.807 65.2727 204.761 65.2727ZM232.403 71.0909V75.6364H214.312V71.0909H232.403ZM219.585 62.7273H224.949V96C224.949 97.5152 225.169 98.6515 225.608 99.4091C226.063 100.152 226.638 100.652 227.335 100.909C228.047 101.152 228.797 101.273 229.585 101.273C230.176 101.273 230.661 101.242 231.04 101.182C231.419 101.106 231.722 101.045 231.949 101L233.04 105.818C232.676 105.955 232.169 106.091 231.517 106.227C230.866 106.379 230.04 106.455 229.04 106.455C227.525 106.455 226.04 106.129 224.585 105.477C223.146 104.826 221.949 103.833 220.994 102.5C220.055 101.167 219.585 99.4848 219.585 97.4545V62.7273ZM243.926 119.091C243.017 119.091 242.206 119.015 241.494 118.864C240.782 118.727 240.29 118.591 240.017 118.455L241.381 113.727C242.684 114.061 243.835 114.182 244.835 114.091C245.835 114 246.722 113.553 247.494 112.75C248.282 111.962 249.002 110.682 249.653 108.909L250.653 106.182L237.744 71.0909H243.562L253.199 98.9091H253.562L263.199 71.0909H269.017L254.199 111.091C253.532 112.894 252.706 114.386 251.722 115.568C250.737 116.765 249.593 117.652 248.29 118.227C247.002 118.803 245.547 119.091 243.926 119.091Z" fill="black"/>
</g>
</g>
<defs>
<filter id="filter0_d_611_127" x="0" y="0" width="608" height="508" filterUnits="userSpaceOnUse" color-interpolation-filters="sRGB">
<feFlood flood-opacity="0" result="BackgroundImageFix"/>
<feColorMatrix in="SourceAlpha" type="matrix" values="0 0 0 0 0 0 0 0 0 0 0 0 0 0 0 0 0 0 127 0" result="hardAlpha"/>
<feOffset dy="4"/>
<feGaussianBlur stdDeviation="2"/>
<feColorMatrix type="matrix" values="0 0 0 0 0 0 0 0 0 0 0 0 0 0 0 0 0 0 0.25 0"/>
<feBlend mode="normal" in2="BackgroundImageFix" result="effect1_dropShadow_611_127"/>
<feBlend mode="normal" in="SourceGraphic" in2="effect1_dropShadow_611_127" result="shape"/>
</filter>
<clipPath id="clip0_611_127">
<rect x="4" width="600" height="500" rx="70" fill="white"/>
</clipPath>
</defs>
</svg>
