<svg width="608" height="508" viewBox="0 0 608 508" fill="none" xmlns="http://www.w3.org/2000/svg">
<g filter="url(#filter0_d_513_87)">
<g clip-path="url(#clip0_513_87)">
<rect x="4" width="600" height="500" rx="70" fill="white"/>
<path fill-rule="evenodd" clip-rule="evenodd" d="M59.29 49C48.5453 49 41.8316 54.3457 39.1442 65.0372C43.1737 59.6915 47.8742 57.6872 53.2458 59.0229C56.3105 59.7847 58.5021 61.9976 60.9258 64.4476C64.8763 68.4372 69.449 73.0543 79.4342 73.0543C90.1774 73.0543 96.8926 67.7085 99.5784 57.0186C95.5505 62.3644 90.85 64.3686 85.4784 63.0314C82.4121 62.2695 80.2205 60.0566 77.7968 57.6082C73.8463 53.6155 69.2753 49 59.29 49ZM39.1442 73.0543C28.4011 73.0543 21.6858 78.4 19 89.0915C23.0295 83.7457 27.73 81.7415 33.1 83.0771C36.1663 83.839 38.3579 86.0519 40.7816 88.5019C44.7321 92.4915 49.3032 97.1085 59.29 97.1085C70.0332 97.1085 76.7484 91.7644 79.4342 81.0729C75.4047 86.4186 70.7042 88.4229 65.3326 87.0872C62.2679 86.3238 60.0763 84.1109 57.6526 81.6625C53.7021 77.6729 49.1295 73.0543 39.1442 73.0543V73.0543Z" fill="#06B6D4"/>
<path fill-rule="evenodd" clip-rule="evenodd" d="M139.862 69.2717H132.831V82.8131C132.831 86.4249 135.212 86.368 139.862 86.142V91.6157C130.448 92.7443 126.706 90.1489 126.706 82.8131V69.2717H121.489V63.4028H126.706V55.8252L132.831 54.0185V63.4028H139.862V69.2717ZM166.663 63.4028H172.786V91.6157H166.663V87.5535C164.508 90.5425 161.162 92.3492 156.739 92.3492C149.028 92.3492 142.62 85.8606 142.62 77.5085C142.62 69.1026 149.028 62.6694 156.739 62.6694C161.162 62.6694 164.508 64.4745 166.663 67.4097V63.4028ZM157.704 86.5371C162.807 86.5371 166.663 82.7562 166.663 77.5085C166.663 72.2607 162.807 68.4814 157.704 68.4814C152.601 68.4814 148.745 72.2623 148.745 77.5085C148.745 82.7562 152.601 86.5371 157.704 86.5371ZM182.992 59.1714C180.839 59.1714 179.081 57.3663 179.081 55.2783C179.086 54.2435 179.501 53.2528 180.234 52.5232C180.967 51.7935 181.959 51.3843 182.992 51.3852C184.026 51.3839 185.019 51.7929 185.752 52.5226C186.485 53.2523 186.9 54.2432 186.905 55.2783C186.905 57.3647 185.148 59.1714 182.992 59.1714ZM179.931 91.6157V63.4028H186.056V91.6157H179.931ZM193.143 91.6157V50.4225H199.267V91.6142H193.143V91.6157ZM239.017 63.4028H245.481L236.579 91.6157H230.568L224.67 72.6006L218.716 91.6157H212.707L203.803 63.4028H210.267L215.768 82.8685L221.722 63.4028H227.563L233.459 82.8685L239.017 63.4028ZM253.079 59.1714C250.923 59.1714 249.166 57.3663 249.166 55.2783C249.171 54.2432 249.586 53.2523 250.319 52.5226C251.052 51.7929 252.045 51.3839 253.079 51.3852C254.113 51.3839 255.105 51.7929 255.838 52.5226C256.572 53.2523 256.986 54.2432 256.991 55.2783C256.991 57.3647 255.234 59.1714 253.079 59.1714ZM250.017 91.6157V63.4028H256.14V91.6157H250.017ZM278.141 62.6694C284.492 62.6694 289.028 66.9577 289.028 74.2935V91.6142H282.905V74.9131C282.905 70.6248 280.41 68.3692 276.555 68.3692C272.528 68.3692 269.353 70.7386 269.353 76.4937V91.6157H263.228V63.4028H269.353V67.0146C271.224 64.0809 274.286 62.6694 278.141 62.6694ZM318.06 52.1186H324.185V91.6142H318.06V87.5519C315.907 90.5425 312.561 92.3476 308.138 92.3476C300.427 92.3476 294.019 85.859 294.019 77.5069C294.019 69.101 300.427 62.6678 308.138 62.6678C312.561 62.6678 315.907 64.4729 318.06 67.4082V52.1186ZM309.101 86.5371C314.205 86.5371 318.06 82.7562 318.06 77.5085C318.06 72.2607 314.205 68.4814 309.101 68.4814C303.998 68.4814 300.142 72.2623 300.142 77.5085C300.142 82.7562 303.998 86.5371 309.101 86.5371ZM344.711 92.3492C336.149 92.3492 329.741 85.8606 329.741 77.5085C329.741 69.1026 336.149 62.6694 344.711 62.6694C350.268 62.6694 355.088 65.5462 357.356 69.9483L352.082 72.9957C350.834 70.3434 348.057 68.6505 344.655 68.6505C339.665 68.6505 335.866 72.4314 335.866 77.5085C335.866 82.5871 339.665 86.368 344.655 86.368C348.057 86.368 350.835 84.6182 352.196 82.0228L357.469 85.0134C355.088 89.4708 350.268 92.3492 344.711 92.3492ZM367.562 71.1891C367.562 76.3246 382.816 73.2202 382.816 83.6604C382.816 89.3033 377.882 92.3492 371.759 92.3492C366.089 92.3492 362.006 89.8091 360.191 85.7468L365.465 82.7009C366.371 85.2394 368.64 86.7632 371.759 86.7632C374.481 86.7632 376.578 85.8606 376.578 83.6019C376.578 78.5817 361.325 81.4032 361.325 71.3029C361.325 65.9982 365.918 62.6694 371.702 62.6694C376.352 62.6694 380.208 64.8143 382.192 68.5383L377.032 71.4151C376.011 69.2148 374.026 68.1985 371.702 68.1985C369.49 68.1985 367.562 69.1579 367.562 71.1891ZM393.703 71.1891C393.703 76.3246 408.956 73.2202 408.956 83.6604C408.956 89.3033 404.023 92.3492 397.898 92.3492C392.228 92.3492 388.147 89.8091 386.331 85.7468L391.605 82.7009C392.512 85.2394 394.78 86.7632 397.898 86.7632C400.62 86.7632 402.719 85.8606 402.719 83.6019C402.719 78.5817 387.466 81.4032 387.466 71.3029C387.466 65.9982 392.058 62.6694 397.843 62.6694C402.491 62.6694 406.347 64.8143 408.332 68.5383L403.172 71.4151C402.152 69.2148 400.167 68.1985 397.843 68.1985C395.631 68.1985 393.703 69.1579 393.703 71.1891Z" fill="#111827"/>
<path d="M4 280.997L605 127.724V490C605 495.523 600.523 500 595 500H14C8.47715 500 4 495.523 4 490V280.997Z" fill="#06B6D4"/>
<path d="M4 280.997L605 127.724V490C605 495.523 600.523 500 595 500H14C8.47715 500 4 495.523 4 490V280.997Z" fill="#111827"/>
</g>
</g>
<defs>
<filter id="filter0_d_513_87" x="0" y="0" width="608" height="508" filterUnits="userSpaceOnUse" color-interpolation-filters="sRGB">
<feFlood flood-opacity="0" result="BackgroundImageFix"/>
<feColorMatrix in="SourceAlpha" type="matrix" values="0 0 0 0 0 0 0 0 0 0 0 0 0 0 0 0 0 0 127 0" result="hardAlpha"/>
<feOffset dy="4"/>
<feGaussianBlur stdDeviation="2"/>
<feColorMatrix type="matrix" values="0 0 0 0 0 0 0 0 0 0 0 0 0 0 0 0 0 0 0.25 0"/>
<feBlend mode="normal" in2="BackgroundImageFix" result="effect1_dropShadow_513_87"/>
<feBlend mode="normal" in="SourceGraphic" in2="effect1_dropShadow_513_87" result="shape"/>
</filter>
<clipPath id="clip0_513_87">
<rect x="4" width="600" height="500" rx="70" fill="white"/>
</clipPath>
</defs>
</svg>
