<svg width="608" height="508" viewBox="0 0 608 508" fill="none" xmlns="http://www.w3.org/2000/svg">
<g filter="url(#filter0_d_611_99)">
<g clip-path="url(#clip0_611_99)">
<rect x="4" width="600" height="500" rx="70" fill="white"/>
<path d="M4 280.997L605 127.724V490C605 495.523 600.523 500 595 500H14C8.47715 500 4 495.523 4 490V280.997Z" fill="#06B6D4"/>
<path d="M4 280.997L605 127.724V490C605 495.523 600.523 500 595 500H14C8.47715 500 4 495.523 4 490V280.997Z" fill="#111827"/>
<path d="M51.0909 64.4545V59.4545H86V64.4545H71.3636V106H65.7273V64.4545H51.0909ZM99.4943 106.818C97.2822 106.818 95.2746 106.402 93.4716 105.568C91.6686 104.72 90.2367 103.5 89.1761 101.909C88.1155 100.303 87.5852 98.3636 87.5852 96.0909C87.5852 94.0909 87.9792 92.4697 88.767 91.2273C89.5549 89.9697 90.608 88.9848 91.9261 88.2727C93.2443 87.5606 94.6989 87.0303 96.2898 86.6818C97.8958 86.3182 99.5095 86.0303 101.131 85.8182C103.252 85.5455 104.972 85.3409 106.29 85.2045C107.623 85.053 108.593 84.803 109.199 84.4545C109.82 84.1061 110.131 83.5 110.131 82.6364V82.4545C110.131 80.2121 109.517 78.4697 108.29 77.2273C107.078 75.9848 105.237 75.3636 102.767 75.3636C100.206 75.3636 98.1989 75.9242 96.7443 77.0455C95.2898 78.1667 94.267 79.3636 93.6761 80.6364L88.5852 78.8182C89.4943 76.697 90.7064 75.0455 92.2216 73.8636C93.7519 72.6667 95.4186 71.8333 97.2216 71.3636C99.0398 70.8788 100.828 70.6364 102.585 70.6364C103.706 70.6364 104.994 70.7727 106.449 71.0455C107.919 71.303 109.335 71.8409 110.699 72.6591C112.078 73.4773 113.222 74.7121 114.131 76.3636C115.04 78.0152 115.494 80.2273 115.494 83V106H110.131V101.273H109.858C109.494 102.03 108.888 102.841 108.04 103.705C107.191 104.568 106.063 105.303 104.653 105.909C103.244 106.515 101.525 106.818 99.4943 106.818ZM100.312 102C102.434 102 104.222 101.583 105.676 100.75C107.146 99.9167 108.252 98.8409 108.994 97.5227C109.752 96.2045 110.131 94.8182 110.131 93.3636V88.4545C109.903 88.7273 109.403 88.9773 108.631 89.2045C107.873 89.4167 106.994 89.6061 105.994 89.7727C105.009 89.9242 104.047 90.0606 103.108 90.1818C102.184 90.2879 101.434 90.3788 100.858 90.4545C99.464 90.6364 98.161 90.9318 96.9489 91.3409C95.7519 91.7348 94.7822 92.3333 94.0398 93.1364C93.3125 93.9242 92.9489 95 92.9489 96.3636C92.9489 98.2273 93.6383 99.6364 95.017 100.591C96.411 101.53 98.1761 102 100.312 102ZM125.284 106V71.0909H130.648V106H125.284ZM128.011 65.2727C126.966 65.2727 126.064 64.9167 125.307 64.2045C124.564 63.4924 124.193 62.6364 124.193 61.6364C124.193 60.6364 124.564 59.7803 125.307 59.0682C126.064 58.3561 126.966 58 128.011 58C129.057 58 129.951 58.3561 130.693 59.0682C131.451 59.7803 131.83 60.6364 131.83 61.6364C131.83 62.6364 131.451 63.4924 130.693 64.2045C129.951 64.9167 129.057 65.2727 128.011 65.2727ZM145.835 59.4545V106H140.472V59.4545H145.835ZM163.568 106L152.932 71.0909H158.568L166.114 97.8182H166.477L173.932 71.0909H179.659L187.023 97.7273H187.386L194.932 71.0909H200.568L189.932 106H184.659L177.023 79.1818H176.477L168.841 106H163.568ZM207.659 106V71.0909H213.023V106H207.659ZM210.386 65.2727C209.341 65.2727 208.439 64.9167 207.682 64.2045C206.939 63.4924 206.568 62.6364 206.568 61.6364C206.568 60.6364 206.939 59.7803 207.682 59.0682C208.439 58.3561 209.341 58 210.386 58C211.432 58 212.326 58.3561 213.068 59.0682C213.826 59.7803 214.205 60.6364 214.205 61.6364C214.205 62.6364 213.826 63.4924 213.068 64.2045C212.326 64.9167 211.432 65.2727 210.386 65.2727ZM228.21 85V106H222.847V71.0909H228.028V76.5455H228.483C229.301 74.7727 230.544 73.3485 232.21 72.2727C233.877 71.1818 236.028 70.6364 238.665 70.6364C241.028 70.6364 243.097 71.1212 244.869 72.0909C246.642 73.0455 248.021 74.5 249.006 76.4545C249.991 78.3939 250.483 80.8485 250.483 83.8182V106H245.119V84.1818C245.119 81.4394 244.407 79.303 242.983 77.7727C241.559 76.2273 239.604 75.4545 237.119 75.4545C235.407 75.4545 233.877 75.8258 232.528 76.5682C231.195 77.3106 230.142 78.3939 229.369 79.8182C228.597 81.2424 228.21 82.9697 228.21 85ZM273.466 106.727C270.557 106.727 267.989 105.992 265.761 104.523C263.534 103.038 261.792 100.947 260.534 98.25C259.277 95.5379 258.648 92.3333 258.648 88.6364C258.648 84.9697 259.277 81.7879 260.534 79.0909C261.792 76.3939 263.542 74.3106 265.784 72.8409C268.027 71.3712 270.617 70.6364 273.557 70.6364C275.83 70.6364 277.625 71.0152 278.943 71.7727C280.277 72.5152 281.292 73.3636 281.989 74.3182C282.701 75.2576 283.254 76.0303 283.648 76.6364H284.102V59.4545H289.466V106H284.284V100.636H283.648C283.254 101.273 282.693 102.076 281.966 103.045C281.239 104 280.201 104.856 278.852 105.614C277.504 106.356 275.708 106.727 273.466 106.727ZM274.193 101.909C276.345 101.909 278.163 101.348 279.648 100.227C281.133 99.0909 282.261 97.5227 283.034 95.5227C283.807 93.5076 284.193 91.1818 284.193 88.5455C284.193 85.9394 283.814 83.6591 283.057 81.7045C282.299 79.7348 281.178 78.2045 279.693 77.1136C278.208 76.0076 276.375 75.4545 274.193 75.4545C271.92 75.4545 270.027 76.0379 268.511 77.2045C267.011 78.3561 265.883 79.9242 265.125 81.9091C264.383 83.8788 264.011 86.0909 264.011 88.5455C264.011 91.0303 264.39 93.2879 265.148 95.3182C265.92 97.3333 267.057 98.9394 268.557 100.136C270.072 101.318 271.951 101.909 274.193 101.909ZM338.216 74H332.58C332.246 72.3788 331.663 70.9545 330.83 69.7273C330.011 68.5 329.011 67.4697 327.83 66.6364C326.663 65.7879 325.367 65.1515 323.943 64.7273C322.519 64.303 321.034 64.0909 319.489 64.0909C316.67 64.0909 314.117 64.803 311.83 66.2273C309.557 67.6515 307.746 69.75 306.398 72.5227C305.064 75.2955 304.398 78.697 304.398 82.7273C304.398 86.7576 305.064 90.1591 306.398 92.9318C307.746 95.7045 309.557 97.803 311.83 99.2273C314.117 100.652 316.67 101.364 319.489 101.364C321.034 101.364 322.519 101.152 323.943 100.727C325.367 100.303 326.663 99.6742 327.83 98.8409C329.011 97.9924 330.011 96.9545 330.83 95.7273C331.663 94.4848 332.246 93.0606 332.58 91.4545H338.216C337.792 93.8333 337.019 95.9621 335.898 97.8409C334.777 99.7197 333.383 101.318 331.716 102.636C330.049 103.939 328.178 104.932 326.102 105.614C324.042 106.295 321.837 106.636 319.489 106.636C315.519 106.636 311.989 105.667 308.898 103.727C305.807 101.788 303.375 99.0303 301.602 95.4545C299.83 91.8788 298.943 87.6364 298.943 82.7273C298.943 77.8182 299.83 73.5758 301.602 70C303.375 66.4242 305.807 63.6667 308.898 61.7273C311.989 59.7879 315.519 58.8182 319.489 58.8182C321.837 58.8182 324.042 59.1591 326.102 59.8409C328.178 60.5227 330.049 61.5227 331.716 62.8409C333.383 64.1439 334.777 65.7348 335.898 67.6136C337.019 69.4773 337.792 71.6061 338.216 74ZM372.778 71.0909C372.506 68.7879 371.4 67 369.46 65.7273C367.521 64.4545 365.142 63.8182 362.324 63.8182C360.263 63.8182 358.46 64.1515 356.915 64.8182C355.384 65.4848 354.188 66.4015 353.324 67.5682C352.475 68.7348 352.051 70.0606 352.051 71.5455C352.051 72.7879 352.347 73.8561 352.938 74.75C353.544 75.6288 354.316 76.3636 355.256 76.9545C356.195 77.5303 357.18 78.0076 358.21 78.3864C359.241 78.75 360.188 79.0455 361.051 79.2727L365.778 80.5455C366.991 80.8636 368.339 81.303 369.824 81.8636C371.324 82.4242 372.756 83.1894 374.119 84.1591C375.498 85.1136 376.634 86.3409 377.528 87.8409C378.422 89.3409 378.869 91.1818 378.869 93.3636C378.869 95.8788 378.21 98.1515 376.892 100.182C375.589 102.212 373.68 103.826 371.165 105.023C368.665 106.22 365.627 106.818 362.051 106.818C358.718 106.818 355.831 106.28 353.392 105.205C350.968 104.129 349.059 102.629 347.665 100.705C346.286 98.7803 345.506 96.5455 345.324 94H351.142C351.294 95.7576 351.884 97.2121 352.915 98.3636C353.96 99.5 355.278 100.348 356.869 100.909C358.475 101.455 360.203 101.727 362.051 101.727C364.203 101.727 366.134 101.379 367.847 100.682C369.559 99.9697 370.915 98.9848 371.915 97.7273C372.915 96.4545 373.415 94.9697 373.415 93.2727C373.415 91.7273 372.983 90.4697 372.119 89.5C371.256 88.5303 370.119 87.7424 368.71 87.1364C367.301 86.5303 365.778 86 364.142 85.5455L358.415 83.9091C354.778 82.8636 351.9 81.3712 349.778 79.4318C347.657 77.4924 346.597 74.9545 346.597 71.8182C346.597 69.2121 347.301 66.9394 348.71 65C350.134 63.0455 352.044 61.5303 354.438 60.4545C356.847 59.3636 359.536 58.8182 362.506 58.8182C365.506 58.8182 368.172 59.3561 370.506 60.4318C372.839 61.4924 374.688 62.947 376.051 64.7955C377.43 66.6439 378.157 68.7424 378.233 71.0909H372.778ZM413.591 71.0909C413.318 68.7879 412.212 67 410.273 65.7273C408.333 64.4545 405.955 63.8182 403.136 63.8182C401.076 63.8182 399.273 64.1515 397.727 64.8182C396.197 65.4848 395 66.4015 394.136 67.5682C393.288 68.7348 392.864 70.0606 392.864 71.5455C392.864 72.7879 393.159 73.8561 393.75 74.75C394.356 75.6288 395.129 76.3636 396.068 76.9545C397.008 77.5303 397.992 78.0076 399.023 78.3864C400.053 78.75 401 79.0455 401.864 79.2727L406.591 80.5455C407.803 80.8636 409.152 81.303 410.636 81.8636C412.136 82.4242 413.568 83.1894 414.932 84.1591C416.311 85.1136 417.447 86.3409 418.341 87.8409C419.235 89.3409 419.682 91.1818 419.682 93.3636C419.682 95.8788 419.023 98.1515 417.705 100.182C416.402 102.212 414.492 103.826 411.977 105.023C409.477 106.22 406.439 106.818 402.864 106.818C399.53 106.818 396.644 106.28 394.205 105.205C391.78 104.129 389.871 102.629 388.477 100.705C387.098 98.7803 386.318 96.5455 386.136 94H391.955C392.106 95.7576 392.697 97.2121 393.727 98.3636C394.773 99.5 396.091 100.348 397.682 100.909C399.288 101.455 401.015 101.727 402.864 101.727C405.015 101.727 406.947 101.379 408.659 100.682C410.371 99.9697 411.727 98.9848 412.727 97.7273C413.727 96.4545 414.227 94.9697 414.227 93.2727C414.227 91.7273 413.795 90.4697 412.932 89.5C412.068 88.5303 410.932 87.7424 409.523 87.1364C408.114 86.5303 406.591 86 404.955 85.5455L399.227 83.9091C395.591 82.8636 392.712 81.3712 390.591 79.4318C388.47 77.4924 387.409 74.9545 387.409 71.8182C387.409 69.2121 388.114 66.9394 389.523 65C390.947 63.0455 392.856 61.5303 395.25 60.4545C397.659 59.3636 400.348 58.8182 403.318 58.8182C406.318 58.8182 408.985 59.3561 411.318 60.4318C413.652 61.4924 415.5 62.947 416.864 64.7955C418.242 66.6439 418.97 68.7424 419.045 71.0909H413.591Z" fill="black"/>
</g>
</g>
<defs>
<filter id="filter0_d_611_99" x="0" y="0" width="608" height="508" filterUnits="userSpaceOnUse" color-interpolation-filters="sRGB">
<feFlood flood-opacity="0" result="BackgroundImageFix"/>
<feColorMatrix in="SourceAlpha" type="matrix" values="0 0 0 0 0 0 0 0 0 0 0 0 0 0 0 0 0 0 127 0" result="hardAlpha"/>
<feOffset dy="4"/>
<feGaussianBlur stdDeviation="2"/>
<feColorMatrix type="matrix" values="0 0 0 0 0 0 0 0 0 0 0 0 0 0 0 0 0 0 0.25 0"/>
<feBlend mode="normal" in2="BackgroundImageFix" result="effect1_dropShadow_611_99"/>
<feBlend mode="normal" in="SourceGraphic" in2="effect1_dropShadow_611_99" result="shape"/>
</filter>
<clipPath id="clip0_611_99">
<rect x="4" width="600" height="500" rx="70" fill="white"/>
</clipPath>
</defs>
</svg>
