<?xml version="1.0" standalone="no"?>
<!DOCTYPE svg PUBLIC "-//W3C//DTD SVG 20010904//EN"
 "http://www.w3.org/TR/2001/REC-SVG-20010904/DTD/svg10.dtd">
<svg version="1.0" xmlns="http://www.w3.org/2000/svg"
 width="700.000000pt" height="700.000000pt" viewBox="0 0 700.000000 700.000000"
 preserveAspectRatio="xMidYMid meet">
<metadata>
Created by potrace 1.14, written by Peter Selinger 2001-2017
</metadata>
<g transform="translate(0.000000,700.000000) scale(0.100000,-0.100000)"
fill="#000000" stroke="none">
<path d="M3210 5815 c-52 -8 -108 -16 -125 -19 -16 -3 -43 -8 -60 -11 -62 -12
-223 -57 -305 -87 -354 -128 -657 -326 -916 -598 -292 -307 -503 -712 -588
-1130 -37 -185 -38 -186 -41 -435 -3 -215 2 -294 30 -455 66 -375 259 -786
509 -1080 59 -70 208 -221 253 -258 23 -18 54 -44 70 -58 15 -13 62 -48 103
-78 303 -218 655 -360 1030 -415 146 -21 453 -27 575 -11 44 6 98 13 120 15
33 4 61 10 105 20 3 1 32 7 65 14 145 32 328 97 485 174 506 246 917 681 1135
1202 39 93 98 275 111 338 2 10 5 26 8 35 3 9 8 33 11 52 3 19 8 42 10 50 2 8
6 33 9 55 3 22 10 69 15 105 11 85 12 425 0 515 -27 214 -59 351 -128 544
-253 706 -861 1262 -1591 1455 -92 24 -178 42 -250 53 -19 2 -62 8 -95 13 -91
13 -438 9 -545 -5z"/>
</g>
</svg>
